<svg width="512" height="512" viewBox="0 0 512 512" fill="none" xmlns="http://www.w3.org/2000/svg">
<g clip-path="url(#clip0_248_119)">
<path d="M123.515 -0.404013C124.502 -0.410876 125.489 -0.417739 126.505 -0.424811C129.732 -0.442946 132.958 -0.43926 136.185 -0.433554C138.45 -0.438122 140.714 -0.443429 142.979 -0.449438C147.712 -0.458343 152.445 -0.455976 157.178 -0.446005C163.218 -0.434516 169.257 -0.45474 175.297 -0.483922C179.97 -0.502342 184.643 -0.50198 189.316 -0.496285C191.542 -0.496132 193.768 -0.502116 195.993 -0.514576C218.263 -0.621704 218.263 -0.621704 228.001 4.00004C228.82 4.37814 229.638 4.75625 230.481 5.14581C245.053 12.2224 253.667 25.1331 259.05 39.873C260.597 45.4157 260.296 51.1323 260.292 56.8416C260.298 58.1239 260.305 59.4062 260.312 60.7273C260.33 64.232 260.334 67.7366 260.336 71.2414C260.337 73.4388 260.341 75.6362 260.347 77.8335C260.365 85.5224 260.373 93.2113 260.372 100.9C260.371 108.028 260.392 115.156 260.423 122.285C260.45 128.433 260.46 134.581 260.459 140.729C260.458 144.388 260.464 148.047 260.485 151.706C260.584 169.756 260.459 186.372 252.251 202.875C251.91 203.581 251.568 204.286 251.217 205.013C248.213 211.002 244.479 216.02 240.001 221C239.546 221.596 239.091 222.191 238.622 222.805C231.624 231.871 221.315 238.382 211.001 243C211.001 247.62 211.001 252.24 211.001 257C211.929 257.144 212.857 257.289 213.814 257.438C222.779 260.004 230.218 268.995 236.907 275.152C240.639 278.445 242.706 279.244 247.603 279.273C248.724 279.291 249.846 279.309 251.002 279.327C252.198 279.343 253.394 279.359 254.626 279.375C269.097 279.762 281.263 281.696 294.489 287.648C295.217 287.972 295.945 288.295 296.695 288.628C298.466 289.414 300.234 290.207 302.001 291C301.992 290.262 301.983 289.523 301.974 288.763C301.894 281.789 301.833 274.816 301.794 267.842C301.773 264.257 301.745 260.672 301.699 257.087C301.656 253.625 301.632 250.163 301.622 246.7C301.611 244.743 301.58 242.785 301.548 240.828C301.545 229.539 301.545 229.539 306.001 225C310.174 221.857 313.791 221.571 318.851 221.612C319.635 221.607 320.419 221.602 321.227 221.596C323.851 221.582 326.475 221.589 329.099 221.596C330.981 221.59 332.864 221.583 334.746 221.575C339.858 221.557 344.969 221.558 350.081 221.564C354.348 221.567 358.615 221.561 362.882 221.555C372.948 221.541 383.014 221.543 393.08 221.554C403.466 221.565 413.851 221.551 424.236 221.525C433.153 221.502 442.069 221.496 450.986 221.502C456.311 221.505 461.637 221.503 466.962 221.485C471.97 221.47 476.977 221.474 481.985 221.493C483.822 221.496 485.66 221.493 487.497 221.483C490.007 221.47 492.515 221.481 495.024 221.499C495.75 221.489 496.477 221.48 497.225 221.47C502.277 221.543 505.164 222.744 509.001 226C513.107 230.591 512.423 236.06 512.389 241.887C512.397 243.553 512.397 243.553 512.405 245.253C512.42 248.983 512.412 252.712 512.405 256.441C512.411 259.112 512.418 261.783 512.426 264.454C512.443 270.959 512.444 277.465 512.439 283.971C512.435 289.259 512.436 294.547 512.442 299.834C512.442 300.587 512.443 301.339 512.444 302.115C512.445 303.643 512.447 305.172 512.448 306.701C512.462 321.037 512.457 335.374 512.445 349.71C512.435 362.827 512.448 375.943 512.472 389.059C512.497 402.527 512.506 415.994 512.5 429.462C512.496 437.023 512.498 444.584 512.516 452.145C512.531 458.582 512.531 465.018 512.514 471.455C512.505 474.739 512.505 478.022 512.518 481.306C512.532 484.866 512.52 488.426 512.502 491.986C512.512 493.023 512.522 494.061 512.531 495.13C512.472 500.897 512.061 504.552 508.001 509C503.969 512.303 500.175 512.429 495.151 512.388C494.367 512.393 493.583 512.399 492.775 512.404C490.151 512.418 487.528 512.411 484.904 512.404C483.021 512.41 481.139 512.417 479.256 512.425C474.144 512.443 469.033 512.442 463.921 512.436C459.654 512.433 455.387 512.439 451.12 512.445C441.054 512.459 430.988 512.457 420.922 512.446C410.537 512.435 400.152 512.449 389.766 512.476C380.85 512.498 371.933 512.504 363.017 512.498C357.691 512.495 352.366 512.497 347.04 512.515C342.033 512.53 337.025 512.526 332.017 512.507C330.18 512.504 328.343 512.507 326.505 512.517C323.996 512.53 321.488 512.519 318.978 512.501C318.252 512.511 317.526 512.52 316.778 512.53C311.725 512.457 308.839 511.256 305.001 508C301.107 503.529 301.613 498.731 301.708 493.105C301.712 492.158 301.717 491.211 301.721 490.235C301.738 487.219 301.775 484.203 301.814 481.188C301.829 479.139 301.842 477.09 301.855 475.041C301.888 470.027 301.939 465.014 302.001 460C301.383 460.002 300.766 460.003 300.129 460.005C263.529 460.094 226.929 460.163 190.328 460.204C185.935 460.209 181.541 460.214 177.148 460.22C175.836 460.221 175.836 460.221 174.497 460.223C160.33 460.24 146.162 460.272 131.995 460.309C117.461 460.346 102.927 460.368 88.3924 460.376C79.4221 460.382 70.452 460.399 61.4817 460.432C55.3326 460.453 49.1836 460.459 43.0344 460.454C39.4853 460.451 35.9365 460.455 32.3874 460.477C28.5402 460.5 24.6934 460.492 20.8461 460.481C19.7236 460.493 18.601 460.504 17.4444 460.516C11.3118 460.469 7.65416 460.13 3.00119 456C-0.483522 451.827 -0.432337 447.658 -0.402862 442.44C-0.409725 441.589 -0.416588 440.738 -0.423659 439.861C-0.441948 437.048 -0.438082 434.235 -0.432403 431.422C-0.436968 429.452 -0.442275 427.482 -0.448287 425.512C-0.457226 421.376 -0.454792 417.24 -0.444854 413.105C-0.433448 407.85 -0.453443 402.596 -0.482772 397.341C-0.501297 393.265 -0.500805 389.19 -0.495132 385.115C-0.49498 383.18 -0.5009 381.246 -0.513427 379.312C-0.670808 350.995 7.61402 327.452 27.2903 306.625C41.6975 292.674 63.3084 280.09 83.9387 279.985C84.9493 280.025 85.9599 280.065 87.0012 280.105C102.753 280.795 102.753 280.795 116.001 273.5C117.575 271.901 119.086 270.272 120.563 268.584C122.86 266.054 125.419 263.976 128.064 261.813C128.9 261.097 129.737 260.382 130.599 259.645C133.167 257.887 134.917 257.265 138.001 257C138.661 257.33 139.321 257.66 140.001 258C140.415 252.725 140.41 248.134 139.001 243C136.101 240.495 133.265 239.292 129.751 237.777C115.259 231.42 104.357 216.49 97.6262 202.688C97.3163 202.061 97.0065 201.435 96.6872 200.79C90.5403 187.317 89.4218 173.918 89.6106 159.375C89.618 157.649 89.6237 155.923 89.6277 154.197C89.6428 149.712 89.6819 145.228 89.7265 140.744C89.7679 136.144 89.7858 131.545 89.8059 126.945C89.8484 117.963 89.9165 108.982 90.0012 100C88.8906 99.85 87.78 99.7 86.6357 99.5454C77.9728 98.2455 70.7305 92.8812 65.4582 85.9805C58.6024 75.4655 58.3428 62.7875 60.404 50.6226C63.5156 37.101 70.368 26.8156 80.0012 17C80.6161 16.3607 81.231 15.7213 81.8645 15.0625C92.9483 4.42965 108.422 -0.479111 123.515 -0.404013Z" fill="#D4F6F4"/>
<path d="M318.849 221.612C319.633 221.607 320.417 221.602 321.225 221.596C323.849 221.582 326.472 221.589 329.096 221.596C330.979 221.59 332.862 221.583 334.744 221.575C339.856 221.557 344.967 221.558 350.079 221.564C354.346 221.567 358.613 221.561 362.88 221.555C372.946 221.541 383.012 221.543 393.078 221.554C403.463 221.565 413.849 221.551 424.234 221.525C433.151 221.502 442.067 221.496 450.984 221.502C456.309 221.505 461.634 221.503 466.96 221.485C471.968 221.47 476.975 221.474 481.983 221.493C483.82 221.496 485.658 221.493 487.495 221.483C490.004 221.47 492.513 221.481 495.022 221.499C495.748 221.489 496.474 221.48 497.223 221.47C502.275 221.543 505.161 222.744 508.999 226C513.105 230.591 512.42 236.06 512.387 241.887C512.395 243.553 512.395 243.553 512.403 245.253C512.417 248.983 512.41 252.712 512.403 256.441C512.409 259.112 512.416 261.783 512.424 264.454C512.441 270.959 512.442 277.465 512.437 283.971C512.433 289.259 512.434 294.547 512.439 299.834C512.44 300.587 512.441 301.339 512.442 302.115C512.443 303.643 512.445 305.172 512.446 306.701C512.46 321.037 512.455 335.374 512.443 349.71C512.433 362.827 512.446 375.943 512.47 389.059C512.494 402.527 512.504 415.994 512.497 429.462C512.494 437.023 512.496 444.584 512.514 452.145C512.528 458.582 512.529 465.018 512.512 471.455C512.503 474.739 512.503 478.022 512.516 481.306C512.529 484.866 512.518 488.426 512.5 491.986C512.515 493.542 512.515 493.542 512.529 495.13C512.47 500.897 512.059 504.552 507.999 509C503.966 512.303 500.173 512.429 495.149 512.388C494.365 512.393 493.581 512.399 492.773 512.404C490.149 512.418 487.526 512.411 484.902 512.404C483.019 512.41 481.136 512.417 479.254 512.425C474.142 512.443 469.031 512.442 463.919 512.436C459.652 512.433 455.385 512.439 451.118 512.445C441.052 512.459 430.986 512.457 420.92 512.446C410.535 512.435 400.149 512.449 389.764 512.475C380.847 512.498 371.931 512.504 363.015 512.498C357.689 512.495 352.364 512.497 347.038 512.515C342.03 512.53 337.023 512.526 332.015 512.507C330.178 512.504 328.34 512.507 326.503 512.517C323.994 512.53 321.485 512.519 318.976 512.501C318.25 512.511 317.524 512.52 316.775 512.53C311.723 512.457 308.837 511.256 304.999 508C300.893 503.409 301.578 497.94 301.611 492.113C301.606 491.002 301.601 489.891 301.595 488.747C301.581 485.018 301.588 481.288 301.595 477.559C301.589 474.888 301.582 472.217 301.574 469.547C301.557 463.041 301.556 456.535 301.561 450.029C301.565 444.741 301.564 439.454 301.559 434.166C301.558 433.413 301.557 432.661 301.556 431.885C301.555 430.357 301.553 428.828 301.552 427.3C301.538 412.963 301.544 398.626 301.555 384.29C301.565 371.174 301.552 358.057 301.528 344.941C301.504 331.474 301.494 318.006 301.501 304.538C301.504 296.977 301.502 289.416 301.484 281.855C301.47 275.418 301.469 268.982 301.487 262.545C301.495 259.261 301.495 255.978 301.482 252.694C301.469 249.134 301.48 245.574 301.498 242.014C301.488 240.977 301.479 239.939 301.469 238.87C301.528 233.103 301.939 229.448 305.999 225C310.032 221.697 313.825 221.571 318.849 221.612Z" fill="#56BAB4"/>
<path d="M123.514 -0.404013C124.501 -0.410876 125.488 -0.417739 126.504 -0.424811C129.731 -0.442946 132.957 -0.43926 136.184 -0.433554C138.449 -0.438122 140.713 -0.443429 142.978 -0.449438C147.711 -0.458343 152.444 -0.455976 157.177 -0.446005C163.217 -0.434516 169.256 -0.45474 175.296 -0.483922C179.969 -0.502342 184.642 -0.50198 189.315 -0.496285C191.541 -0.496132 193.767 -0.502116 195.992 -0.514576C218.262 -0.621704 218.262 -0.621704 228 4.00004C228.819 4.37814 229.637 4.75625 230.48 5.14581C245.052 12.2224 253.666 25.1331 259.049 39.873C260.596 45.4157 260.295 51.1323 260.291 56.8416C260.297 58.1239 260.304 59.4062 260.311 60.7273C260.329 64.232 260.333 67.7366 260.335 71.2414C260.336 73.4388 260.34 75.6362 260.346 77.8335C260.364 85.5224 260.372 93.2113 260.371 100.9C260.37 108.028 260.391 115.156 260.422 122.285C260.449 128.433 260.459 134.581 260.458 140.729C260.457 144.388 260.463 148.047 260.484 151.706C260.583 169.756 260.458 186.372 252.25 202.875C251.909 203.581 251.567 204.286 251.215 205.013C248.212 211.002 244.478 216.02 240 221C239.545 221.596 239.09 222.191 238.621 222.805C235.503 226.844 231.752 229.989 227.75 233.125C227.188 233.566 226.626 234.006 226.047 234.46C222.57 237.085 219.386 238.72 215.25 240.188C212.751 241.116 212.751 241.116 211 243C210.24 247.06 210.181 250.47 210.356 254.602C210.238 255.723 210.121 256.845 210 258C209.243 258.425 208.485 258.849 207.705 259.287C204.215 261.498 203.03 264.176 201.375 267.813C200.683 269.262 199.991 270.711 199.297 272.16C198.929 272.94 198.561 273.72 198.182 274.524C196.062 278.965 193.836 283.353 191.625 287.75C190.694 289.612 189.763 291.474 188.832 293.336C184.555 301.891 180.278 310.445 176 319C175.34 319 174.68 319 174 319C173.472 317.92 173.472 317.92 172.933 316.818C169.608 310.028 166.27 303.245 162.916 296.469C161.192 292.985 159.474 289.499 157.768 286.007C156.12 282.635 154.459 279.271 152.788 275.911C152.153 274.629 151.524 273.345 150.9 272.059C150.023 270.254 149.127 268.459 148.23 266.665C147.726 265.641 147.222 264.617 146.702 263.563C144.787 260.678 142.942 259.722 140 258C139.75 254.672 139.75 254.672 140 250.75C139.996 247.908 139.664 245.834 139 243C136.106 240.494 133.26 239.29 129.75 237.777C115.258 231.42 104.356 216.49 97.6252 202.688C97.3153 202.061 97.0055 201.435 96.6862 200.79C90.5392 187.317 89.4208 173.918 89.6095 159.375C89.617 157.649 89.6227 155.923 89.6267 154.197C89.6418 149.712 89.6809 145.228 89.7255 140.744C89.7669 136.144 89.7848 131.545 89.8049 126.945C89.8474 117.963 89.9154 108.982 90.0002 100C88.8896 99.85 87.779 99.7 86.6347 99.5454C77.9718 98.2455 70.7295 92.8812 65.4572 85.9805C58.6014 75.4655 58.3418 62.7875 60.403 50.6226C63.5146 37.101 70.367 26.8156 80.0002 17C80.6151 16.3607 81.2299 15.7213 81.8635 15.0625C92.9473 4.42965 108.421 -0.479111 123.514 -0.404013Z" fill="#FECDBE"/>
<path d="M407 222C419.413 221.91 431.826 221.836 444.24 221.793C450.004 221.772 455.768 221.744 461.532 221.698C467.095 221.655 472.658 221.631 478.221 221.62C480.343 221.613 482.465 221.599 484.587 221.577C487.56 221.548 490.533 221.544 493.506 221.546C494.82 221.524 494.82 221.524 496.161 221.502C501.577 221.539 504.779 222.284 509 226C513 230.792 512.422 235.958 512.388 241.887C512.393 242.998 512.398 244.109 512.404 245.253C512.418 248.983 512.411 252.712 512.404 256.441C512.41 259.112 512.417 261.783 512.425 264.453C512.442 270.959 512.443 277.465 512.438 283.971C512.434 289.259 512.435 294.546 512.44 299.834C512.441 300.587 512.442 301.339 512.443 302.115C512.444 303.643 512.446 305.172 512.447 306.701C512.461 321.037 512.456 335.374 512.444 349.71C512.434 362.826 512.447 375.943 512.471 389.059C512.495 402.527 512.505 415.994 512.498 429.462C512.495 437.023 512.497 444.584 512.515 452.145C512.529 458.582 512.53 465.018 512.513 471.455C512.504 474.739 512.504 478.022 512.517 481.306C512.53 484.866 512.519 488.426 512.501 491.986C512.516 493.542 512.516 493.542 512.53 495.13C512.469 501.078 511.938 504.456 508 509C503.602 512.768 499.13 512.408 493.62 512.341C492.683 512.341 491.746 512.341 490.78 512.342C487.691 512.34 484.601 512.316 481.512 512.293C479.367 512.287 477.221 512.283 475.076 512.28C469.436 512.269 463.795 512.239 458.155 512.206C452.397 512.175 446.639 512.162 440.881 512.146C429.587 512.114 418.294 512.062 407 512C407 502.1 407 492.2 407 482C411.95 482 416.9 482 422 482C422 472.1 422 462.2 422 452C417.05 452 412.1 452 407 452C407 442.1 407 432.2 407 422C411.95 422 416.9 422 422 422C422 412.1 422 402.2 422 392C417.05 392 412.1 392 407 392C407 382.1 407 372.2 407 362C411.95 362 416.9 362 422 362C422 352.1 422 342.2 422 332C417.05 332 412.1 332 407 332C407 322.1 407 312.2 407 302C431.75 302 456.5 302 482 302C482 285.5 482 269 482 252C457.25 252 432.5 252 407 252C407 242.1 407 232.2 407 222Z" fill="#199F97"/>
<path d="M242 280C265.416 279.327 279.921 281.341 302 291C302 346.77 302 402.54 302 460C260.09 460 218.18 460 175 460C175 413.8 175 367.6 175 320C182.865 326.742 182.865 326.742 185.613 329.332C186.216 329.899 186.82 330.465 187.441 331.049C188.059 331.631 188.676 332.213 189.312 332.813C198.058 341.014 198.058 341.014 207 349C207.695 349.632 208.39 350.263 209.105 350.914C212.44 353.739 214.766 355.461 219.25 355.188C223.723 353.771 224.449 352.864 227 349C228.501 345.737 229.737 342.392 230.969 339.02C231.331 338.052 231.693 337.083 232.066 336.086C233.22 332.998 234.36 329.906 235.5 326.813C236.643 323.738 237.788 320.665 238.934 317.592C239.644 315.684 240.352 313.776 241.057 311.866C243.015 306.576 245.053 301.333 247.203 296.118C248.347 293.078 248.696 291.202 248 288C247.035 286.573 246.016 285.182 244.961 283.82C244.134 282.745 244.134 282.745 243.291 281.649C242.865 281.105 242.439 280.561 242 280Z" fill="#6AD9D2"/>
<path d="M123.514 -0.404013C124.501 -0.410876 125.488 -0.417739 126.504 -0.424811C129.731 -0.442946 132.957 -0.43926 136.184 -0.433554C138.449 -0.438122 140.713 -0.443429 142.978 -0.449438C147.711 -0.458343 152.444 -0.455976 157.177 -0.446005C163.217 -0.434516 169.256 -0.45474 175.296 -0.483922C179.969 -0.502342 184.642 -0.50198 189.315 -0.496285C191.541 -0.496132 193.767 -0.502116 195.992 -0.514576C218.262 -0.621704 218.262 -0.621704 228 4.00004C228.819 4.37814 229.637 4.75625 230.48 5.14581C245.069 12.2307 253.633 25.1331 259.055 39.8672C260.613 45.4381 260.245 51.1982 260.196 56.9336C260.193 58.1667 260.19 59.3998 260.187 60.6702C260.176 64.5928 260.151 68.5151 260.125 72.4375C260.114 75.1036 260.106 77.7696 260.098 80.4356C260.076 86.9571 260.042 93.4786 260 100C258.419 100.023 256.837 100.039 255.256 100.053C254.375 100.063 253.494 100.073 252.587 100.083C248.857 99.9635 245.585 99.1097 242.063 97.9375C241.035 97.6025 241.035 97.6025 239.986 97.2608C224.809 92.0324 213.776 81.1147 205 68C204.611 68.6781 204.222 69.3561 203.821 70.0547C194.748 85.1484 183.014 94.5126 165.991 99.1839C158.87 100.805 151.587 100.574 144.324 100.531C142.662 100.534 141 100.538 139.337 100.543C135.881 100.549 132.424 100.54 128.968 100.522C124.559 100.499 120.151 100.512 115.742 100.536C112.319 100.55 108.897 100.546 105.475 100.535C103.849 100.533 102.224 100.536 100.599 100.545C84.4564 100.618 84.4564 100.618 77.0002 96C76.2023 95.5308 75.4043 95.0616 74.5822 94.5782C67.3421 89.1441 62.3906 82.8654 60.0002 74C59.5491 70.6555 59.4759 67.3721 59.5002 64C59.5052 63.0838 59.5102 62.1675 59.5153 61.2234C59.9657 43.3776 67.648 29.5862 80.0002 17C80.6151 16.3607 81.23 15.7213 81.8635 15.0625C92.9473 4.42965 108.421 -0.479111 123.514 -0.404013Z" fill="#C47D4E"/>
<path d="M175 96C175 146.82 175 197.64 175 250C150.776 250 129.272 240.946 112 224C105.958 217.652 101.453 210.547 97.6247 202.688C97.3149 202.061 97.0051 201.435 96.686 200.791C90.5383 187.317 89.4203 173.918 89.6091 159.375C89.6166 157.649 89.6222 155.923 89.6262 154.197C89.6413 149.712 89.6804 145.228 89.725 140.744C89.7664 136.144 89.7843 131.545 89.8044 126.945C89.8469 117.963 89.915 108.982 89.9997 100C91.3194 99.9912 91.3194 99.9912 92.6658 99.9822C100.992 99.9241 109.318 99.8519 117.644 99.7643C121.924 99.7197 126.204 99.6804 130.484 99.6536C134.621 99.6274 138.757 99.5869 142.894 99.5368C144.465 99.5202 146.037 99.5087 147.608 99.5024C155.409 99.4681 162.683 99.3767 170.107 96.6383C172 96 172 96 175 96Z" fill="#FEDDCD"/>
<path d="M332 252C381.5 252 431 252 482 252C482 268.5 482 285 482 302C432.5 302 383 302 332 302C332 285.5 332 269 332 252Z" fill="#6AD9D2"/>
<path d="M175 0C228.02 0 228.02 0 244.711 15.6836C255.007 26.1028 260.229 38.766 260.227 53.3312C260.216 54.52 260.206 55.7088 260.195 56.9336C260.192 58.1667 260.19 59.3997 260.187 60.6702C260.176 64.5927 260.15 68.515 260.125 72.4375C260.114 75.1035 260.106 77.7695 260.098 80.4355C260.076 86.9571 260.042 93.4785 260 100C258.419 100.023 256.837 100.039 255.256 100.053C254.375 100.063 253.494 100.073 252.587 100.083C248.857 99.9634 245.585 99.1097 242.062 97.9375C241.377 97.7142 240.692 97.4908 239.986 97.2607C224.809 92.0323 213.776 81.1146 205 68C204.611 68.678 204.221 69.3561 203.82 70.0547C197.46 80.6358 189.459 89.8278 178 95C177.01 95 176.02 95 175 95C175 63.65 175 32.3 175 0Z" fill="#9B5E34"/>
<path d="M459.43 109.508C469.499 116.797 476.145 126.961 479 139C480.492 153.387 479.45 166.939 470.688 178.937C464.192 186.501 456.936 192.812 447 195C432.694 195.857 422.611 194.847 411.324 185.262C401.563 175.763 396.961 163.542 396.688 150.062C396.662 138.444 399.726 128.147 407 119C407.615 118.169 408.23 117.337 408.863 116.48C421.361 101.973 443.52 99.6348 459.43 109.508ZM427.313 135.812C423.124 141.586 422.243 147.023 423 154C424.6 160.976 428.031 165.02 434 169C437.895 169.785 441.494 169.811 445.039 167.902C449.05 164.702 451.974 161.113 453 156C453.785 148.333 453.842 141.32 449 135C445.588 131.831 443.354 130.102 438.688 129.75C433.211 130.121 431.053 131.898 427.313 135.812Z" fill="#56BAB4"/>
<path d="M368.771 2.61722C381.581 10.5594 389.011 20.7371 392.583 35.3867C394.798 49.2349 392.274 63.4818 384.001 75C377.694 82.7736 369.094 89.2422 359.001 91C346.304 91.921 336.063 90.3528 326.068 81.9844C317.432 73.6919 311.21 63.279 310.665 51.1446C310.388 34.9082 312.784 23.086 324.032 10.7774C335.477 -0.314451 353.973 -4.66702 368.771 2.61722ZM340.001 32C336.097 38.1711 336.208 44.8598 337.001 52C338.594 57.4286 341.239 60.8672 346.001 64C349.066 65.5322 351.618 65.2294 355.001 65C360.387 62.6917 363.862 58.4407 366.314 53.1875C367.852 46.0572 367.58 39.4794 364.001 33C359.763 28.1262 359.763 28.1262 353.986 25.5938C347.529 25.3229 344.107 27.0148 340.001 32Z" fill="#56BAB4"/>
<path d="M433 7.00004C436.606 8.38105 437.691 9.53141 439.813 12.75C442.451 19.9689 440.415 25.4187 437.555 32.1211C437.195 32.992 436.835 33.8629 436.463 34.7602C435.321 37.5121 434.162 40.2563 433 43C432.283 44.716 431.565 46.4323 430.849 48.149C429.015 52.5313 427.164 56.9062 425.307 61.2789C423.225 66.1827 421.15 71.0896 419.075 75.9961C418.65 76.9985 418.226 78.0008 417.789 79.0335C413.852 88.3399 409.943 97.6578 406.044 106.98C404.941 109.618 403.836 112.256 402.731 114.894C399.236 123.239 395.753 131.589 392.297 139.951C390.659 143.911 389.016 147.87 387.373 151.828C386.592 153.711 385.814 155.596 385.039 157.482C383.964 160.099 382.879 162.712 381.793 165.324C381.483 166.087 381.172 166.85 380.852 167.635C378.368 173.571 375.621 179.733 370.688 184C367.057 185.351 363.788 185.668 360 185C355.637 182.777 352.905 180.55 351 176C350.43 169.816 352.072 165.441 354.446 159.879C354.806 159.008 355.166 158.137 355.537 157.24C356.679 154.488 357.839 151.744 359 149C359.718 147.284 360.435 145.568 361.152 143.851C362.986 139.469 364.837 135.094 366.694 130.721C368.776 125.817 370.85 120.91 372.926 116.004C373.35 115.002 373.775 113.999 374.212 112.967C378.521 102.78 382.795 92.5791 387.063 82.375C387.797 80.6202 388.531 78.8653 389.266 77.1104C392.767 68.7414 396.264 60.3706 399.755 51.9977C401.415 48.0189 403.076 44.0407 404.738 40.0626C405.53 38.1645 406.322 36.266 407.112 34.3672C408.207 31.7375 409.305 29.1089 410.403 26.4805C410.724 25.7075 411.045 24.9346 411.376 24.1382C416.044 12.9856 419.592 4.98204 433 7.00004Z" fill="#56BAB4"/>
<path d="M145.001 260C147.133 262.551 148.449 265.356 149.837 268.363C150.25 269.201 150.663 270.039 151.088 270.902C151.965 272.684 152.83 274.471 153.686 276.263C155.411 279.854 157.212 283.404 159.013 286.957C161.238 291.357 163.429 295.773 165.626 300.188C166.543 302.028 167.461 303.869 168.38 305.709C170.589 310.138 172.795 314.569 175.001 319C168.787 326.378 168.787 326.378 165.337 329.578C164.695 330.177 164.054 330.775 163.393 331.391C162.727 332.005 162.061 332.618 161.376 333.25C160.678 333.898 159.98 334.545 159.261 335.212C157.848 336.522 156.433 337.831 155.016 339.137C153.17 340.843 151.334 342.558 149.501 344.277C148.459 345.248 147.418 346.218 146.376 347.188C145.476 348.027 144.576 348.866 143.649 349.73C136.706 355.68 136.706 355.68 132.001 356.563C128.033 355.819 125.651 353.931 123.001 351C121.454 348.319 120.419 345.524 119.38 342.613C119.072 341.797 118.764 340.982 118.447 340.141C117.469 337.537 116.515 334.926 115.563 332.313C114.929 330.608 114.293 328.904 113.655 327.201C112.704 324.66 111.757 322.119 110.82 319.572C109.261 315.332 107.661 311.116 105.969 306.927C105.643 306.116 105.317 305.304 104.982 304.468C104.365 302.94 103.74 301.415 103.105 299.894C101.451 295.784 100.533 292.512 101.001 288C104.839 281.082 111.045 276.035 117.196 271.238C120.017 268.987 122.623 266.597 125.251 264.125C131.762 258.271 136.834 254.975 145.001 260Z" fill="#FEF4F4"/>
<path d="M332 252C356.75 252 381.5 252 407 252C407 268.5 407 285 407 302C382.25 302 357.5 302 332 302C332 285.5 332 269 332 252Z" fill="#D4F6F4"/>
<path d="M452 392C461.9 392 471.8 392 482 392C482 421.7 482 451.4 482 482C472.1 482 462.2 482 452 482C452 452.3 452 422.6 452 392Z" fill="#E9E9E9"/>
<path d="M395 63C395.33 63 395.66 63 396 63C398.573 100.77 400.63 133.351 381.019 167.189C378.917 170.927 377.12 174.819 375.279 178.691C373.402 182.08 371.583 183.567 368 185C363.55 185.822 360.741 185.377 356.688 183.312C352.939 180.086 351.175 177.895 350.715 172.902C351.07 168.043 352.544 164.333 354.442 159.887C354.802 159.016 355.162 158.146 355.533 157.249C356.676 154.494 357.837 151.747 359 149C359.723 147.273 360.446 145.546 361.168 143.819C363.017 139.405 364.884 134.999 366.755 130.595C373.81 113.991 380.788 97.3565 387.688 80.6875C388.061 79.7848 388.435 78.8821 388.82 77.9521C390.882 72.9689 392.942 67.9849 395 63Z" fill="#6AD9D2"/>
<path d="M210 243C210.135 245.439 210.234 247.871 210.312 250.312C210.354 251.003 210.396 251.693 210.439 252.404C210.488 254.426 210.488 254.426 210 258C209.241 258.427 208.481 258.854 207.698 259.293C204.194 261.51 203 264.229 201.336 267.879C200.643 269.328 199.95 270.778 199.257 272.227C198.893 273 198.529 273.773 198.154 274.57C196.13 278.833 194.016 283.052 191.914 287.277C191.038 289.044 190.161 290.81 189.285 292.576C188.848 293.456 188.411 294.336 187.961 295.242C187.058 297.065 186.156 298.889 185.256 300.714C183.939 303.383 182.615 306.05 181.289 308.715C180.887 309.534 180.485 310.354 180.071 311.198C179.696 311.948 179.322 312.697 178.936 313.469C178.609 314.129 178.283 314.789 177.946 315.469C177 317 177 317 175 318C175 295.56 175 273.12 175 250C183.415 249.01 183.415 249.01 192 248C196.898 246.727 204.764 243 210 243Z" fill="#FEBEAA"/>
<path d="M392 452C401.9 452 411.8 452 422 452C422 461.9 422 471.8 422 482C412.1 482 402.2 482 392 482C392 472.1 392 462.2 392 452Z" fill="#E1EBF0"/>
<path d="M332 452C341.9 452 351.8 452 362 452C362 461.9 362 471.8 362 482C352.1 482 342.2 482 332 482C332 472.1 332 462.2 332 452Z" fill="#FFF5F5"/>
<path d="M392 392C401.9 392 411.8 392 422 392C422 401.9 422 411.8 422 422C412.1 422 402.2 422 392 422C392 412.1 392 402.2 392 392Z" fill="#E1EBF0"/>
<path d="M332 392C341.9 392 351.8 392 362 392C362 401.9 362 411.8 362 422C352.1 422 342.2 422 332 422C332 412.1 332 402.2 332 392Z" fill="#FFF5F5"/>
<path d="M452 332C461.9 332 471.8 332 482 332C482 341.9 482 351.8 482 362C472.1 362 462.2 362 452 362C452 352.1 452 342.2 452 332Z" fill="#E1EBF0"/>
<path d="M392 332C401.9 332 411.8 332 422 332C422 341.9 422 351.8 422 362C412.1 362 402.2 362 392 362C392 352.1 392 342.2 392 332Z" fill="#E1EBF0"/>
<path d="M332 332C341.9 332 351.8 332 362 332C362 341.9 362 351.8 362 362C352.1 362 342.2 362 332 362C332 352.1 332 342.2 332 332Z" fill="#FFF5F5"/>
<path d="M392 452C396.95 452 401.9 452 407 452C407 461.9 407 471.8 407 482C402.05 482 397.1 482 392 482C392 472.1 392 462.2 392 452Z" fill="#FFF5F5"/>
<path d="M392 392C396.95 392 401.9 392 407 392C407 401.9 407 411.8 407 422C402.05 422 397.1 422 392 422C392 412.1 392 402.2 392 392Z" fill="#FFF5F5"/>
<path d="M392 332C396.95 332 401.9 332 407 332C407 341.9 407 351.8 407 362C402.05 362 397.1 362 392 362C392 352.1 392 342.2 392 332Z" fill="#FFF5F5"/>
</g>
<defs>
<clipPath id="clip0_248_119">
<rect width="512" height="512" fill="white"/>
</clipPath>
</defs>
</svg>
