<svg width="512" height="512" viewBox="0 0 512 512" fill="none" xmlns="http://www.w3.org/2000/svg">
<g clip-path="url(#clip0_248_59)">
<path d="M82.3234 -0.267408C83.8789 -0.271149 85.4345 -0.275752 86.99 -0.281139C91.2486 -0.293336 95.5071 -0.293113 99.7657 -0.29075C104.365 -0.290341 108.964 -0.30139 113.564 -0.310865C122.57 -0.327459 131.576 -0.332974 140.581 -0.33409C147.906 -0.335042 155.23 -0.339157 162.554 -0.345491C183.337 -0.363101 204.121 -0.372331 224.904 -0.370831C226.584 -0.370711 226.584 -0.370711 228.298 -0.370588C229.979 -0.370466 229.979 -0.370466 231.695 -0.370341C249.855 -0.369528 268.014 -0.388656 286.174 -0.416865C304.837 -0.445627 323.501 -0.459404 342.165 -0.457678C352.636 -0.457015 363.107 -0.46246 373.578 -0.484034C382.495 -0.502289 391.413 -0.506557 400.33 -0.493015C404.875 -0.486507 409.42 -0.486289 413.964 -0.503721C418.135 -0.519554 422.306 -0.516486 426.477 -0.499153C427.975 -0.496105 429.474 -0.49963 430.972 -0.510873C454.197 -0.673387 473.727 7.43358 490.53 23.4063C506.328 40.0705 512.317 59.8742 512.266 82.325C512.27 83.8805 512.274 85.4361 512.28 86.9916C512.292 91.2502 512.292 95.5087 512.289 99.7673C512.289 104.367 512.3 108.966 512.309 113.565C512.326 122.571 512.331 131.577 512.333 140.583C512.334 147.907 512.338 155.231 512.344 162.556C512.362 183.339 512.371 204.122 512.369 224.906C512.369 226.585 512.369 226.585 512.369 228.299C512.369 229.42 512.369 230.541 512.369 231.697C512.368 249.856 512.387 268.016 512.415 286.175C512.444 304.839 512.458 323.503 512.456 342.166C512.455 352.637 512.461 363.108 512.482 373.579C512.501 382.497 512.505 391.414 512.491 400.332C512.485 404.877 512.485 409.421 512.502 413.966C512.518 418.137 512.515 422.307 512.498 426.478C512.495 427.977 512.498 429.475 512.509 430.974C512.672 454.198 504.565 473.729 488.592 490.531C471.928 506.33 452.124 512.319 429.673 512.267C428.118 512.271 426.562 512.276 425.007 512.281C420.748 512.293 416.49 512.293 412.231 512.291C407.632 512.29 403.032 512.301 398.433 512.311C389.427 512.328 380.421 512.333 371.415 512.334C364.091 512.335 356.767 512.339 349.443 512.346C328.659 512.363 307.876 512.372 287.093 512.371C285.973 512.371 284.853 512.371 283.699 512.371C282.578 512.371 281.457 512.37 280.302 512.37C262.142 512.37 243.983 512.389 225.823 512.417C207.16 512.446 188.496 512.459 169.832 512.458C159.361 512.457 148.89 512.462 138.419 512.484C129.502 512.502 120.584 512.507 111.667 512.493C107.122 512.487 102.577 512.486 98.0325 512.504C93.8616 512.52 89.6912 512.517 85.5204 512.499C84.0217 512.496 82.523 512.5 81.0244 512.511C57.8002 512.673 38.2696 504.566 21.4672 488.594C5.66863 471.93 -0.320289 452.126 -0.268996 429.675C-0.272737 428.12 -0.277342 426.564 -0.282729 425.008C-0.294926 420.75 -0.294697 416.491 -0.292334 412.233C-0.291925 407.633 -0.302977 403.034 -0.312453 398.435C-0.329047 389.429 -0.334561 380.423 -0.335677 371.417C-0.336628 364.093 -0.340748 356.769 -0.347083 349.444C-0.364692 328.661 -0.373921 307.878 -0.37242 287.094C-0.37234 285.974 -0.372258 284.855 -0.372176 283.701C-0.372094 282.58 -0.372016 281.459 -0.371932 280.303C-0.371119 262.144 -0.390247 243.984 -0.418456 225.825C-0.447218 207.161 -0.460992 188.498 -0.459266 169.834C-0.458603 159.363 -0.464044 148.892 -0.485617 138.421C-0.503873 129.503 -0.508147 120.586 -0.494605 111.668C-0.488097 107.123 -0.487877 102.579 -0.505309 98.0341C-0.521141 93.8632 -0.518072 89.6928 -0.500739 85.5219C-0.497691 84.0233 -0.501215 82.5246 -0.512458 81.026C-0.674971 57.8018 7.43199 38.2712 23.4047 21.4688C40.0689 5.67022 59.8726 -0.318702 82.3234 -0.267408Z" fill="#A6E5E2"/>
<path d="M0.000858903 129C84.4809 129 168.961 129 256.001 129C256.001 257.435 256.001 257.435 236.278 294.668C233.196 300.506 230.262 306.414 227.331 312.328C225.631 315.744 223.917 319.153 222.204 322.562C221.17 324.622 220.137 326.682 219.103 328.742C218.412 330.117 217.721 331.492 217.029 332.867C216.051 334.813 215.074 336.76 214.099 338.707C213.526 339.846 212.954 340.986 212.364 342.159C209.942 347.206 209.32 351.468 210.001 357C212.192 361.383 214.403 364.201 219.001 366C224.385 366.731 228.891 366.856 233.477 363.541C236.881 360.099 238.767 355.551 240.876 351.25C241.392 350.229 241.908 349.208 242.439 348.156C243.974 345.111 245.489 342.056 247.001 339C247.851 337.308 248.702 335.616 249.556 333.926C251.387 330.292 253.2 326.649 255.001 323C255.331 323 255.661 323 256.001 323C256.001 385.37 256.001 447.74 256.001 512C209.718 512.124 209.718 512.124 162.501 512.25C152.779 512.286 143.058 512.323 133.042 512.36C121.117 512.378 121.117 512.378 115.524 512.382C111.641 512.385 107.757 512.4 103.874 512.422C98.903 512.45 93.9324 512.458 88.9615 512.452C87.148 512.453 85.3344 512.461 83.5209 512.477C59.2788 512.676 39.214 505.462 21.4696 488.594C6.42681 472.727 -0.343848 453.444 -0.23965 431.921C-0.241359 430.623 -0.243068 429.325 -0.244828 427.988C-0.249279 424.405 -0.241331 420.822 -0.231272 417.24C-0.222606 413.369 -0.22556 409.498 -0.227077 405.627C-0.228124 398.927 -0.221868 392.227 -0.210601 385.527C-0.194322 375.839 -0.189136 366.152 -0.186625 356.465C-0.182252 340.747 -0.168953 325.029 -0.15002 309.311C-0.131652 294.046 -0.117523 278.781 -0.109004 263.515C-0.108468 262.564 -0.107932 261.613 -0.10738 260.633C-0.103221 253.194 -0.0993073 245.756 -0.095471 238.317C-0.076616 201.878 -0.0363765 165.439 0.000858903 129Z" fill="#D4F7F4"/>
<path d="M82.325 -0.267408C83.8805 -0.271149 85.436 -0.275752 86.9916 -0.281139C91.2502 -0.293336 95.5087 -0.293113 99.7673 -0.29075C104.367 -0.290341 108.966 -0.30139 113.565 -0.310865C122.571 -0.327459 131.577 -0.332974 140.583 -0.33409C147.907 -0.335042 155.231 -0.339157 162.556 -0.345491C183.339 -0.363101 204.122 -0.372331 224.906 -0.370831C226.585 -0.370711 226.585 -0.370711 228.299 -0.370588C229.981 -0.370466 229.981 -0.370466 231.697 -0.370341C249.856 -0.369528 268.016 -0.388656 286.175 -0.416865C304.839 -0.445627 323.502 -0.459404 342.166 -0.457678C352.637 -0.457015 363.108 -0.46246 373.579 -0.484034C382.497 -0.502289 391.414 -0.506557 400.332 -0.493015C404.877 -0.486507 409.421 -0.486289 413.966 -0.503721C418.137 -0.519554 422.307 -0.516486 426.478 -0.499153C427.977 -0.496105 429.475 -0.49963 430.974 -0.510873C454.198 -0.673387 473.729 7.43358 490.531 23.4063C518.761 53.1828 512 88.6368 512 129C343.04 129 174.08 129 0 129C0 46.0909 0 46.0909 23.4062 21.4688C40.0705 5.67022 59.8742 -0.318702 82.325 -0.267408Z" fill="#6AD9D2"/>
<path d="M256 -2.44975e-05C302.752 -0.161237 302.752 -0.161237 322.402 -0.195337C335.949 -0.219035 349.496 -0.246834 363.043 -0.301782C372.911 -0.341789 382.779 -0.36749 392.647 -0.376378C397.867 -0.38157 403.087 -0.393676 408.306 -0.422945C413.231 -0.450333 418.156 -0.458423 423.08 -0.452455C424.877 -0.453545 426.673 -0.461358 428.469 -0.476846C452.716 -0.675469 472.783 6.53414 490.531 23.4062C518.543 52.9527 512 87.9055 512 128C427.52 128 343.04 128 256 128C256 85.76 256 43.52 256 -2.44975e-05Z" fill="#56BAB4"/>
<path d="M358.706 210.116C362.74 212.423 365.64 215.219 368.892 218.503C369.883 219.487 369.883 219.487 370.894 220.49C373.067 222.65 375.229 224.821 377.391 226.992C378.901 228.501 380.413 230.009 381.924 231.517C385.086 234.675 388.243 237.838 391.396 241.004C395.436 245.062 399.49 249.106 403.548 253.146C406.67 256.257 409.784 259.374 412.896 262.494C414.388 263.988 415.882 265.48 417.379 266.97C419.468 269.052 421.548 271.143 423.626 273.238C424.245 273.851 424.864 274.464 425.502 275.096C429.117 278.765 431.67 281.829 432.223 287.141C431.286 299.475 418.698 308.613 410.438 316.863C409.119 318.186 407.8 319.509 406.482 320.832C403.732 323.589 400.978 326.343 398.222 329.094C394.7 332.61 391.189 336.138 387.681 339.669C384.967 342.398 382.246 345.12 379.522 347.84C378.225 349.138 376.93 350.438 375.638 351.74C373.83 353.561 372.012 355.372 370.191 357.181C369.667 357.713 369.142 358.246 368.601 358.795C364.514 362.825 360.101 366.381 354.34 367.531C348.759 367.459 345.315 366.894 341 363C337.416 359.058 337.612 354.899 337.504 349.816C338.553 343.858 343.074 339.678 347.228 335.545C347.989 334.783 347.989 334.783 348.766 334.006C350.428 332.345 352.097 330.692 353.766 329.039C354.926 327.882 356.086 326.725 357.246 325.567C360.286 322.535 363.332 319.508 366.38 316.483C369.494 313.389 372.602 310.29 375.711 307.191C381.802 301.122 387.899 295.059 394 289C392.418 285.151 389.971 282.742 387.031 279.836C386.275 279.084 386.275 279.084 385.503 278.317C384.411 277.232 383.316 276.149 382.219 275.069C380.483 273.359 378.754 271.642 377.025 269.923C373.356 266.277 369.678 262.638 366 259C361.737 254.784 357.477 250.565 353.225 246.337C351.522 244.647 349.813 242.963 348.104 241.279C347.058 240.241 346.013 239.203 344.969 238.164C344.055 237.261 343.142 236.358 342.201 235.428C337.958 230.747 337.447 226.963 337.547 220.766C338.27 216.355 340.546 213.717 344 211C348.797 208.152 353.625 208.02 358.706 210.116Z" fill="#F03902"/>
<path d="M166.188 210.125C169.54 212.36 172.262 214.331 174 218C174.878 223.128 175.025 227.301 172.291 231.833C169.987 235.018 167.558 237.683 164.772 240.455C164.011 241.217 164.011 241.217 163.234 241.994C161.572 243.655 159.903 245.308 158.234 246.961C157.074 248.118 155.914 249.275 154.754 250.433C151.714 253.465 148.668 256.492 145.62 259.517C142.506 262.611 139.398 265.71 136.289 268.809C130.198 274.878 124.101 280.941 118 287C119.582 290.849 122.029 293.258 124.969 296.164C125.725 296.916 125.725 296.916 126.497 297.683C127.589 298.768 128.684 299.85 129.781 300.931C131.517 302.641 133.246 304.358 134.975 306.077C138.644 309.723 142.322 313.362 146 317C150.263 321.216 154.523 325.435 158.775 329.663C160.478 331.353 162.187 333.037 163.896 334.721C164.942 335.759 165.987 336.797 167.031 337.836C167.945 338.739 168.858 339.642 169.799 340.572C174.109 345.326 174.446 349.033 174.312 355.305C173.866 359.154 172.655 361.206 170 364C165.823 366.983 161.734 367.759 156.684 367.493C146.978 365.709 137.891 353.181 131.137 346.402C129.814 345.081 128.491 343.76 127.168 342.44C124.411 339.685 121.657 336.927 118.906 334.167C115.388 330.637 111.861 327.117 108.331 323.599C105.604 320.879 102.881 318.154 100.16 315.428C98.8613 314.128 97.5612 312.829 96.2596 311.532C94.4412 309.719 92.6294 307.899 90.8191 306.078C90.0203 305.285 90.0203 305.285 89.2054 304.476C84.9545 300.177 80.705 295.722 80.0625 289.5C79.971 288.788 79.8795 288.077 79.7852 287.344C80.3877 280.77 85.0816 276.491 89.5193 272.108C90.1765 271.447 90.8338 270.787 91.511 270.106C93.6758 267.933 95.8512 265.771 98.0273 263.609C99.5386 262.099 101.049 260.587 102.559 259.076C105.721 255.914 108.888 252.757 112.059 249.604C116.124 245.562 120.178 241.509 124.229 237.452C127.345 234.332 130.466 231.217 133.589 228.104C135.086 226.611 136.581 225.117 138.075 223.621C140.163 221.534 142.256 219.453 144.351 217.374C144.968 216.755 145.585 216.136 146.22 215.498C146.794 214.931 147.367 214.365 147.958 213.782C148.451 213.29 148.945 212.798 149.454 212.291C154.523 208.057 160.166 208 166.188 210.125Z" fill="#FE7E02"/>
<path d="M293.002 209C297.84 211.33 300.672 214.161 303.002 219C304.55 227.729 301.009 234.376 297.114 241.974C296.48 243.245 295.848 244.518 295.217 245.791C293.51 249.226 291.778 252.647 290.041 256.067C288.221 259.658 286.423 263.26 284.623 266.861C281.597 272.903 278.556 278.937 275.505 284.967C271.984 291.926 268.482 298.895 264.991 305.87C261.266 313.314 257.528 320.752 253.785 328.188C252.711 330.323 251.639 332.459 250.568 334.596C248.881 337.958 247.185 341.317 245.483 344.672C244.567 346.484 243.658 348.299 242.749 350.115C235.174 364.991 235.174 364.991 229.002 367C224.092 367.697 220.116 367.537 215.627 365.375C212.278 362.345 209.466 359.713 208.674 355.086C208.432 348.207 210.718 343.288 213.814 337.25C214.31 336.248 214.807 335.246 215.318 334.213C219.052 326.722 222.945 319.312 226.872 311.921C230.277 305.484 233.456 298.96 236.564 292.375C239.792 285.538 243.109 278.784 246.689 272.125C252.16 261.94 257.132 251.515 262.118 241.086C265.387 234.26 268.711 227.461 272.181 220.734C272.491 220.115 272.8 219.496 273.118 218.858C277.705 210.114 283.648 207.978 293.002 209Z" fill="#F03901"/>
<path d="M254.999 256C255.329 256 255.659 256 255.999 256C261.559 330.174 261.559 330.174 235.332 362.329C232.521 365.547 230.816 366.742 226.632 367.336C220.893 367.425 217.434 367.012 212.999 363C209.341 358.861 208.536 355.872 208.646 350.553C209.317 345.693 211.594 341.575 213.811 337.25C214.308 336.248 214.804 335.246 215.315 334.213C219.049 326.722 222.942 319.312 226.869 311.921C230.773 304.542 234.363 297.032 237.926 289.483C242.035 280.822 246.467 272.355 250.991 263.906C252.373 261.293 253.692 258.651 254.999 256Z" fill="#FE7E03"/>
<path d="M214.125 50.125C218.063 52.6932 220.871 55.7422 223 60C223.612 65.9112 222.915 69.4119 219.477 74.3008C216.7 77.4962 213.984 78.7181 209.828 79.3086C204.391 79.6097 201.242 78.6357 197 75C193.252 70.7343 192.637 66.8042 192.727 61.2812C193.237 57.0227 195.274 54.3714 198.578 51.7461C203.757 48.3986 208.251 48.0102 214.125 50.125Z" fill="white"/>
<path d="M85.1276 49.9414C89.1691 52.3157 92.349 54.4634 93.9987 59C94.7378 64.6917 94.2764 69.14 90.9987 74C86.2997 78.3465 82.5233 79.3748 76.2799 79.2735C72.0213 78.763 69.37 76.726 66.7448 73.4219C64.0691 69.2826 63.3648 65.9804 63.9987 61C65.8919 55.7409 68.5965 53.2099 72.9987 50C77.2526 48.582 80.9084 48.0757 85.1276 49.9414Z" fill="#FB7C04"/>
<path d="M146.998 49C151.562 51.1342 155.385 53.6054 157.998 58C158.72 62.7453 158.627 67.3927 156.873 71.875C150.91 78.6334 150.91 78.6334 146.819 79.418C141.862 79.5932 138.182 78.8216 133.998 76C129.556 71.0769 128.631 68.0458 128.725 61.5391C129.135 57.7339 130.413 55.7843 132.998 53C137.419 49.4988 141.297 48.0997 146.998 49Z" fill="#FCDE03"/>
<path d="M31 15C31.66 15.33 32.32 15.66 33 16C27.39 21.61 21.78 27.22 16 33C16 28.7819 17.8519 27.6133 20.6875 24.5625C21.5576 23.615 22.4277 22.6676 23.3242 21.6914C25.7622 19.2392 28.2529 17.0937 31 15Z" fill="#6AD9D2"/>
</g>
<defs>
<clipPath id="clip0_248_59">
<rect width="512" height="512" fill="white"/>
</clipPath>
</defs>
</svg>
