<svg width="512" height="512" viewBox="0 0 512 512" fill="none" xmlns="http://www.w3.org/2000/svg">
<g clip-path="url(#clip0_248_42)">
<path d="M42.3595 -0.137053C43.1065 -0.139705 43.8535 -0.142356 44.6231 -0.145089C47.1402 -0.152782 49.6572 -0.153341 52.1743 -0.153939C53.9917 -0.157953 55.809 -0.162391 57.6264 -0.167218C62.6317 -0.17919 67.6371 -0.184833 72.6425 -0.189399C78.0367 -0.195353 83.4309 -0.206963 88.8251 -0.21769C101.859 -0.24222 114.893 -0.256842 127.926 -0.26975C131.608 -0.273461 135.289 -0.277435 138.97 -0.281502C161.828 -0.30674 184.686 -0.328794 207.545 -0.341231C212.84 -0.34416 218.136 -0.347122 223.431 -0.350136C224.747 -0.350882 226.064 -0.351628 227.42 -0.352397C248.737 -0.365048 270.055 -0.398268 291.372 -0.439938C313.257 -0.482366 335.143 -0.505927 357.028 -0.511151C369.316 -0.514564 381.604 -0.526309 393.892 -0.559254C404.358 -0.587268 414.824 -0.598248 425.29 -0.587058C430.629 -0.581875 435.967 -0.584737 441.305 -0.609524C446.198 -0.632052 451.09 -0.631249 455.982 -0.61232C457.747 -0.609525 459.511 -0.615091 461.276 -0.630133C477.054 -0.756354 488.93 2.47041 500.673 13.582C508.067 21.4144 512.118 31.2462 512.138 41.8902C512.14 42.5865 512.143 43.2829 512.146 44.0003C512.154 46.3451 512.154 48.6898 512.155 51.0346C512.159 52.7282 512.163 54.4218 512.168 56.1154C512.18 60.7787 512.186 65.442 512.19 70.1054C512.196 75.1315 512.208 80.1576 512.218 85.1838C512.243 97.3276 512.258 109.471 512.27 121.615C512.274 125.045 512.278 128.476 512.282 131.906C512.307 153.207 512.329 174.508 512.342 195.809C512.345 200.744 512.348 205.678 512.351 210.613C512.352 211.839 512.352 213.066 512.353 214.33C512.366 234.192 512.399 254.055 512.441 273.917C512.483 294.311 512.507 314.704 512.512 335.098C512.515 346.548 512.527 357.997 512.56 369.447C512.588 379.2 512.599 388.952 512.588 398.704C512.583 403.678 512.585 408.652 512.61 413.625C512.633 418.185 512.632 422.744 512.613 427.303C512.61 428.947 512.616 430.59 512.631 432.234C512.763 447.63 509.146 459.335 498.419 470.672C490.96 477.714 481.22 482.142 471 482.104C469.77 482.103 468.541 482.101 467.274 482.099C465.915 482.092 464.555 482.085 463.195 482.078C461.761 482.075 460.327 482.072 458.893 482.069C455.805 482.064 452.717 482.056 449.629 482.046C444.741 482.033 439.853 482.035 434.965 482.041C433.726 482.042 433.726 482.042 432.463 482.043C429.92 482.046 427.377 482.05 424.835 482.053C414.311 482.065 403.788 482.068 393.265 482.024C385.588 481.993 377.91 481.989 370.233 482.019C366.173 482.033 362.114 482.034 358.054 481.999C354.231 481.968 350.41 481.973 346.587 482.007C345.189 482.013 343.791 482.005 342.394 481.982C335.261 481.874 330.297 482.036 324.815 486.903C323.535 488.26 322.262 489.625 321.001 491C297.341 509.582 268.778 514.157 239.491 511.798C226.634 510.213 214.122 504.955 202.813 498.812C201.925 498.342 201.925 498.342 201.019 497.863C197.717 495.983 195.303 494.382 192.905 491.356C187.688 485.425 183.199 482.811 175.238 482.023C167.301 481.608 159.371 481.704 151.427 481.847C147.383 481.907 143.339 481.9 139.294 481.899C131.638 481.906 123.984 481.964 116.328 482.045C102.634 482.189 88.9385 482.264 75.243 482.292C70.4483 482.304 65.6549 482.345 60.8605 482.409C57.8651 482.445 54.8699 482.46 51.8744 482.471C49.8503 482.484 47.8264 482.523 45.8026 482.563C31.854 482.57 21.3626 477.912 11.3289 468.418C3.93476 460.585 -0.116289 450.754 -0.136247 440.11C-0.138899 439.413 -0.141552 438.717 -0.144284 438C-0.151974 435.655 -0.152536 433.31 -0.153134 430.965C-0.157149 429.272 -0.161587 427.578 -0.166413 425.884C-0.178382 421.221 -0.184029 416.558 -0.188596 411.895C-0.194551 406.868 -0.20616 401.842 -0.216886 396.816C-0.241413 384.672 -0.256037 372.528 -0.268945 360.385C-0.272657 356.954 -0.27663 353.524 -0.280698 350.094C-0.305936 328.793 -0.327987 307.492 -0.340425 286.191C-0.343354 281.256 -0.346318 276.321 -0.349332 271.387C-0.350078 270.16 -0.350822 268.934 -0.35159 267.67C-0.364241 247.808 -0.397461 227.945 -0.439134 208.083C-0.481569 187.689 -0.505123 167.296 -0.510346 146.902C-0.513759 135.452 -0.525495 124.003 -0.55845 112.553C-0.586473 102.8 -0.59744 93.048 -0.586255 83.2955C-0.581074 78.3217 -0.583917 73.3482 -0.60872 68.3745C-0.631267 63.8149 -0.630431 59.256 -0.611516 54.6964C-0.608724 53.053 -0.61427 51.4095 -0.629327 49.7661C-0.761682 34.3702 2.85561 22.6645 13.5828 11.3281C21.5854 3.77336 31.513 -0.155749 42.3595 -0.137053Z" fill="#A6E5E2"/>
<path d="M0.000175059 135C84.4802 135 168.96 135 256 135C256 154.8 256 174.6 256 195C253.36 195.99 250.72 196.98 248 198C243.629 201.603 240.733 206.098 237.688 210.812C237.233 211.505 236.779 212.198 236.311 212.912C235.202 214.605 234.1 216.302 233 218C230.401 215.401 230.244 213.436 229.449 209.855C229.163 208.621 228.876 207.387 228.58 206.115C227.985 203.511 227.405 200.904 226.83 198.295C226.54 197.057 226.249 195.819 225.949 194.543C225.695 193.409 225.441 192.275 225.179 191.106C223.494 186.665 220.792 184.017 216.688 181.688C211.379 180.33 207.589 180.25 202.688 182.562C199.418 185.528 198.285 187.788 197 192C196.773 196.75 197.24 200.811 198.421 205.407C198.732 206.631 199.043 207.856 199.363 209.118C199.706 210.435 200.05 211.753 200.395 213.07C200.747 214.438 201.098 215.806 201.449 217.175C202.185 220.032 202.926 222.888 203.671 225.743C204.624 229.392 205.562 233.046 206.495 236.701C207.218 239.523 207.948 242.343 208.681 245.163C209.029 246.509 209.376 247.856 209.72 249.203C210.202 251.088 210.696 252.97 211.191 254.852C211.468 255.921 211.746 256.99 212.032 258.092C213.563 262.691 214.926 265.356 219.125 267.875C223.429 269.48 227.614 269.224 232 268C236.479 265.819 238.783 262.912 241.391 258.801C241.781 258.206 242.171 257.611 242.573 256.998C243.809 255.109 245.03 253.211 246.25 251.312C247.487 249.405 248.727 247.499 249.97 245.595C250.742 244.413 251.508 243.228 252.271 242.04C253.155 240.676 254.074 239.335 255 238C255.33 238 255.66 238 256 238C256 259.12 256 280.24 256 302C246.595 302.99 246.595 302.99 237 304C209.009 310.474 183.881 325.552 168 350C162.989 358.187 158.677 366.761 156 376C155.629 377.254 155.258 378.509 154.875 379.801C149.437 399.852 150.744 420.329 157 440C157.219 440.693 157.439 441.385 157.665 442.099C162.279 456.081 170.184 468.708 180.383 479.277C182 481 182 481 182 482C163.058 482.117 144.117 482.205 125.174 482.259C116.378 482.285 107.582 482.32 98.7861 482.377C91.1144 482.427 83.443 482.459 75.7712 482.47C71.7134 482.477 67.6561 482.492 63.5985 482.529C59.7693 482.563 55.9409 482.573 52.1116 482.566C50.7157 482.567 49.3198 482.577 47.924 482.596C33.1305 482.791 22.0358 478.55 11.3283 468.418C4.53656 461.224 -0.126851 451.548 -0.122873 441.635C-0.124864 440.54 -0.126855 439.446 -0.128906 438.318C-0.125993 437.115 -0.123081 435.913 -0.120079 434.674C-0.120934 433.397 -0.121788 432.119 -0.122669 430.803C-0.124907 427.255 -0.120901 423.707 -0.115891 420.158C-0.111578 416.333 -0.113033 412.507 -0.113793 408.682C-0.114318 402.053 -0.111176 395.425 -0.105555 388.796C-0.0974326 379.212 -0.094824 369.628 -0.093567 360.044C-0.0913777 344.495 -0.0847207 328.946 -0.0752644 313.397C-0.0660873 298.292 -0.0590194 283.187 -0.0547566 268.081C-0.0543546 266.67 -0.0543546 266.67 -0.0539445 265.231C-0.0518651 257.877 -0.0499081 250.523 -0.0479899 243.168C-0.0385539 207.112 -0.0184362 171.056 0.000175059 135Z" fill="#D4F6F4"/>
<path d="M42.3588 -0.137053C43.1057 -0.139705 43.8527 -0.142356 44.6223 -0.145089C47.1394 -0.152782 49.6565 -0.153341 52.1736 -0.153939C53.9909 -0.157953 55.8083 -0.162391 57.6256 -0.167218C62.631 -0.17919 67.6363 -0.184833 72.6417 -0.189399C78.0359 -0.195353 83.4302 -0.206963 88.8244 -0.21769C101.858 -0.24222 114.892 -0.256842 127.926 -0.26975C131.607 -0.273461 135.288 -0.277435 138.969 -0.281502C161.827 -0.30674 184.686 -0.328794 207.544 -0.341231C212.839 -0.34416 218.135 -0.347122 223.43 -0.350136C224.747 -0.350882 226.063 -0.351628 227.419 -0.352397C248.736 -0.365048 270.054 -0.398268 291.372 -0.439938C313.257 -0.482366 335.142 -0.505927 357.027 -0.511151C369.315 -0.514564 381.603 -0.526309 393.891 -0.559254C404.357 -0.587268 414.823 -0.598248 425.29 -0.587058C430.628 -0.581875 435.966 -0.584737 441.304 -0.609524C446.197 -0.632052 451.089 -0.631249 455.982 -0.61232C457.746 -0.609525 459.511 -0.615091 461.275 -0.630133C477.054 -0.756354 488.929 2.47041 500.672 13.582C528.254 42.7994 512 116.048 512 135C343.04 135 174.08 135 0 135C0 25.6814 0 25.6814 13.582 11.3281C21.5846 3.77336 31.5122 -0.155749 42.3588 -0.137053Z" fill="#56BAB4"/>
<path d="M319.998 323C342.089 340.857 357.39 365.565 360.998 394C362.787 423.296 356.666 450.967 337.6 473.883C336.134 475.514 334.65 477.129 333.139 478.719C330.894 481.049 330.894 481.049 328.655 483.945C315.371 499.993 290.273 509.964 269.998 512C238.17 513.334 209.088 507.791 184.889 485.805C180.431 481.571 176.615 476.966 172.998 472C172.585 471.433 172.171 470.865 171.744 470.281C162.548 457.518 156.722 444.367 152.998 429C152.82 428.266 152.642 427.532 152.459 426.775C146.591 400.493 152.909 373.114 166.744 350.41C182.296 326.166 207.526 309.29 235.54 303.135C265.18 297.596 296.006 304.805 319.998 323Z" fill="#6AD9D2"/>
<path d="M43.871 -0.120282C44.7769 -0.121137 45.6828 -0.121991 46.6161 -0.122872C49.6578 -0.124521 52.6995 -0.119013 55.7412 -0.113553C57.9191 -0.113271 60.097 -0.113429 62.2749 -0.113996C68.1939 -0.114283 74.1129 -0.108395 80.0319 -0.101422C86.2152 -0.0951798 92.3985 -0.0945839 98.5818 -0.0933965C110.294 -0.0902857 122.006 -0.0820757 133.718 -0.072047C143.078 -0.0641493 152.438 -0.0586905 161.798 -0.0549596C162.797 -0.0545576 162.797 -0.0545576 163.816 -0.0541475C169.607 -0.0518346 175.399 -0.0496818 181.19 -0.0475448C206.127 -0.0381357 231.063 -0.0182151 256 -2.79471e-05C256 44.55 256 89.1 256 135C171.52 135 87.04 135 0 135C0 25.6814 0 25.6815 13.582 11.3281C22.1697 3.22098 32.3449 -0.159863 43.871 -0.120282Z" fill="#91E6E0"/>
<path d="M255.999 302C264.62 302 271.261 302.009 279.312 304.062C280.209 304.286 281.105 304.509 282.029 304.739C309.122 311.826 332.802 329.211 347.085 353.453C361.104 378.867 365.587 408.057 357.542 436.23C352.54 452.227 344.736 466.521 333.14 478.719C330.895 481.049 330.895 481.049 328.656 483.945C315.42 499.935 290.236 510.066 269.999 512C267.585 512.025 265.171 512.031 262.757 512.023C261.492 512.02 260.228 512.016 258.925 512.013C257.96 512.009 256.994 512.004 255.999 512C254.521 502.534 253.549 493.061 252.999 483.5C252.959 482.792 252.918 482.084 252.876 481.355C251.937 462.825 253.868 448.418 266.617 434.305C275.699 424.478 285.946 415.547 296.455 407.276C297.416 406.516 298.376 405.757 299.366 404.974C300.214 404.323 301.063 403.671 301.937 403C305.305 399.735 306.292 396.169 306.374 391.562C306.253 387.016 305.104 384.432 301.999 381C297.851 378.106 294.252 377.637 289.343 377.504C283.502 378.74 279.231 383.497 275.199 387.641C274.677 388.168 274.155 388.695 273.617 389.238C271.969 390.904 270.328 392.576 268.687 394.25C267.028 395.937 265.367 397.622 263.703 399.305C262.672 400.348 261.643 401.395 260.618 402.443C259.431 403.648 258.218 404.827 256.999 406C256.669 406 256.339 406 255.999 406C255.999 371.68 255.999 337.36 255.999 302Z" fill="#43A9A3"/>
<path d="M216.148 180.66C221.336 182.888 223.8 185.772 226 191C227.264 195.249 228.236 199.547 229.187 203.875C229.698 206.144 230.213 208.412 230.73 210.68C231.061 212.176 231.061 212.176 231.399 213.703C231.779 215.948 231.779 215.948 233 217C233.326 216.476 233.653 215.951 233.99 215.411C235.498 213.013 237.029 210.632 238.562 208.25C239.076 207.425 239.589 206.6 240.119 205.75C243.87 199.972 247.217 196.067 254.222 194.504C258.951 194.654 262.126 195.281 266 198C270.981 203.481 274.993 209.791 279 216C279.326 214.817 279.652 213.633 279.988 212.414C281.111 208.346 282.246 204.282 283.384 200.218C283.889 198.4 284.376 196.578 284.859 194.754C286.473 188.861 288.388 185.164 293.187 181.187C297.759 179.257 302.271 179.055 306.996 180.691C311.361 182.935 313.925 185.602 316 190C316.656 198.18 314.687 205.566 312.675 213.449C312.328 214.834 311.981 216.22 311.635 217.605C310.91 220.494 310.177 223.38 309.438 226.266C308.496 229.95 307.579 233.639 306.669 237.331C305.96 240.188 305.237 243.041 304.509 245.894C304.164 247.252 303.825 248.612 303.491 249.973C299.769 265.085 299.769 265.085 292.75 269.375C287.5 270.568 282.946 270.834 277.937 268.687C273.518 264.644 270.35 259.943 267 255C266.559 254.359 266.119 253.717 265.666 253.057C264.269 251.022 262.883 248.981 261.5 246.937C260.831 245.955 260.831 245.955 260.149 244.952C257 240.235 257 240.235 257 238C253.884 240.908 251.644 243.889 249.39 247.5C248.717 248.552 248.044 249.604 247.351 250.687C245.955 252.889 244.569 255.097 243.195 257.312C239.325 263.316 236.172 268.134 229 270C224.364 270.519 220.313 269.628 216.125 267.625C210.369 260.515 208.757 249.844 206.546 241.141C206.241 239.952 205.936 238.763 205.622 237.539C204.984 235.045 204.349 232.551 203.716 230.056C202.748 226.244 201.765 222.437 200.781 218.629C200.16 216.196 199.54 213.762 198.921 211.328C198.481 209.629 198.481 209.629 198.031 207.897C195.996 199.79 194.529 193.387 198.742 185.801C203.079 179.592 209.276 178.549 216.148 180.66Z" fill="#56BAB4"/>
<path d="M353.251 181.563C357.397 183.49 359.286 186.923 361.001 191C362.266 195.249 363.237 199.547 364.189 203.875C364.7 206.144 365.214 208.412 365.732 210.68C366.063 212.176 366.063 212.176 366.4 213.703C366.781 215.948 366.781 215.948 368.001 217C368.328 216.476 368.655 215.951 368.992 215.411C370.499 213.013 372.031 210.632 373.564 208.25C374.077 207.425 374.591 206.6 375.12 205.75C378.524 200.508 381.234 197.513 387.001 195C392.94 194.152 396.027 195.128 400.984 198.353C404.528 201.247 406.683 204.917 409.001 208.813C409.734 209.995 409.734 209.995 410.482 211.201C411.671 213.125 412.843 215.057 414.001 217C416.553 209.808 418.383 202.558 420.019 195.109C421.179 190.182 422.274 186.649 426.001 183C430.782 180.384 434.575 179.238 440.001 180C444.293 181.856 447.284 183.991 450.001 187.813C452.708 196.442 449.847 204.676 447.642 213.133C447.292 214.497 446.943 215.861 446.594 217.226C445.864 220.073 445.127 222.919 444.385 225.763C443.438 229.395 442.51 233.032 441.588 236.67C440.872 239.485 440.145 242.296 439.416 245.107C439.069 246.446 438.726 247.787 438.387 249.128C435.021 262.393 435.021 262.393 431.001 267C426.254 269.687 422.425 270.678 417.001 270C411.475 267.371 408.79 264.965 405.45 259.703C405.065 259.109 404.681 258.516 404.284 257.904C403.071 256.029 401.879 254.141 400.689 252.25C399.478 250.347 398.263 248.448 397.04 246.553C395.94 244.846 394.854 243.131 393.769 241.415C393.186 240.618 392.602 239.821 392.001 239C391.341 239 390.681 239 390.001 239C388.644 240.871 387.377 242.807 386.15 244.766C385.373 245.978 384.596 247.191 383.818 248.402C382.598 250.317 381.385 252.235 380.185 254.163C371.767 267.63 371.767 267.63 364.001 270C359.366 270.519 355.314 269.628 351.126 267.625C345.379 260.525 343.762 249.867 341.548 241.176C341.243 239.99 340.938 238.803 340.624 237.581C339.985 235.092 339.35 232.602 338.718 230.111C337.751 226.31 336.767 222.513 335.782 218.717C335.162 216.287 334.542 213.856 333.923 211.426C333.629 210.299 333.336 209.171 333.033 208.01C329.655 194.556 329.655 194.556 331.919 188.574C337.395 180.437 343.836 177.495 353.251 181.563Z" fill="#56BAB4"/>
<path d="M81.148 180.66C86.3358 182.888 88.8002 185.772 90.9995 191C92.2641 195.249 93.2359 199.547 94.187 203.875C94.6984 206.144 95.2126 208.412 95.73 210.68C96.061 212.176 96.061 212.176 96.3987 213.703C96.7793 215.948 96.7793 215.948 97.9995 217C98.3264 216.476 98.6533 215.951 98.99 215.411C100.498 213.013 102.029 210.632 103.562 208.25C104.076 207.425 104.589 206.6 105.119 205.75C108.522 200.508 111.232 197.513 117 195C122.939 194.152 126.025 195.128 130.982 198.353C134.527 201.247 136.681 204.917 139 208.813C139.732 209.995 139.732 209.995 140.48 211.201C141.669 213.125 142.842 215.057 144 217C146.551 209.808 148.381 202.558 150.017 195.109C151.178 190.182 152.272 186.649 156 183C160.781 180.384 164.573 179.238 170 180C174.292 181.856 177.282 183.991 180 187.813C182.707 196.442 179.846 204.676 177.64 213.133C177.291 214.497 176.941 215.861 176.593 217.226C175.863 220.073 175.125 222.919 174.383 225.763C173.436 229.395 172.509 233.032 171.586 236.67C170.871 239.485 170.144 242.296 169.414 245.107C169.068 246.446 168.725 247.787 168.386 249.128C165.02 262.393 165.02 262.393 161 267C156.252 269.687 152.424 270.678 147 270C141.474 267.371 138.789 264.965 135.449 259.703C135.064 259.11 134.679 258.516 134.282 257.904C133.069 256.029 131.877 254.141 130.687 252.25C129.476 250.347 128.261 248.448 127.038 246.553C125.938 244.846 124.853 243.131 123.768 241.415C123.184 240.618 122.601 239.821 122 239C121.34 239 120.68 239 120 239C118.642 240.871 117.375 242.807 116.148 244.766C115.371 245.978 114.594 247.191 113.816 248.402C112.597 250.317 111.384 252.235 110.184 254.163C101.766 267.63 101.766 267.63 93.9995 270C89.364 270.519 85.3129 269.628 81.1245 267.625C75.3691 260.515 73.7573 249.844 71.5464 241.141C71.2413 239.952 70.9362 238.763 70.6219 237.539C69.9839 235.045 69.3487 232.551 68.7163 230.056C67.7481 226.244 66.7649 222.437 65.7808 218.629C65.1601 216.196 64.5403 213.762 63.9214 211.328C63.4809 209.63 63.4809 209.63 63.0315 207.897C60.9964 199.79 59.5289 193.387 63.7417 185.801C68.0788 179.592 74.276 178.549 81.148 180.66Z" fill="#56BAB4"/>
<path d="M299.312 378.187C302.828 380.558 305.106 383.213 307 387C307.203 388.953 307.203 388.953 307.25 391.25C307.276 391.998 307.302 392.745 307.328 393.516C306.564 399.3 303.162 403.215 299.165 407.223C298.686 407.707 298.208 408.191 297.715 408.689C296.144 410.273 294.563 411.846 292.98 413.418C291.878 414.523 290.775 415.628 289.673 416.734C287.367 419.044 285.056 421.349 282.741 423.65C279.782 426.592 276.836 429.547 273.895 432.507C271.623 434.79 269.343 437.066 267.062 439.34C265.973 440.426 264.887 441.515 263.802 442.606C262.283 444.133 260.755 445.65 259.223 447.165C258.358 448.028 257.492 448.892 256.6 449.781C252.174 453.559 247.975 455.701 242.036 455.391C233.436 453.74 226.781 445.239 220.88 439.271C219.184 437.559 217.473 435.864 215.76 434.17C214.666 433.074 213.573 431.977 212.48 430.879C211.974 430.379 211.468 429.878 210.946 429.363C206.696 425.028 204.28 421.173 203.5 415.125C203.707 410.233 205.829 406.64 209 403C212.787 400.307 216.259 399.362 220.945 399.609C230.069 401.344 236.885 410.61 243 417C246.166 415.602 248.275 413.962 250.695 411.5C251.403 410.786 252.11 410.072 252.839 409.336C253.594 408.565 254.348 407.794 255.125 407C255.909 406.208 256.693 405.417 257.5 404.602C260.005 402.072 262.503 399.537 265 397C268.286 393.661 271.578 390.328 274.875 387C275.629 386.229 276.384 385.458 277.161 384.664C277.868 383.95 278.576 383.236 279.305 382.5C279.923 381.871 280.542 381.242 281.179 380.594C286.558 375.885 292.784 375.847 299.312 378.187Z" fill="#B7DFF4"/>
<path d="M216.148 180.66C221.336 182.888 223.8 185.772 226 191C227.264 195.249 228.236 199.547 229.187 203.875C229.698 206.144 230.213 208.412 230.73 210.68C231.061 212.176 231.061 212.176 231.399 213.703C231.779 215.948 231.779 215.948 233 217C233.326 216.476 233.653 215.951 233.99 215.411C235.498 213.013 237.029 210.632 238.562 208.25C239.076 207.425 239.589 206.6 240.119 205.75C243.512 200.523 246.216 197.457 252 195C253.32 195 254.64 195 256 195C259.639 237.277 259.639 237.277 247 254.438C246.579 255.014 246.159 255.59 245.726 256.184C241.066 262.403 236.482 267.416 229 270C224.364 270.519 220.313 269.628 216.125 267.625C210.369 260.515 208.757 249.844 206.546 241.141C206.241 239.952 205.936 238.763 205.622 237.539C204.984 235.045 204.349 232.551 203.716 230.056C202.748 226.244 201.765 222.437 200.781 218.629C200.16 216.196 199.54 213.762 198.921 211.328C198.481 209.63 198.481 209.63 198.031 207.897C195.996 199.79 194.529 193.387 198.742 185.801C203.079 179.592 209.276 178.549 216.148 180.66Z" fill="#56BAB4"/>
<path d="M351.574 59.4825C352.975 59.4719 352.975 59.4719 354.405 59.4612C357.478 59.4437 360.55 59.4552 363.623 59.4688C365.768 59.4661 367.914 59.4622 370.059 59.4572C374.551 59.4513 379.042 59.4598 383.533 59.4786C389.277 59.5013 395.021 59.4882 400.765 59.4643C405.195 59.4498 409.624 59.4544 414.053 59.4648C416.171 59.4674 418.288 59.4642 420.406 59.4549C423.371 59.4446 426.335 59.4603 429.3 59.4825C430.167 59.4744 431.035 59.4663 431.928 59.4579C437.664 59.5371 442.27 60.622 447.001 64C449.772 67.1401 450.897 70.2823 451.501 74.4375C450.887 78.8174 449.953 82.6244 447.001 86C441.231 89.8245 436.118 90.5848 429.316 90.5335C427.914 90.5464 427.914 90.5464 426.484 90.5596C423.417 90.5822 420.35 90.5755 417.283 90.5664C415.139 90.5717 412.994 90.578 410.85 90.5852C406.365 90.5956 401.88 90.5911 397.395 90.5765C391.658 90.5593 385.922 90.5828 380.186 90.6179C375.761 90.6399 371.336 90.6385 366.911 90.6302C364.796 90.6294 362.681 90.6362 360.567 90.6509C357.606 90.6684 354.648 90.6538 351.687 90.6311C350.821 90.6428 349.956 90.6545 349.064 90.6666C342.993 90.5724 338.623 89.0347 334.001 85C331.216 80.2997 330.324 76.4233 331.001 71C332.775 65.9856 335.203 63.484 339.909 60.8661C343.715 59.2909 347.507 59.4446 351.574 59.4825Z" fill="#D4F6F4"/>
<path d="M224.867 400.703C231.95 404.641 237.452 411.203 243 417C246.215 415.598 248.239 413.929 250.625 411.375C252.414 409.461 252.414 409.461 254 408C254.66 408 255.32 408 256 408C256.198 413.89 256.343 419.777 256.439 425.67C256.48 427.673 256.534 429.676 256.604 431.678C256.701 434.561 256.746 437.44 256.781 440.324C256.823 441.217 256.864 442.11 256.906 443.03C256.908 445.588 256.818 447.574 256 450C252.604 453.385 248.756 455.162 244 455.625C234.391 454.854 227.252 445.715 220.88 439.271C219.184 437.559 217.473 435.864 215.76 434.17C214.666 433.074 213.573 431.977 212.48 430.879C211.974 430.379 211.468 429.879 210.946 429.363C206.696 425.028 204.28 421.173 203.5 415.125C203.707 410.233 205.829 406.64 209 403C213.86 399.544 219.249 398.587 224.867 400.703Z" fill="#DDF3FC"/>
<path d="M83.1875 61.5625C87.3313 63.8557 89.5248 66.5009 91 71C91.8394 76.8756 90.9507 80.426 87.5508 85.3008C84.168 89.0074 80.3143 89.8357 75.5 90.4375C71.2907 89.9114 68.1668 88.7984 65 86C61.5642 81.3414 60.1571 76.7953 61 71C62.7586 66.0679 65.4469 62.971 70.1485 60.6602C74.8415 58.9869 78.7331 59.657 83.1875 61.5625Z" fill="#35D444"/>
<path d="M143.188 61.5625C147.552 63.9696 149.127 66.3954 151 71C151.733 76.0374 150.808 79.8076 148.395 84.1992C145.082 88.4771 140.622 89.7723 135.438 90.5C131.282 89.8956 128.138 88.773 125 86C121.564 81.3414 120.157 76.7953 121 71C122.759 66.0679 125.447 62.971 130.148 60.6602C134.842 58.9869 138.733 59.657 143.188 61.5625Z" fill="#F8BC03"/>
<path d="M203.188 61.5625C207.552 63.9696 209.127 66.3954 211 71C211.733 76.0374 210.808 79.8076 208.395 84.1992C205.082 88.4771 200.622 89.7723 195.438 90.5C191.282 89.8956 188.138 88.773 185 86C181.564 81.3414 180.157 76.7953 181 71C182.759 66.0679 185.447 62.971 190.148 60.6602C194.842 58.9869 198.733 59.657 203.188 61.5625Z" fill="#EB3803"/>
</g>
<defs>
<clipPath id="clip0_248_42">
<rect width="512" height="512" fill="white"/>
</clipPath>
</defs>
</svg>
