<svg width="512" height="512" viewBox="0 0 512 512" fill="none" xmlns="http://www.w3.org/2000/svg">
<g clip-path="url(#clip0_248_2)">
<path d="M76.4072 -0.380306C78.3603 -0.392966 78.3603 -0.392966 80.3529 -0.405882C81.7961 -0.400087 83.2393 -0.394006 84.6825 -0.387669C86.217 -0.391842 87.7515 -0.397319 89.2859 -0.403989C93.5045 -0.418474 97.7229 -0.41419 101.941 -0.406822C106.49 -0.402101 111.039 -0.414592 115.588 -0.42484C124.5 -0.442053 133.412 -0.442863 142.324 -0.437627C149.567 -0.433589 156.809 -0.435025 164.052 -0.440375C165.082 -0.441124 166.112 -0.441872 167.173 -0.442643C169.265 -0.444175 171.358 -0.445713 173.45 -0.447258C193.08 -0.460992 212.71 -0.455539 232.34 -0.444073C250.306 -0.434139 268.272 -0.447082 286.238 -0.471007C304.678 -0.495378 323.118 -0.505011 341.558 -0.498354C351.913 -0.494858 362.269 -0.497123 372.625 -0.514605C381.44 -0.529303 390.255 -0.529995 399.071 -0.512534C403.57 -0.504002 408.069 -0.501931 412.567 -0.517186C416.685 -0.530975 420.802 -0.526345 424.919 -0.506947C426.41 -0.503169 427.9 -0.506161 429.391 -0.516558C431.416 -0.52968 433.44 -0.515791 435.465 -0.500561C437.153 -0.5004 437.153 -0.5004 438.874 -0.500235C443.563 0.250426 446.696 2.56284 449.85 6.0411C451.674 10.7374 451.414 15.349 451.387 20.3426C451.395 22.0823 451.395 22.0823 451.403 23.8571C451.415 27.0724 451.413 30.2873 451.406 33.5026C451.401 36.9717 451.414 40.4407 451.424 43.9097C451.441 50.7043 451.442 57.4988 451.437 64.2935C451.433 69.8158 451.434 75.3381 451.439 80.8605C451.44 81.6463 451.441 82.432 451.442 83.2417C451.443 84.838 451.445 86.4343 451.446 88.0306C451.46 103.002 451.455 117.974 451.443 132.946C451.433 146.644 451.446 160.342 451.47 174.04C451.494 188.105 451.504 202.169 451.497 216.233C451.494 224.13 451.496 232.026 451.514 239.923C451.528 246.645 451.529 253.367 451.512 260.089C451.503 263.518 451.501 266.948 451.516 270.377C451.529 274.095 451.518 277.812 451.5 281.53C451.51 282.615 451.519 283.699 451.529 284.816C451.472 290.682 451.162 294.492 446.999 299C443.1 301.835 440.378 302.376 435.591 302.38C433.638 302.393 433.638 302.393 431.645 302.406C430.202 302.4 428.759 302.394 427.316 302.388C425.781 302.392 424.247 302.397 422.712 302.404C418.494 302.418 414.275 302.414 410.057 302.407C405.508 302.402 400.959 302.415 396.41 302.425C387.498 302.442 378.586 302.443 369.674 302.438C362.431 302.434 355.189 302.435 347.947 302.44C346.917 302.441 345.887 302.442 344.825 302.443C342.733 302.444 340.641 302.446 338.548 302.447C318.918 302.461 299.288 302.456 279.658 302.444C261.692 302.434 243.726 302.447 225.76 302.471C207.32 302.495 188.88 302.505 170.44 302.498C160.085 302.495 149.729 302.497 139.373 302.515C130.558 302.529 121.743 302.53 112.927 302.513C108.428 302.504 103.93 302.502 99.4307 302.517C95.3132 302.531 91.1962 302.526 87.0787 302.507C85.5882 302.503 84.0977 302.506 82.6072 302.517C80.5825 302.53 78.5577 302.516 76.533 302.501C75.408 302.5 74.2829 302.5 73.1238 302.5C68.4349 301.75 65.3022 299.437 62.1483 295.959C60.3243 291.263 60.5838 286.651 60.6114 281.657C60.606 280.498 60.6006 279.338 60.5951 278.143C60.5832 274.928 60.5849 271.713 60.5922 268.497C60.597 265.028 60.5845 261.559 60.5742 258.09C60.557 251.296 60.5562 244.501 60.5614 237.707C60.5655 232.184 60.564 226.662 60.5587 221.14C60.5579 220.354 60.5572 219.568 60.5564 218.758C60.5549 217.162 60.5533 215.566 60.5518 213.969C60.5381 198.998 60.5435 184.026 60.555 169.054C60.5649 155.356 60.552 141.658 60.528 127.96C60.5037 113.895 60.494 99.8309 60.5007 85.7666C60.5042 77.8701 60.5019 69.9737 60.4844 62.0772C60.4697 55.3552 60.4691 48.6333 60.4865 41.9112C60.495 38.4816 60.4971 35.0522 60.4819 31.6226C60.4687 27.9046 60.4801 24.1875 60.4979 20.4696C60.4883 19.3855 60.4786 18.3013 60.4688 17.1844C60.5264 11.3176 60.8366 7.50821 64.9991 3.00001C68.8977 0.164536 71.6205 -0.375927 76.4072 -0.380306Z" fill="#A6E5E2"/>
<path d="M76.4072 -0.380306C78.3603 -0.392966 78.3603 -0.392966 80.3529 -0.405882C81.7961 -0.400087 83.2393 -0.394006 84.6825 -0.387669C86.217 -0.391842 87.7515 -0.397319 89.2859 -0.403989C93.5045 -0.418474 97.7229 -0.41419 101.941 -0.406822C106.49 -0.402101 111.039 -0.414592 115.588 -0.42484C124.5 -0.442053 133.412 -0.442863 142.324 -0.437627C149.567 -0.433589 156.809 -0.435025 164.052 -0.440375C165.082 -0.441124 166.112 -0.441872 167.173 -0.442643C169.265 -0.444175 171.358 -0.445713 173.45 -0.447258C193.08 -0.460992 212.71 -0.455539 232.34 -0.444073C250.306 -0.434139 268.272 -0.447082 286.238 -0.471007C304.678 -0.495378 323.118 -0.505011 341.558 -0.498354C351.913 -0.494858 362.269 -0.497123 372.625 -0.514605C381.44 -0.529303 390.255 -0.529995 399.071 -0.512534C403.57 -0.504002 408.069 -0.501931 412.567 -0.517186C416.685 -0.530975 420.802 -0.526345 424.919 -0.506947C426.41 -0.503169 427.9 -0.506161 429.391 -0.516558C431.416 -0.52968 433.44 -0.515791 435.465 -0.500561C437.153 -0.5004 437.153 -0.5004 438.874 -0.500235C443.563 0.250426 446.696 2.56284 449.85 6.0411C451.674 10.7374 451.414 15.349 451.387 20.3426C451.395 22.0823 451.395 22.0823 451.403 23.8571C451.415 27.0724 451.413 30.2873 451.406 33.5026C451.401 36.9717 451.414 40.4407 451.424 43.9097C451.441 50.7043 451.442 57.4988 451.437 64.2935C451.433 69.8158 451.434 75.3381 451.439 80.8605C451.44 81.6463 451.441 82.432 451.442 83.2417C451.443 84.838 451.445 86.4343 451.446 88.0306C451.46 103.002 451.455 117.974 451.443 132.946C451.433 146.644 451.446 160.342 451.47 174.04C451.494 188.105 451.504 202.169 451.497 216.233C451.494 224.13 451.496 232.026 451.514 239.923C451.528 246.645 451.529 253.367 451.512 260.089C451.503 263.518 451.501 266.948 451.516 270.377C451.529 274.095 451.518 277.812 451.5 281.53C451.51 282.615 451.519 283.699 451.529 284.816C451.472 290.682 451.162 294.492 446.999 299C443.1 301.835 440.378 302.376 435.591 302.38C433.638 302.393 433.638 302.393 431.645 302.406C430.202 302.4 428.759 302.394 427.316 302.388C425.781 302.392 424.247 302.397 422.712 302.404C418.494 302.418 414.275 302.414 410.057 302.407C405.508 302.402 400.959 302.415 396.41 302.425C387.498 302.442 378.586 302.443 369.674 302.438C362.431 302.434 355.189 302.435 347.947 302.44C346.917 302.441 345.887 302.442 344.825 302.443C342.733 302.444 340.641 302.446 338.548 302.447C318.918 302.461 299.288 302.456 279.658 302.444C261.692 302.434 243.726 302.447 225.76 302.471C207.32 302.495 188.88 302.505 170.44 302.498C160.085 302.495 149.729 302.497 139.373 302.515C130.558 302.529 121.743 302.53 112.927 302.513C108.428 302.504 103.93 302.502 99.4307 302.517C95.3132 302.531 91.1962 302.526 87.0787 302.507C85.5882 302.503 84.0977 302.506 82.6072 302.517C80.5825 302.53 78.5577 302.516 76.533 302.501C75.408 302.5 74.2829 302.5 73.1238 302.5C68.4349 301.75 65.3022 299.437 62.1483 295.959C60.3243 291.263 60.5838 286.651 60.6114 281.657C60.606 280.498 60.6006 279.338 60.5951 278.143C60.5832 274.928 60.5849 271.713 60.5922 268.497C60.597 265.028 60.5845 261.559 60.5742 258.09C60.557 251.296 60.5562 244.501 60.5614 237.707C60.5655 232.184 60.564 226.662 60.5587 221.14C60.5579 220.354 60.5572 219.568 60.5564 218.758C60.5549 217.162 60.5533 215.566 60.5518 213.969C60.5381 198.998 60.5435 184.026 60.555 169.054C60.5649 155.356 60.552 141.658 60.528 127.96C60.5037 113.895 60.494 99.8309 60.5007 85.7666C60.5042 77.8701 60.5019 69.9737 60.4844 62.0772C60.4697 55.3552 60.4691 48.6333 60.4865 41.9112C60.495 38.4816 60.4971 35.0522 60.4819 31.6226C60.4687 27.9046 60.4801 24.1875 60.4979 20.4696C60.4883 19.3855 60.4786 18.3013 60.4688 17.1844C60.5264 11.3176 60.8366 7.50821 64.9991 3.00001C68.8977 0.164536 71.6205 -0.375927 76.4072 -0.380306ZM90.9991 30C90.9991 109.86 90.9991 189.72 90.9991 272C199.899 272 308.799 272 420.999 272C420.999 192.14 420.999 112.28 420.999 30C312.099 30 203.199 30 90.9991 30Z" fill="#6AD9D2"/>
<path d="M345.875 120.625C346.697 120.597 347.52 120.568 348.367 120.539C354.174 121.556 358.996 126.426 363.556 130.012C364.181 130.503 364.806 130.995 365.45 131.501C371.311 136.164 376.947 141.068 382.526 146.062C386.254 149.386 390.006 152.594 393.986 155.615C407.337 165.974 411.123 173.267 421 189C421 216.39 421 243.78 421 272C312.1 272 203.2 272 91 272C91 246.913 91 246.913 98.9152 238.227C99.8266 237.402 99.8266 237.402 100.756 236.561C101.449 235.921 102.141 235.281 102.854 234.622C103.565 233.968 104.276 233.314 105.008 232.641C106.456 231.228 107.898 229.811 109.337 228.389C113.102 224.693 116.933 221.073 120.782 217.464C123.915 214.503 127 211.493 130.082 208.48C136.456 202.249 142.861 196.051 149.352 189.942C149.938 189.382 150.525 188.821 151.128 188.243C155.617 184.057 159.634 181.305 165.875 180.5C175.643 180.981 182.668 190.273 189.062 196.77C190.104 197.817 191.146 198.863 192.189 199.909C194.912 202.643 197.625 205.386 200.337 208.131C203.113 210.938 205.899 213.737 208.684 216.537C214.131 222.016 219.568 227.505 225 233C228.562 231.485 230.836 229.406 233.554 226.673C234.463 225.764 235.371 224.856 236.307 223.92C237.306 222.91 238.306 221.9 239.305 220.891C240.362 219.829 241.421 218.768 242.479 217.707C244.756 215.424 247.03 213.137 249.302 210.849C252.893 207.23 256.493 203.619 260.093 200.009C267.735 192.345 275.368 184.673 283 177C291.239 168.717 299.48 160.435 307.731 152.162C311.31 148.573 314.885 144.979 318.455 141.381C320.677 139.144 322.903 136.912 325.129 134.681C326.162 133.645 327.192 132.607 328.22 131.568C329.624 130.15 331.035 128.738 332.446 127.327C333.233 126.535 334.021 125.743 334.832 124.927C338.384 121.77 341.146 120.699 345.875 120.625Z" fill="#56BAB4"/>
<path d="M256 30C310.45 30 364.9 30 421 30C421 82.47 421 134.94 421 189C416.421 185.075 412.069 181.206 407.853 176.935C407.283 176.361 406.713 175.788 406.125 175.198C404.901 173.966 403.678 172.734 402.456 171.5C400.52 169.547 398.581 167.598 396.641 165.65C391.13 160.115 385.625 154.574 380.125 149.029C376.749 145.627 373.369 142.229 369.986 138.835C368.7 137.543 367.417 136.25 366.136 134.955C364.348 133.148 362.554 131.347 360.759 129.548C359.97 128.745 359.97 128.745 359.164 127.926C354.986 123.759 352.052 121.717 346.125 121.625C345.303 121.597 344.48 121.568 343.633 121.539C336.79 122.737 331.844 128.887 327.175 133.614C326.415 134.376 325.654 135.137 324.871 135.921C322.372 138.427 319.879 140.94 317.387 143.453C315.649 145.197 313.912 146.94 312.173 148.682C307.607 153.261 303.047 157.846 298.488 162.432C291.175 169.789 283.855 177.139 276.531 184.486C273.969 187.058 271.41 189.634 268.852 192.21C267.294 193.775 265.736 195.339 264.178 196.903C263.104 197.988 263.104 197.988 262.008 199.094C261.359 199.745 260.71 200.395 260.041 201.066C259.475 201.636 258.908 202.206 258.324 202.793C257 204 257 204 256 204C256 146.58 256 89.16 256 30Z" fill="#6AD9D2"/>
<path d="M77.6616 -0.360727C78.4254 -0.36329 79.1892 -0.365853 79.9762 -0.368494C82.5313 -0.373429 85.0858 -0.356945 87.6409 -0.34054C89.4741 -0.339693 91.3074 -0.340169 93.1406 -0.341867C98.1154 -0.342728 103.09 -0.325084 108.065 -0.304145C113.265 -0.285398 118.464 -0.283629 123.664 -0.280069C133.509 -0.270743 143.355 -0.246121 153.2 -0.21602C164.409 -0.182494 175.618 -0.165995 186.828 -0.150934C209.885 -0.119572 232.942 -0.0661966 255.999 3.66271e-05C255.999 9.90004 255.999 19.8 255.999 30C201.549 30 147.099 30 90.9991 30C90.9991 109.86 90.9991 189.72 90.9991 272C145.449 272 199.899 272 255.999 272C255.999 281.9 255.999 291.8 255.999 302C231.851 302.093 207.704 302.164 183.556 302.207C172.344 302.228 161.132 302.256 149.919 302.302C140.148 302.342 130.376 302.367 120.604 302.376C115.429 302.382 110.255 302.394 105.08 302.423C100.209 302.45 95.339 302.458 90.4684 302.452C88.6809 302.454 86.8935 302.462 85.1061 302.477C82.6643 302.497 80.2237 302.492 77.7819 302.481C77.0756 302.493 76.3694 302.504 75.6417 302.516C70.6421 302.456 67.7981 301.21 63.9991 298C59.7912 293.359 60.5787 287.57 60.6114 281.657C60.606 280.498 60.6006 279.338 60.5951 278.143C60.5832 274.928 60.5849 271.713 60.5922 268.497C60.597 265.028 60.5845 261.559 60.5742 258.09C60.557 251.296 60.5562 244.501 60.5614 237.707C60.5655 232.184 60.564 226.662 60.5587 221.14C60.5579 220.354 60.5572 219.568 60.5564 218.758C60.5549 217.162 60.5533 215.566 60.5518 213.969C60.5381 198.998 60.5435 184.026 60.555 169.054C60.5649 155.356 60.552 141.658 60.528 127.96C60.5037 113.895 60.494 99.8309 60.5007 85.7666C60.5042 77.8701 60.5019 69.9737 60.4844 62.0772C60.4697 55.3552 60.4691 48.6333 60.4865 41.9113C60.495 38.4816 60.4971 35.0522 60.4819 31.6226C60.4687 27.9046 60.4801 24.1876 60.4979 20.4697C60.4883 19.3855 60.4786 18.3014 60.4688 17.1844C60.5264 11.3176 60.8366 7.50823 64.9991 3.00004C68.9952 -0.259483 72.6874 -0.422022 77.6616 -0.360727Z" fill="#C2F5F2"/>
<path d="M315.874 421.563C316.751 421.57 317.628 421.578 318.531 421.585C325.305 421.757 330.978 422.74 336.999 426C338.157 426.619 338.157 426.619 339.339 427.25C347.05 431.89 353.537 438.392 357.127 446.678C357.656 447.893 357.656 447.893 358.196 449.132C358.593 450.056 358.593 450.056 358.999 451C360.539 451.005 360.539 451.005 362.11 451.011C371.791 451.048 381.472 451.106 391.154 451.184C396.131 451.223 401.108 451.256 406.085 451.271C410.89 451.286 415.694 451.321 420.499 451.368C422.33 451.383 424.162 451.391 425.993 451.392C428.562 451.394 431.13 451.421 433.699 451.454C434.453 451.449 435.208 451.444 435.985 451.439C441.118 451.54 444.037 452.774 447.999 456C452.055 461.223 451.773 466.653 450.999 473C448.823 477.594 446.541 479.823 441.999 482C439.196 482.298 436.613 482.438 433.812 482.432C432.597 482.448 432.597 482.448 431.357 482.463C428.689 482.493 426.022 482.503 423.354 482.512C421.501 482.529 419.647 482.547 417.793 482.566C412.922 482.614 408.051 482.643 403.18 482.67C398.206 482.699 393.233 482.746 388.259 482.791C378.506 482.877 368.752 482.944 358.999 483C358.662 483.688 358.324 484.376 357.977 485.085C357.531 485.987 357.085 486.889 356.626 487.818C356.186 488.712 355.745 489.606 355.292 490.528C349.973 500.702 340.37 507.381 329.733 511.16C317.473 513.917 304.046 513.194 292.999 507C285.202 502.027 279.384 496.08 275.327 487.77C274.888 486.875 274.449 485.98 273.996 485.058C273.503 484.039 273.503 484.039 272.999 483C271.438 482.998 271.438 482.998 269.845 482.996C244.532 482.959 219.219 482.9 193.906 482.816C181.665 482.776 169.424 482.744 157.183 482.729C146.514 482.716 135.846 482.689 125.177 482.645C119.527 482.623 113.878 482.607 108.228 482.608C102.911 482.609 97.5942 482.591 92.2771 482.559C90.3253 482.55 88.3733 482.549 86.4214 482.554C83.7562 482.561 81.0923 482.543 78.4272 482.519C77.2686 482.531 77.2686 482.531 76.0866 482.542C70.9182 482.46 67.9842 481.258 63.999 478C59.9427 472.777 60.225 467.347 60.999 461C63.1744 456.408 65.4547 454.17 69.999 452C72.8427 451.711 75.4656 451.584 78.3069 451.601C79.1402 451.595 79.9734 451.588 80.8319 451.581C83.6219 451.562 86.4114 451.565 89.2014 451.568C91.2021 451.559 93.2028 451.548 95.2035 451.537C100.635 451.509 106.066 451.5 111.498 451.494C117.174 451.485 122.85 451.458 128.526 451.434C139.275 451.39 150.023 451.362 160.772 451.339C173.009 451.312 185.246 451.268 197.482 451.222C222.655 451.129 247.827 451.058 272.999 451C273.504 449.969 273.504 449.969 274.019 448.916C274.464 448.015 274.909 447.113 275.367 446.185C275.807 445.291 276.247 444.397 276.7 443.476C282.323 432.761 292.306 426.224 303.555 422.609C307.661 421.586 311.66 421.511 315.874 421.563Z" fill="#E6394F"/>
<path d="M165.874 331.563C166.751 331.57 167.628 331.578 168.531 331.585C175.305 331.757 180.978 332.74 186.999 336C187.771 336.413 188.543 336.825 189.339 337.25C197.05 341.89 203.537 348.392 207.127 356.678C207.48 357.488 207.832 358.298 208.196 359.132C208.461 359.748 208.726 360.365 208.999 361C210.194 361.001 211.39 361.003 212.621 361.004C240.994 361.04 269.368 361.096 297.741 361.178C301.233 361.188 304.726 361.198 308.218 361.208C308.913 361.209 309.608 361.211 310.325 361.213C321.582 361.244 332.839 361.261 344.097 361.273C355.648 361.286 367.199 361.313 378.75 361.355C385.238 361.377 391.726 361.393 398.214 361.392C404.319 361.391 410.424 361.409 416.529 361.441C418.771 361.45 421.013 361.451 423.255 361.446C426.315 361.439 429.373 361.457 432.432 361.481C433.766 361.469 433.766 361.469 435.126 361.458C440.564 361.533 443.687 362.375 447.999 366C452.055 371.223 451.773 376.653 450.999 383C448.827 387.586 446.562 389.874 441.999 392C438.85 392.44 435.728 392.416 432.552 392.399C431.596 392.405 430.641 392.412 429.656 392.419C426.451 392.438 423.247 392.435 420.043 392.432C417.746 392.441 415.45 392.452 413.154 392.463C406.917 392.491 400.68 392.5 394.443 392.506C387.926 392.515 381.409 392.542 374.892 392.566C363.952 392.605 353.013 392.633 342.073 392.654C330.807 392.675 319.54 392.702 308.273 392.738C307.231 392.741 307.231 392.741 306.168 392.744C302.683 392.755 299.198 392.766 295.713 392.778C266.808 392.871 237.904 392.942 208.999 393C208.662 393.688 208.324 394.376 207.977 395.085C207.531 395.987 207.085 396.889 206.626 397.818C206.186 398.712 205.745 399.606 205.292 400.528C199.973 410.702 190.37 417.381 179.733 421.16C167.473 423.917 154.046 423.194 142.999 417C135.202 412.027 129.384 406.08 125.327 397.77C124.888 396.875 124.449 395.98 123.996 395.058C123.503 394.039 123.503 394.039 122.999 393C122.348 392.996 121.698 392.993 121.027 392.989C114.246 392.947 107.465 392.878 100.685 392.792C98.155 392.764 95.6254 392.743 93.0957 392.729C89.4562 392.708 85.8178 392.661 82.1787 392.609C81.0504 392.608 79.922 392.607 78.7595 392.606C72.5554 392.49 68.6929 392.208 63.999 388C59.9427 382.777 60.225 377.347 60.999 371C63.1883 366.378 65.5033 364.293 69.999 362C72.6124 361.601 72.6124 361.601 75.4319 361.568C76.4926 361.548 77.5533 361.528 78.6462 361.508C79.7797 361.501 80.9132 361.495 82.081 361.488C83.2504 361.47 84.4197 361.452 85.6244 361.434C89.3534 361.38 93.0823 361.346 96.8115 361.313C99.3421 361.279 101.873 361.245 104.403 361.209C110.602 361.124 116.8 361.056 122.999 361C123.336 360.312 123.672 359.625 124.019 358.916C124.464 358.015 124.909 357.113 125.367 356.185C125.807 355.291 126.247 354.397 126.7 353.476C132.323 342.761 142.306 336.224 153.555 332.609C157.661 331.586 161.66 331.511 165.874 331.563Z" fill="#FDD743"/>
<path d="M170 181C177.663 184.319 183.312 190.927 189.062 196.77C190.104 197.817 191.146 198.863 192.189 199.909C194.912 202.643 197.625 205.386 200.337 208.131C203.113 210.938 205.899 213.737 208.684 216.537C214.131 222.016 219.568 227.505 225 233C229.024 231.148 231.738 228.485 234.789 225.336C235.334 224.784 235.878 224.232 236.439 223.663C238.173 221.905 239.9 220.141 241.625 218.375C243.903 216.044 246.188 213.719 248.477 211.398C249.001 210.858 249.525 210.317 250.064 209.76C251.339 208.469 252.665 207.229 254 206C254.66 206 255.32 206 256 206C256 227.78 256 249.56 256 272C201.55 272 147.1 272 91 272C91 246.913 91 246.913 98.9152 238.227C99.5228 237.677 100.13 237.127 100.756 236.561C101.449 235.921 102.141 235.281 102.854 234.622C103.565 233.968 104.276 233.314 105.008 232.641C106.456 231.228 107.898 229.811 109.337 228.389C113.102 224.693 116.933 221.073 120.782 217.464C123.915 214.503 127 211.493 130.082 208.48C136.456 202.249 142.861 196.051 149.352 189.942C149.938 189.382 150.525 188.821 151.128 188.243C156.609 183.131 162.187 179.48 170 181Z" fill="#56BAB4"/>
<path d="M209 362C238.581 361.909 268.161 361.838 297.742 361.796C301.234 361.791 304.727 361.786 308.219 361.78C308.914 361.779 309.609 361.778 310.326 361.777C321.583 361.76 332.84 361.728 344.098 361.691C355.649 361.654 367.2 361.632 378.751 361.624C385.239 361.618 391.727 361.606 398.215 361.577C404.32 361.55 410.425 361.542 416.53 361.548C418.772 361.546 421.014 361.538 423.256 361.523C426.315 361.503 429.374 361.508 432.433 361.519C433.767 361.501 433.767 361.501 435.127 361.484C440.572 361.536 443.684 362.367 448 366C452.056 371.223 451.774 376.653 451 383C448.828 387.585 446.564 389.877 442 392C438.849 392.429 435.729 392.392 432.553 392.361C431.12 392.365 431.12 392.365 429.657 392.368C426.452 392.373 423.248 392.357 420.044 392.341C417.747 392.34 415.451 392.34 413.155 392.342C406.918 392.343 400.681 392.325 394.444 392.304C387.927 392.285 381.41 392.284 374.893 392.28C363.953 392.272 353.014 392.253 342.074 392.226C330.808 392.199 319.541 392.178 308.274 392.165C307.579 392.164 306.884 392.163 306.169 392.162C302.684 392.158 299.199 392.155 295.714 392.151C266.809 392.12 237.905 392.067 209 392C209.162 390.892 209.325 389.783 209.492 388.641C209.866 385.962 210.128 383.498 210.133 380.809C210.134 380.091 210.135 379.374 210.137 378.635C210.133 377.91 210.129 377.185 210.125 376.437C210.129 375.709 210.133 374.98 210.137 374.228C210.135 373.512 210.134 372.796 210.133 372.059C210.132 371.422 210.131 370.786 210.129 370.131C209.962 367.38 209.466 364.714 209 362Z" fill="#56BAB4"/>
<path d="M223.999 70C233.216 77.402 239.102 87.3319 240.999 99C242.133 113.042 238.368 124.9 230.323 136.394C222.316 145.396 209.826 150.386 198.077 151.203C184.178 151.433 173.355 147.148 163.124 137.625C159.592 133.856 157.239 129.627 154.999 125C154.69 124.379 154.38 123.757 154.062 123.117C149.096 112.469 149.966 99.9706 153.679 89.1054C158.915 76.7907 168.704 67.9705 180.999 63C196.018 57.7433 211.08 61.4584 223.999 70Z" fill="#FDD744"/>
<path d="M78.3069 451.639C79.1402 451.637 79.9734 451.634 80.8319 451.632C83.6219 451.627 86.4114 451.643 89.2014 451.659C91.2021 451.66 93.2028 451.66 95.2035 451.658C100.635 451.657 106.066 451.675 111.498 451.696C117.174 451.715 122.85 451.716 128.526 451.72C139.275 451.729 150.023 451.754 160.772 451.784C173.009 451.818 185.246 451.834 197.482 451.849C222.655 451.88 247.827 451.933 272.999 452C272.743 453.984 272.487 455.968 272.231 457.952C271.931 460.601 271.867 463.209 271.874 465.875C271.871 466.801 271.869 467.726 271.866 468.68C271.981 471.548 272.215 474.354 272.507 477.208C272.599 478.106 272.691 479.004 272.785 479.929C272.856 480.613 272.926 481.296 272.999 482C246.635 482.093 220.271 482.164 193.906 482.207C181.665 482.228 169.424 482.256 157.183 482.302C146.514 482.342 135.846 482.367 125.177 482.376C119.527 482.382 113.878 482.394 108.228 482.423C102.911 482.45 97.5943 482.458 92.2771 482.452C90.3252 482.454 88.3733 482.462 86.4215 482.477C83.7563 482.497 81.0923 482.492 78.4272 482.481C77.2686 482.499 77.2686 482.499 76.0866 482.516C70.9104 482.459 67.9877 481.264 63.999 478C59.9427 472.777 60.225 467.347 60.999 461C64.7435 453.095 70.0163 451.546 78.3069 451.639Z" fill="#6AD9D2"/>
<path d="M166 332C179.314 332 188.568 335.177 198.383 344.188C207.87 353.957 211.302 364.901 211.315 378.223C211.089 390.825 206.695 400.741 198.191 409.961C188.85 418.856 178.705 422 166 422C166 392.3 166 362.6 166 332Z" fill="#FE9F01"/>
<path d="M316 422C316 451.7 316 481.4 316 512C301.826 512 292.392 508.124 282.293 498.348C273.111 488.469 270.451 476.206 270.758 463.039C271.725 450.903 276.368 441.122 285.187 432.688C294.714 424.732 303.66 422 316 422Z" fill="#FE7A4A"/>
<path d="M359 452C369.718 451.907 380.436 451.836 391.155 451.793C396.132 451.772 401.109 451.744 406.086 451.698C410.891 451.655 415.695 451.631 420.5 451.62C422.331 451.613 424.163 451.599 425.994 451.577C428.563 451.548 431.131 451.544 433.7 451.546C434.832 451.524 434.832 451.524 435.986 451.502C441.138 451.542 444.03 452.758 448 456C452.056 461.223 451.774 466.653 451 473C448.825 477.591 446.544 479.831 442 482C439.193 482.27 436.615 482.38 433.813 482.341C433.003 482.341 432.193 482.341 431.358 482.342C428.69 482.34 426.023 482.317 423.355 482.293C421.502 482.287 419.648 482.283 417.794 482.28C412.923 482.269 408.052 482.239 403.181 482.206C398.207 482.175 393.234 482.162 388.26 482.146C378.506 482.114 368.753 482.063 359 482C359.162 480.892 359.325 479.783 359.492 478.641C359.866 475.962 360.128 473.498 360.133 470.809C360.134 470.091 360.135 469.374 360.137 468.635C360.133 467.91 360.129 467.185 360.125 466.438C360.129 465.709 360.133 464.98 360.137 464.229C360.135 463.512 360.134 462.796 360.133 462.059C360.132 461.422 360.131 460.786 360.129 460.131C359.962 457.38 359.466 454.714 359 452Z" fill="#56BAB4"/>
<path d="M75.4319 361.659C76.4926 361.66 77.5533 361.66 78.6462 361.66C79.7797 361.676 80.9132 361.691 82.081 361.707C83.2504 361.711 84.4197 361.716 85.6244 361.72C89.3537 361.737 93.0824 361.774 96.8115 361.813C99.3421 361.828 101.873 361.841 104.403 361.854C110.602 361.887 116.8 361.937 122.999 362C122.743 363.984 122.487 365.968 122.231 367.952C121.931 370.601 121.867 373.209 121.874 375.875C121.871 376.801 121.869 377.726 121.866 378.68C121.981 381.548 122.215 384.354 122.507 387.208C122.599 388.106 122.691 389.004 122.785 389.929C122.891 390.954 122.891 390.954 122.999 392C115.561 392.102 108.123 392.172 100.685 392.22C98.1549 392.24 95.6252 392.267 93.0957 392.302C89.4566 392.35 85.8181 392.373 82.1787 392.391C81.0504 392.411 79.922 392.432 78.7595 392.453C72.5219 392.455 68.7085 392.25 63.999 388C59.9427 382.777 60.225 377.347 60.999 371C64.0379 364.585 68.3361 361.609 75.4319 361.659Z" fill="#6AD9D2"/>
<path d="M209 362C224.51 362 240.02 362 256 362C256 371.9 256 381.8 256 392C240.49 392 224.98 392 209 392C209.33 389.69 209.66 387.38 210 385C210.08 383.604 210.13 382.206 210.133 380.809C210.134 380.091 210.135 379.374 210.137 378.635C210.133 377.91 210.129 377.185 210.125 376.438C210.129 375.709 210.133 374.98 210.137 374.229C210.135 373.512 210.134 372.796 210.133 372.059C210.132 371.422 210.131 370.786 210.129 370.131C209.964 367.399 209.45 364.699 209 362Z" fill="#6AD9D2"/>
<path d="M256 452C261.61 452 267.22 452 273 452C272.67 454.64 272.34 457.28 272 460C271.678 467.403 272.135 474.648 273 482C267.39 482 261.78 482 256 482C256 472.1 256 462.2 256 452Z" fill="#6AD9D2"/>
</g>
<defs>
<clipPath id="clip0_248_2">
<rect width="512" height="512" fill="white"/>
</clipPath>
</defs>
</svg>
