<svg width="512" height="512" viewBox="0 0 512 512" fill="none" xmlns="http://www.w3.org/2000/svg">
<g clip-path="url(#clip0_248_20)">
<path d="M263.126 13.0625C267.803 16.2143 270.824 20.4132 274.146 24.8906C288.111 43.6555 306.026 60.2958 329.001 67C331.999 67.2949 331.999 67.2949 335.14 67.2516C336.955 67.2597 336.955 67.2597 338.805 67.2679C340.119 67.2638 341.433 67.2596 342.787 67.2554C344.195 67.2581 345.604 67.2618 347.012 67.2664C350.039 67.2745 353.065 67.2766 356.092 67.2744C360.889 67.2716 365.686 67.286 370.483 67.3034C384.122 67.3503 397.761 67.3743 411.4 67.3809C418.937 67.3846 426.475 67.4028 434.013 67.436C438.769 67.4561 443.525 67.4586 448.282 67.4477C451.259 67.4451 454.236 67.4592 457.213 67.4778C459.225 67.4855 461.237 67.4737 463.249 67.4611C477.113 67.5854 488.28 71.1763 498.689 80.375C506.057 88.7385 512.113 97.5678 512.136 109.069C512.14 110.097 512.145 111.126 512.149 112.186C512.149 113.879 512.149 113.879 512.149 115.606C512.152 116.807 512.156 118.007 512.16 119.244C512.169 122.577 512.173 125.91 512.176 129.243C512.18 132.838 512.19 136.432 512.198 140.027C512.218 148.709 512.228 157.391 512.237 166.074C512.242 170.164 512.247 174.254 512.252 178.345C512.269 191.946 512.284 205.547 512.291 219.148C512.293 222.677 512.295 226.206 512.297 229.735C512.297 230.612 512.298 231.489 512.298 232.393C512.306 246.596 512.332 260.798 512.364 275C512.397 289.588 512.415 304.175 512.418 318.763C512.421 326.951 512.429 335.139 512.455 343.326C512.477 350.301 512.485 357.275 512.475 364.25C512.47 367.806 512.472 371.361 512.492 374.917C512.513 378.78 512.502 382.642 512.489 386.505C512.506 388.174 512.506 388.174 512.522 389.878C512.42 402.405 507.862 412.368 499.626 421.688C490.112 430.07 480.673 435.131 467.744 435.12C465.853 435.122 465.853 435.122 463.924 435.124C462.534 435.121 461.145 435.117 459.756 435.114C458.287 435.113 456.819 435.113 455.35 435.114C451.369 435.114 447.388 435.108 443.407 435.101C439.244 435.095 435.082 435.095 430.919 435.093C423.039 435.09 415.159 435.082 407.279 435.072C398.307 435.061 389.335 435.055 380.363 435.05C361.909 435.04 343.455 435.022 325.001 435C328.961 451.335 328.961 451.335 333.001 468C335.747 468.037 338.493 468.075 341.322 468.113C343.993 468.16 346.664 468.211 349.334 468.262C351.185 468.296 353.036 468.324 354.886 468.346C357.553 468.38 360.218 468.432 362.884 468.488C363.706 468.495 364.528 468.501 365.376 468.508C370.3 468.633 373.729 469.298 378.001 472C382.673 477.177 383.349 480.394 383.287 487.234C382.79 492.047 380.463 494.715 376.939 497.813C372.47 500.551 367.931 500.145 362.873 500.14C361.455 500.145 361.455 500.145 360.008 500.149C356.825 500.158 353.642 500.16 350.459 500.161C348.183 500.166 345.906 500.171 343.63 500.176C337.436 500.189 331.242 500.196 325.047 500.2C321.18 500.203 317.312 500.207 313.444 500.212C302.736 500.224 292.027 500.234 281.319 500.238C280.633 500.238 279.948 500.238 279.242 500.238C278.211 500.239 278.211 500.239 277.16 500.239C275.768 500.239 274.376 500.24 272.984 500.24C271.948 500.241 271.948 500.241 270.891 500.241C259.702 500.245 248.512 500.262 237.323 500.286C225.835 500.309 214.347 500.322 202.86 500.323C196.41 500.324 189.96 500.33 183.51 500.348C177.443 500.364 171.377 500.366 165.31 500.358C163.083 500.357 160.855 500.361 158.627 500.371C155.588 500.384 152.55 500.378 149.51 500.368C148.186 500.38 148.186 500.38 146.834 500.392C141.808 500.351 138.353 499.793 134.001 497C129.33 491.823 128.654 488.606 128.716 481.766C129.213 476.953 131.54 474.285 135.064 471.188C139.42 468.518 143.884 468.782 148.826 468.684C149.687 468.663 150.548 468.642 151.436 468.621C154.187 468.555 156.938 468.496 159.689 468.438C161.554 468.394 163.419 468.351 165.285 468.307C169.857 468.199 174.429 468.1 179.001 468C181.641 457.11 184.281 446.22 187.001 435C180.333 435.031 180.333 435.031 173.53 435.064C158.818 435.13 144.106 435.174 129.393 435.207C120.476 435.228 111.559 435.256 102.642 435.302C94.8647 435.342 87.0877 435.367 79.3105 435.376C75.1969 435.382 71.0836 435.394 66.9702 435.423C63.0886 435.45 59.2074 435.458 55.3257 435.452C53.9105 435.454 52.4952 435.461 51.0801 435.477C36.3248 435.63 24.4541 432.47 13.314 422.625C5.94612 414.262 -0.109604 405.432 -0.132751 393.931C-0.137209 392.903 -0.141678 391.874 -0.146271 390.814C-0.146086 389.685 -0.145881 388.557 -0.145691 387.394C-0.149368 386.193 -0.153072 384.993 -0.15686 383.756C-0.16598 380.423 -0.170594 377.09 -0.173248 373.757C-0.177155 370.162 -0.186706 366.568 -0.195435 362.973C-0.21519 354.291 -0.225294 345.609 -0.234192 336.927C-0.238577 332.836 -0.243938 328.746 -0.249176 324.655C-0.266188 311.054 -0.280659 297.453 -0.287903 283.852C-0.289813 280.323 -0.291745 276.794 -0.293701 273.265C-0.294185 272.388 -0.294668 271.511 -0.295166 270.607C-0.303463 256.405 -0.328781 242.202 -0.361267 228C-0.394361 213.412 -0.412365 198.825 -0.415558 184.237C-0.417721 176.049 -0.426446 167.861 -0.452026 159.674C-0.473765 152.699 -0.481754 145.725 -0.472046 138.75C-0.46751 135.195 -0.469336 131.639 -0.4888 128.083C-0.509761 124.22 -0.499417 120.358 -0.486267 116.495C-0.497236 115.382 -0.50823 114.269 -0.519531 113.122C-0.416862 100.595 4.14054 90.6321 12.3765 81.3125C21.792 73.0179 31.209 67.8749 44.02 67.8755C45.2282 67.8729 46.4363 67.8703 47.681 67.8677C48.9985 67.8698 50.316 67.8719 51.6733 67.874C53.0815 67.8727 54.4897 67.8708 55.8979 67.8684C58.9274 67.8639 61.9568 67.862 64.9862 67.8619C69.7873 67.8608 74.5883 67.8479 79.3894 67.8324C80.6071 67.8285 80.6071 67.8285 81.8493 67.8246C83.5093 67.8193 85.1692 67.814 86.8292 67.8087C98.001 67.7737 109.173 67.747 120.345 67.7495C127.887 67.7511 135.429 67.735 142.972 67.6988C146.957 67.6805 150.941 67.6709 154.926 67.6833C158.683 67.6948 162.438 67.6828 166.194 67.6537C168.209 67.644 170.223 67.6587 172.238 67.6745C184.064 67.5415 194.111 63.8064 204.001 57.4375C204.666 57.0162 205.33 56.595 206.015 56.1609C212.45 51.9425 218.051 46.9351 223.487 41.5095C224.55 40.4501 225.626 39.4038 226.711 38.3675C231.677 33.5673 235.632 28.3027 239.638 22.6973C245.79 14.2566 252.443 9.43031 263.126 13.0625Z" fill="#6AD9D2"/>
<path d="M51.5019 98.5459C52.7706 98.5453 54.0393 98.5448 55.3464 98.5442C58.8173 98.543 62.2877 98.5665 65.7584 98.5944C69.3886 98.6195 73.0187 98.6218 76.6489 98.6265C83.5196 98.639 90.39 98.6718 97.2605 98.7119C105.084 98.7567 112.907 98.7787 120.731 98.7987C136.821 98.8405 152.911 98.9109 169.001 99C169.05 99.7258 169.099 100.452 169.15 101.199C169.381 104.554 169.622 107.908 169.864 111.262C169.941 112.403 170.018 113.544 170.098 114.72C171.916 139.526 179.344 163.127 191.001 185C192.651 188.3 194.301 191.6 196.001 195C162.671 195 129.341 195 95.0007 195C95.0007 222.06 95.0007 249.12 95.0007 277C201.261 277 307.521 277 417.001 277C417.001 250.27 417.001 223.54 417.001 196C383.671 196 350.341 196 316.001 196C317.244 192.892 318.315 190.271 319.919 187.426C330.39 168.491 337.188 148.856 340.751 127.5C340.866 126.827 340.982 126.153 341.101 125.459C341.973 119.717 342.249 113.96 342.537 108.166C342.604 106.843 342.604 106.843 342.673 105.493C342.784 103.329 342.892 101.164 343.001 99C359.586 98.9299 376.172 98.877 392.757 98.8446C400.458 98.8291 408.159 98.808 415.861 98.7737C422.574 98.7438 429.287 98.7244 436 98.7178C439.554 98.7139 443.107 98.7047 446.661 98.6828C450.631 98.6586 454.6 98.6581 458.57 98.6594C459.745 98.6487 460.92 98.6379 462.131 98.6268C472.171 98.6649 472.171 98.6649 477.001 102C482.049 107.458 482.144 111.933 482.121 119.092C482.122 120.032 482.123 120.971 482.124 121.939C482.125 125.111 482.12 128.282 482.114 131.454C482.114 133.757 482.114 136.06 482.115 138.363C482.115 144.546 482.109 150.728 482.102 156.91C482.096 162.706 482.096 168.502 482.095 174.298C482.09 191.261 482.076 208.224 482.063 225.188C482.043 263.076 482.022 300.964 482.001 340C332.841 340 183.681 340 30.0007 340C29.9182 302.009 29.8357 264.018 29.7507 224.875C29.7143 212.87 29.6779 200.865 29.6403 188.496C29.6223 173.86 29.6223 173.86 29.6189 167.013C29.6152 162.22 29.6002 157.428 29.5784 152.636C29.551 146.526 29.5427 140.417 29.5484 134.308C29.5472 132.064 29.5393 129.819 29.5238 127.575C29.504 124.547 29.5087 121.52 29.5197 118.491C29.508 117.61 29.4964 116.729 29.4844 115.821C29.5494 109.147 31.6825 105.763 35.9694 100.653C40.9222 97.952 45.9559 98.4793 51.5019 98.5459Z" fill="#D4F6F4"/>
<path d="M263.125 13.0625C267.802 16.2143 270.823 20.4132 274.145 24.8906C288.989 44.8374 306.527 59.0641 330.062 67.625C335.76 69.7389 338.725 71.5694 342.092 76.6475C343.415 80.0758 343.324 83.4534 343.336 87.0781C343.344 87.8734 343.353 88.6687 343.361 89.4881C343.381 92.0756 343.381 94.6624 343.375 97.25C343.374 98.5716 343.374 98.5716 343.373 99.9198C343.277 133.615 334.906 167.641 316 196C349.33 196 382.66 196 417 196C417 222.73 417 249.46 417 277C310.74 277 204.48 277 95 277C95 249.94 95 222.88 95 195C128 194.67 161 194.34 195 194C191.7 188.06 188.4 182.12 185 176C183.423 172.508 181.974 169.201 180.688 165.625C180.368 164.764 180.049 163.903 179.72 163.016C174.684 149.025 170.439 133.567 169.375 118.688C169.263 117.239 169.263 117.239 169.148 115.762C168.928 110.179 169 104.587 169 99C127.09 99 85.18 99 42 99C42 98.67 42 98.34 42 98C83.91 98 125.82 98 169 98C169 91.73 169 85.46 169 79C174.154 71.2686 177.932 68.7866 186.312 65.875C200.823 60.4884 212.563 52.4115 223.485 41.5095C224.548 40.4501 225.624 39.4038 226.71 38.3675C231.676 33.5673 235.631 28.3027 239.637 22.6973C245.789 14.2566 252.442 9.43031 263.125 13.0625Z" fill="#6AD9D2"/>
<path d="M331 68C349.42 67.9063 367.841 67.8359 386.261 67.7928C394.815 67.7722 403.369 67.7442 411.923 67.6982C419.384 67.6582 426.844 67.6325 434.305 67.6236C438.251 67.6185 442.197 67.6064 446.142 67.5771C449.867 67.5497 453.59 67.5416 457.314 67.5476C459.312 67.546 461.31 67.5246 463.308 67.5023C477.152 67.5647 488.3 71.1955 498.688 80.375C506.055 88.7385 512.111 97.5678 512.134 109.069C512.139 110.097 512.143 111.126 512.148 112.186C512.147 113.879 512.147 113.879 512.147 115.606C512.151 116.807 512.155 118.007 512.158 119.244C512.167 122.577 512.172 125.91 512.175 129.243C512.179 132.838 512.188 136.432 512.197 140.027C512.217 148.709 512.227 157.391 512.236 166.074C512.24 170.164 512.245 174.254 512.251 178.345C512.268 191.946 512.282 205.547 512.289 219.148C512.291 222.677 512.293 226.206 512.295 229.735C512.296 230.612 512.296 231.489 512.297 232.393C512.305 246.595 512.33 260.798 512.363 275C512.396 289.588 512.414 304.175 512.417 318.763C512.419 326.951 512.428 335.139 512.453 343.326C512.475 350.301 512.483 357.275 512.474 364.25C512.469 367.805 512.471 371.361 512.49 374.917C512.511 378.78 512.501 382.642 512.488 386.505C512.504 388.174 512.504 388.174 512.521 389.878C512.418 402.405 507.861 412.368 499.625 421.688C490.11 430.07 480.672 435.131 467.742 435.12C465.851 435.122 465.851 435.122 463.922 435.124C462.533 435.121 461.144 435.117 459.755 435.114C458.286 435.113 456.817 435.113 455.349 435.114C451.368 435.114 447.387 435.108 443.406 435.101C439.243 435.095 435.08 435.095 430.918 435.093C423.038 435.09 415.158 435.082 407.278 435.072C398.306 435.061 389.334 435.055 380.361 435.05C361.908 435.04 343.454 435.022 325 435C327.64 445.89 330.28 456.78 333 468C335.746 468.037 338.491 468.075 341.32 468.113C343.991 468.16 346.662 468.211 349.333 468.262C351.184 468.296 353.034 468.324 354.885 468.346C357.551 468.38 360.217 468.432 362.883 468.488C363.705 468.495 364.527 468.501 365.374 468.508C370.298 468.633 373.727 469.298 378 472C382.672 477.177 383.348 480.394 383.285 487.234C382.789 492.047 380.462 494.715 376.938 497.812C373.659 499.822 370.989 500.124 367.235 500.12C366.257 500.122 365.279 500.123 364.271 500.124C363.195 500.121 362.12 500.117 361.011 500.114C359.861 500.114 358.711 500.114 357.526 500.114C353.794 500.113 350.063 500.106 346.332 500.098C344.032 500.096 341.731 500.095 339.431 500.095C330.892 500.089 322.352 500.075 313.812 500.062C294.734 500.042 275.656 500.021 256 500C256 447.53 256 395.06 256 341C330.58 341 405.16 341 482 341C481.939 300.114 481.939 300.114 481.84 259.229C481.824 253.716 481.808 248.203 481.792 242.691C481.791 242 481.789 241.309 481.787 240.597C481.756 229.446 481.739 218.294 481.727 207.143C481.714 195.697 481.687 184.251 481.645 172.805C481.623 166.377 481.607 159.949 481.608 153.52C481.609 147.47 481.591 141.42 481.559 135.37C481.55 133.15 481.549 130.929 481.554 128.708C481.561 125.676 481.543 122.644 481.519 119.611C481.527 118.733 481.535 117.855 481.542 116.95C481.461 111.156 480.348 107.763 477 103C471.603 98.831 465.086 99.5597 458.569 99.5676C456.695 99.5523 456.695 99.5523 454.783 99.5367C451.37 99.5118 447.958 99.4999 444.545 99.4939C440.973 99.4845 437.402 99.4583 433.83 99.4339C427.073 99.3903 420.316 99.3617 413.559 99.3386C405.864 99.3115 398.168 99.2676 390.473 99.2223C374.649 99.1295 358.824 99.0578 343 99C342.985 98.4256 342.971 97.8511 342.956 97.2593C342.881 94.6305 342.784 92.003 342.688 89.375C342.665 88.4714 342.642 87.5677 342.619 86.6367C342.409 81.3983 341.933 77.5208 339 73C337.026 71.4772 337.026 71.4772 334.812 70.625C334.097 70.3079 333.382 69.9908 332.645 69.6641C331.83 69.3354 331.83 69.3354 331 69C331 68.67 331 68.34 331 68Z" fill="#56BAB4"/>
<path d="M51.5019 98.5459C52.7706 98.5453 54.0393 98.5448 55.3464 98.5442C58.8173 98.543 62.2877 98.5665 65.7585 98.5944C69.3886 98.6195 73.0187 98.6218 76.6489 98.6265C83.5196 98.639 90.39 98.6718 97.2605 98.7119C105.084 98.7567 112.907 98.7787 120.731 98.7987C136.821 98.8405 152.911 98.9109 169.001 99C169.05 99.7258 169.099 100.452 169.15 101.199C169.381 104.554 169.622 107.908 169.864 111.262C169.941 112.403 170.018 113.544 170.098 114.72C171.916 139.526 179.344 163.127 191.001 185C192.651 188.3 194.301 191.6 196.001 195C162.671 195 129.341 195 95.0007 195C95.0007 222.39 95.0007 249.78 95.0007 278C148.131 278 201.261 278 256.001 278C256.001 298.46 256.001 318.92 256.001 340C181.421 340 106.841 340 30.0007 340C29.8395 282.313 29.8395 282.313 29.8054 258.18C29.7976 252.665 29.7895 247.15 29.781 241.636C29.7799 240.945 29.7789 240.253 29.7778 239.541C29.7604 228.383 29.7288 217.224 29.6921 206.066C29.6547 194.614 29.6328 183.163 29.6243 171.711C29.6191 165.279 29.6068 158.847 29.5778 152.415C29.5507 146.362 29.5422 140.31 29.5483 134.257C29.5472 132.035 29.5392 129.812 29.5239 127.589C29.504 124.556 29.5088 121.524 29.5197 118.491C29.508 117.61 29.4964 116.729 29.4844 115.82C29.5495 109.147 31.6828 105.763 35.9694 100.653C40.9222 97.952 45.9559 98.4793 51.5019 98.5459Z" fill="#D4F6F4"/>
<path d="M95 196C120.055 195.438 120.055 195.438 130.77 195.316C138.07 195.233 145.368 195.134 152.667 194.944C158.554 194.791 164.439 194.708 170.329 194.672C172.57 194.646 174.812 194.596 177.053 194.52C194.167 193.964 194.167 193.964 198.884 197.354C202.501 201.09 204.635 205.417 207 210C208.504 211.841 210.058 213.644 211.688 215.375C214.282 218.149 216.78 220.938 219.188 223.875C227.446 233.316 242.134 248.098 254.812 250.313C268.731 250.363 283.677 233.17 293 224C297.772 219.243 302.17 214.769 305.282 208.772C311.464 197.405 311.464 197.405 317.396 195.048C324.359 193.599 331.423 194.048 338.484 194.34C340.754 194.372 343.024 194.396 345.294 194.413C351.235 194.477 357.169 194.644 363.107 194.833C370.25 195.038 377.394 195.115 384.539 195.214C395.364 195.379 406.174 195.704 417 196C417 222.73 417 249.46 417 277C310.74 277 204.48 277 95 277C95 250.27 95 223.54 95 196Z" fill="#56BAB4"/>
<path d="M256 12C264.338 13.1911 266.944 14.9965 271.902 21.4922C273.242 23.3655 274.574 25.2446 275.898 27.1289C279.267 31.7309 283.092 35.8556 287 40C287.612 40.6768 288.225 41.3535 288.855 42.0508C300.162 54.0804 314.689 62.0331 330.062 67.625C335.76 69.7389 338.725 71.5694 342.092 76.6475C343.415 80.0758 343.324 83.4534 343.336 87.0781C343.344 87.8734 343.353 88.6687 343.361 89.488C343.381 92.0756 343.381 94.6624 343.375 97.25C343.374 98.131 343.374 99.0121 343.373 99.9198C343.233 149.201 324.128 192.849 290.125 228.188C284.658 233.531 278.713 238.226 272.6 242.802C271.197 243.852 269.808 244.921 268.422 245.992C263.252 249.77 259.409 250.797 253 251C253.99 250.67 254.98 250.34 256 250C256 221.29 256 192.58 256 163C258.97 162.01 261.94 161.02 265 160C270.234 155.514 274.35 150.208 278.66 144.844C280.965 142.042 283.361 139.361 285.812 136.688C291.356 130.592 295.396 125.709 295.285 117.062C294.705 112.869 292.098 110.179 289.312 107.188C285.054 105 280.648 104.419 275.953 105.449C270.177 107.817 266.874 112.385 263.176 117.246C261 120 261 120 256 125C256 87.71 256 50.42 256 12Z" fill="#56BAB4"/>
<path d="M331 164C331.33 164.66 331.66 165.32 332 166C333.953 165.987 333.953 165.987 335.946 165.973C348.217 165.892 360.488 165.832 372.76 165.793C379.069 165.772 385.378 165.744 391.687 165.698C397.775 165.655 403.863 165.631 409.952 165.62C412.274 165.613 414.597 165.599 416.92 165.577C420.174 165.548 423.426 165.544 426.68 165.546C427.64 165.532 428.601 165.517 429.59 165.502C435.389 165.538 438.546 166.21 443 170C446.291 173.745 447.123 176.875 447.14 181.793C447.146 182.78 447.152 183.767 447.158 184.784C447.159 185.866 447.16 186.947 447.161 188.062C447.166 189.202 447.171 190.342 447.176 191.516C447.191 195.297 447.198 199.078 447.203 202.859C447.209 205.484 447.215 208.108 447.22 210.733C447.23 215.537 447.236 220.34 447.239 225.144C447.243 232.205 447.261 239.266 447.29 246.327C447.314 252.45 447.322 258.573 447.324 264.695C447.327 267.296 447.335 269.897 447.348 272.498C447.365 276.139 447.363 279.78 447.356 283.421C447.366 284.494 447.375 285.568 447.384 286.674C447.352 292.563 446.898 296.826 444 302C439.233 306.418 436.196 307.147 429.888 307.12C429.147 307.121 428.406 307.122 427.643 307.123C425.148 307.125 422.653 307.119 420.158 307.114C418.374 307.113 416.591 307.113 414.807 307.114C409.954 307.114 405.101 307.108 400.248 307.101C395.18 307.095 390.113 307.095 385.045 307.093C375.444 307.09 365.843 307.082 356.242 307.072C345.313 307.061 334.385 307.055 323.456 307.05C300.971 307.04 278.485 307.022 256 307C256 297.43 256 287.86 256 278C202.87 278 149.74 278 95 278C95 277.67 95 277.34 95 277C201.26 277 307.52 277 417 277C417 250.27 417 223.54 417 196C383.67 196 350.34 196 316 196C317.267 192.833 318.414 190.082 320.023 187.145C320.403 186.444 320.783 185.743 321.174 185.021C321.57 184.292 321.967 183.563 322.375 182.812C325.672 176.682 328.688 170.582 331 164Z" fill="#6AD9D2"/>
<path d="M180 163C181.563 165.344 182.642 167.294 183.735 169.844C184.226 170.973 184.226 170.973 184.727 172.125C185.395 173.676 186.062 175.228 186.727 176.781C189.494 183.131 192.643 188.845 196 195C162.67 195 129.34 195 95.0004 195C95.0004 222.39 95.0004 249.78 95.0004 278C148.13 278 201.26 278 256 278C256 287.57 256 297.14 256 307C232.391 307.139 208.783 307.246 185.173 307.311C174.211 307.342 163.249 307.384 152.287 307.453C142.732 307.512 133.178 307.551 123.623 307.565C118.564 307.572 113.505 307.591 108.446 307.634C103.683 307.675 98.9205 307.688 94.1572 307.679C92.4105 307.68 90.6637 307.692 88.9171 307.715C74.0773 307.901 74.0773 307.901 69.5315 304.27C65.8865 300.437 64.7529 296.069 64.7329 290.883C64.7244 289.876 64.7159 288.868 64.7071 287.829C64.708 286.735 64.7089 285.64 64.7098 284.512C64.7031 283.35 64.6964 282.189 64.6895 280.992C64.6705 277.152 64.6666 273.313 64.6644 269.473C64.6596 267.478 64.6548 265.484 64.6495 263.49C64.6332 257.221 64.6283 250.952 64.6298 244.683C64.631 238.224 64.6098 231.765 64.5783 225.305C64.5521 219.752 64.5414 214.199 64.5427 208.645C64.5432 205.332 64.5357 202.019 64.5163 198.705C64.4967 195.009 64.5025 191.314 64.5145 187.617C64.5033 186.525 64.492 185.432 64.4805 184.306C64.5311 178.207 64.9173 174.637 69.0004 170C72.9953 166.395 75.9019 164.873 81.2714 164.88C82.5776 164.878 82.5776 164.878 83.9101 164.876C84.8625 164.879 85.8148 164.883 86.796 164.886C87.8011 164.886 88.8061 164.886 89.8416 164.886C93.1693 164.887 96.4969 164.895 99.8246 164.902C102.13 164.904 104.435 164.906 106.74 164.907C112.811 164.91 118.882 164.92 124.953 164.931C131.147 164.942 137.34 164.946 143.534 164.951C155.689 164.962 167.845 164.979 180 165C180 164.34 180 163.68 180 163Z" fill="#6AD9D2"/>
<path d="M338.484 194.34C340.754 194.372 343.024 194.396 345.294 194.413C351.235 194.477 357.169 194.644 363.107 194.833C370.25 195.038 377.394 195.115 384.539 195.214C395.364 195.379 406.174 195.704 417 196C417 222.73 417 249.46 417 277C363.87 277 310.74 277 256 277C256 268.42 256 259.84 256 251C258.97 249.68 261.94 248.36 265 247C279.521 238.128 297.327 224.115 305.221 208.833C313.414 193.804 322.39 193.676 338.484 194.34Z" fill="#56BAB4"/>
<path d="M255.001 53C255.331 53 255.661 53 256.001 53C256.331 76.1 256.661 99.2 257.001 123C260.631 119.04 264.261 115.08 268.001 111C274.846 104.155 274.846 104.155 280.071 103.898C285.516 104.138 288.607 105.668 292.59 109.332C295.694 113.003 296.237 116 296.364 120.805C295.37 126.813 291.468 131.109 287.563 135.5C286.488 136.728 285.414 137.955 284.34 139.184C283.79 139.81 283.239 140.436 282.672 141.082C281.012 142.987 279.379 144.912 277.754 146.848C277.23 147.47 276.705 148.093 276.164 148.734C275.168 149.918 274.175 151.104 273.186 152.293C267.848 158.593 264.672 161.761 256.001 163C256.001 180.82 256.001 198.64 256.001 217C226.657 194.992 208.369 163.794 201.001 128C200.776 126.965 200.552 125.93 200.321 124.863C198.415 114.668 198.81 104.327 199.001 94C199.97 93.5385 200.939 93.077 201.938 92.6016C216.857 85.3909 230.035 77.5442 242.001 66C243.262 64.9266 244.532 63.8625 245.813 62.8125C248.849 60.2596 251.344 57.3992 253.836 54.3203C254.221 53.8846 254.605 53.4489 255.001 53Z" fill="#D4F6F4"/>
<path d="M190.702 434.88C192.51 434.883 192.51 434.883 194.356 434.886C195.019 434.886 195.682 434.886 196.366 434.886C198.568 434.887 200.77 434.895 202.973 434.902C204.496 434.904 206.019 434.906 207.542 434.907C211.558 434.91 215.574 434.92 219.591 434.931C224.406 434.943 229.221 434.948 234.036 434.954C241.357 434.964 248.678 434.983 256 435C256 456.45 256 477.9 256 500C227.252 500.121 227.252 500.121 213.052 500.151C205.372 500.167 197.693 500.189 190.013 500.226C183.283 500.259 176.553 500.277 169.822 500.285C167.254 500.29 164.685 500.301 162.117 500.317C158.521 500.339 154.925 500.342 151.329 500.341C149.735 500.357 149.735 500.357 148.108 500.373C142.658 500.35 138.672 500.143 134 497C129.328 491.823 128.652 488.606 128.715 481.766C129.211 476.953 131.538 474.285 135.062 471.188C139.419 468.518 143.882 468.782 148.824 468.684C149.685 468.663 150.547 468.642 151.434 468.621C154.185 468.555 156.936 468.496 159.687 468.438C161.553 468.394 163.418 468.351 165.283 468.307C169.855 468.2 174.427 468.098 179 468C179.237 467.036 179.474 466.072 179.718 465.078C180.596 461.512 181.479 457.948 182.363 454.383C182.745 452.838 183.127 451.293 183.506 449.747C184.052 447.53 184.602 445.314 185.152 443.098C185.322 442.403 185.492 441.708 185.667 440.992C187.155 435.038 187.155 435.038 190.702 434.88Z" fill="#6AD9D2"/>
<path d="M256 53C259.416 55.733 261.551 57.473 264.125 60.6875C268.539 65.8229 273.638 69.8916 279 74C279.535 74.4104 280.071 74.8208 280.623 75.2437C290.604 82.8208 301.227 89.5491 313 94C314.443 133.804 301.308 171.448 274.232 200.924C272.406 202.847 270.556 204.743 268.688 206.625C268.113 207.205 267.539 207.785 266.947 208.382C263.413 211.856 260.272 214.152 256 217C256 199.18 256 181.36 256 163C258.97 162.01 261.94 161.02 265 160C270.234 155.514 274.35 150.208 278.66 144.844C280.965 142.042 283.361 139.361 285.812 136.688C291.356 130.592 295.396 125.709 295.285 117.062C294.705 112.869 292.098 110.179 289.312 107.188C285.054 105 280.648 104.419 275.953 105.449C270.177 107.817 266.874 112.385 263.176 117.246C261 120 261 120 256 125C256 101.24 256 77.48 256 53Z" fill="#6AD9D2"/>
<path d="M256 435C278.77 435 301.54 435 325 435C327.64 446.22 330.28 457.44 333 469C307.59 469 282.18 469 256 469C256 457.78 256 446.56 256 435Z" fill="#56BAB4"/>
<path d="M190.702 434.88C192.51 434.883 192.51 434.883 194.356 434.886C195.019 434.886 195.682 434.886 196.366 434.886C198.568 434.887 200.77 434.895 202.973 434.902C204.496 434.904 206.019 434.906 207.542 434.907C211.558 434.91 215.575 434.92 219.591 434.931C224.406 434.943 229.221 434.948 234.036 434.954C241.357 434.964 248.679 434.983 256 435C256 446.22 256 457.44 256 469C230.59 469 205.18 469 179 469C187.234 435.034 187.234 435.034 190.702 434.88Z" fill="#6AD9D2"/>
<path d="M289.066 106.269C292.215 108.866 294.449 111.175 296 115C296.574 122.122 295.138 126.565 290.504 132.156C289.53 133.276 288.549 134.391 287.562 135.5C286.488 136.727 285.414 137.955 284.34 139.184C283.789 139.81 283.239 140.436 282.671 141.081C281.011 142.987 279.379 144.912 277.754 146.848C277.229 147.47 276.704 148.093 276.164 148.734C275.168 149.918 274.175 151.104 273.186 152.293C269.305 156.873 265.509 161.316 259.562 162.937C252.969 163.053 249.44 161.716 244.668 157.262C243.161 155.75 241.668 154.225 240.188 152.687C239.425 151.928 238.663 151.168 237.877 150.385C233.042 145.464 230.297 142.121 229.625 135.062C229.779 129.626 232.609 126.602 236.062 122.625C240.604 120.113 244.928 120.248 250 121C252.694 122.076 254.614 123.303 257 125C257.241 124.442 257.482 123.884 257.73 123.309C260.311 118.615 264.368 114.898 268 111C268.504 110.442 269.008 109.884 269.527 109.309C274.874 103.586 282.181 102.039 289.066 106.269Z" fill="#EFCA33"/>
<path d="M250 121C253.139 122.503 253.139 122.503 256 125C256.548 128.099 256.707 130.402 256.586 133.484C256.577 134.3 256.569 135.116 256.56 135.956C256.527 138.555 256.451 141.151 256.375 143.75C256.345 145.514 256.318 147.279 256.293 149.043C256.227 153.363 256.123 157.681 256 162C250.965 161.575 248.228 160.985 244.668 157.359C243.565 156.248 243.565 156.248 242.439 155.113C241.696 154.333 240.953 153.553 240.188 152.75C239.425 151.986 238.663 151.221 237.877 150.434C233.056 145.497 230.297 142.119 229.625 135.062C229.779 129.626 232.609 126.602 236.062 122.625C240.511 120.164 245.035 120.063 250 121Z" fill="#F3D940"/>
<path d="M325 223C329.859 225.297 332.635 228.178 335 233C335.825 237.686 335.477 241.029 333.375 245.313C330.052 249.073 327.502 251.562 322.414 252.453C317.38 252.757 313.909 252.524 309.938 249.25C306.411 245.835 304.712 242.561 304.625 237.625C304.767 231.843 307.369 228.878 311.062 224.625C315.61 222.11 319.924 222.268 325 223Z" fill="#EEC833"/>
<path d="M381 223C385.859 225.297 388.635 228.178 391 233C391.825 237.686 391.477 241.029 389.375 245.313C386.052 249.073 383.502 251.562 378.414 252.453C373.38 252.757 369.909 252.524 365.938 249.25C362.411 245.835 360.712 242.561 360.625 237.625C360.767 231.843 363.369 228.878 367.062 224.625C371.61 222.11 375.924 222.268 381 223Z" fill="#EEC833"/>
<path d="M197 223C201.859 225.297 204.635 228.178 207 233C207.825 237.686 207.477 241.029 205.375 245.313C202.052 249.073 199.502 251.562 194.414 252.453C189.38 252.757 185.909 252.524 181.938 249.25C178.411 245.835 176.712 242.561 176.625 237.625C176.767 231.843 179.369 228.878 183.062 224.625C187.61 222.11 191.924 222.268 197 223Z" fill="#F1D741"/>
<path d="M140.999 223C145.859 225.297 148.598 228.198 150.999 233C151.947 238.328 150.996 242.452 147.999 247C142.907 251.595 139.595 252.467 132.835 252.414C128.288 251.75 125.804 249.519 122.999 246C120.58 242.003 120.27 237.579 120.999 233C125.67 224.003 131.192 221.587 140.999 223Z" fill="#F1D841"/>
</g>
<defs>
<clipPath id="clip0_248_20">
<rect width="512" height="512" fill="white"/>
</clipPath>
</defs>
</svg>
