<svg width="512" height="512" viewBox="0 0 512 512" fill="none" xmlns="http://www.w3.org/2000/svg">
<g clip-path="url(#clip0_248_72)">
<path d="M104.641 -0.920971C105.524 -1.00579 106.407 -1.0906 107.317 -1.17799C110.288 -1.45895 113.259 -1.73179 116.231 -2.0019C117.272 -2.09697 118.314 -2.19203 119.387 -2.28997C139.716 -4.11893 160.063 -5.28274 180.454 -6.16044C183.835 -6.30643 187.215 -6.45769 190.596 -6.61226C191.268 -6.64291 191.94 -6.67355 192.633 -6.70513C202.599 -7.17133 212.488 -7.99453 222.413 -9.03218C283.061 -15.2238 330.959 -8.58685 378.645 30.2215C423.111 67.1006 455.05 109.236 461.01 167.801C464.682 207.171 462.438 246.919 459.855 286.283C458.919 300.718 458.313 315.142 457.915 329.602C457.886 330.633 457.858 331.664 457.829 332.726C457.715 336.873 457.604 341.02 457.496 345.167C456.652 377.499 455.489 409.81 453.598 442.099C453.459 444.516 453.327 446.934 453.198 449.352C452.997 453.095 452.773 456.837 452.532 460.579C452.409 462.554 452.304 464.53 452.201 466.507C451.206 480.825 446.268 492.318 435.813 502.188C428.571 508.08 419.897 512.114 410.547 512.137C409.433 512.142 408.318 512.147 407.17 512.152C405.945 512.153 404.721 512.153 403.459 512.154C402.158 512.158 400.857 512.163 399.516 512.167C395.902 512.179 392.288 512.185 388.673 512.189C384.776 512.195 380.879 512.207 376.982 512.218C367.567 512.242 358.152 512.257 348.737 512.27C346.077 512.273 343.417 512.277 340.756 512.282C324.23 512.307 307.704 512.329 291.177 512.341C287.35 512.344 283.522 512.347 279.694 512.35C278.267 512.351 278.267 512.351 276.812 512.352C261.411 512.365 246.01 512.398 230.61 512.44C214.79 512.482 198.971 512.506 183.152 512.511C174.273 512.515 165.394 512.526 156.516 512.559C148.952 512.587 141.388 512.598 133.824 512.587C129.968 512.582 126.113 512.585 122.257 512.61C118.066 512.636 113.876 512.624 109.686 512.608C108.481 512.622 107.277 512.636 106.036 512.65C92.4835 512.524 82.0572 507.623 72.3289 498.418C64.7742 490.415 60.8451 480.488 60.8638 469.641C60.8612 468.894 60.8585 468.147 60.8558 467.378C60.8481 464.861 60.8475 462.344 60.8469 459.826C60.8429 458.009 60.8385 456.192 60.8336 454.374C60.8217 449.369 60.816 444.364 60.8115 439.358C60.8055 433.964 60.7939 428.57 60.7832 423.176C60.7586 410.142 60.744 397.108 60.7311 384.074C60.7274 380.393 60.7234 376.712 60.7194 373.031C60.6941 350.173 60.6721 327.314 60.6596 304.456C60.6567 299.161 60.6537 293.865 60.6507 288.57C60.6496 286.595 60.6496 286.595 60.6485 284.581C60.6358 263.264 60.6026 241.946 60.5609 220.628C60.5185 198.743 60.4949 176.858 60.4897 154.973C60.4863 142.685 60.4745 130.397 60.4416 118.109C60.4136 107.643 60.4026 97.1767 60.4138 86.7105C60.419 81.3721 60.4161 76.0341 60.3913 70.6958C60.3688 65.8032 60.3696 60.9112 60.3885 56.0186C60.3913 54.254 60.3858 52.4894 60.3707 50.7248C60.2445 34.9464 63.4713 23.0708 74.5828 11.3282C83.0408 3.34357 93.3705 0.147532 104.641 -0.920971Z" fill="#6AD9D2"/>
<path d="M256 0C344.398 0 344.398 0 363.479 17.9361C365.253 19.5724 367.075 21.1328 368.923 22.6849C377.663 30.0338 385.831 37.8311 393.844 45.9615C395.783 47.9158 397.741 49.8486 399.705 51.7769C445.012 96.3777 462.191 139.223 462.775 202.586C462.917 230.552 461.685 258.384 459.854 286.283C458.918 300.718 458.312 315.142 457.914 329.602C457.871 331.148 457.871 331.148 457.828 332.725C457.715 336.873 457.604 341.02 457.495 345.167C456.651 377.499 455.488 409.81 453.597 442.099C453.458 444.516 453.327 446.934 453.198 449.351C452.996 453.095 452.773 456.837 452.531 460.579C452.408 462.554 452.304 464.53 452.2 466.507C451.205 480.824 446.267 492.318 435.812 502.188C428.079 508.48 419.339 512.128 409.445 512.12C408.462 512.122 408.462 512.122 407.459 512.123C405.259 512.125 403.059 512.119 400.858 512.114C399.256 512.113 397.653 512.113 396.051 512.114C391.758 512.114 387.466 512.108 383.173 512.101C379.145 512.096 375.118 512.095 371.09 512.095C359.31 512.089 347.53 512.075 335.75 512.062C309.433 512.042 283.115 512.021 256 512C256 458.54 256 405.08 256 350C269.2 350 282.4 350 296 350C306.001 362.449 306.001 362.449 307.719 367.75C309.594 373.032 311.793 377.499 314.938 382.125C315.639 383.188 316.34 384.252 317.062 385.348C323.167 393.704 332.863 399.077 343 401C354.436 402.085 364.62 399.436 373.969 392.695C382.424 385.638 388.311 376.212 389.371 365.117C389.733 352.639 387.206 342.83 379.012 333.035C372.733 326.683 364.726 321.338 355.563 320.877C352.968 320.985 350.392 321.18 347.805 321.402C317.741 323.123 317.741 323.123 309.662 317.801C304.488 311.916 301.915 304.92 299.366 297.598C297.164 291.799 293.928 286.703 290.688 281.438C289.54 279.473 288.396 277.505 287.258 275.535C285.175 271.97 283.048 268.439 280.867 264.934C280.391 264.158 279.914 263.382 279.423 262.582C278.548 261.162 277.659 259.751 276.755 258.349C274.999 255.483 274.006 253.429 273.961 250.039C275.339 246.009 277.327 242.611 279.562 239C280.472 237.489 281.381 235.977 282.289 234.465C283.192 232.976 284.096 231.488 285 230C293.011 216.771 298.951 204.904 295.309 188.977C291.788 178.458 285.594 169.49 275.945 163.785C269.448 160.632 263.238 159.67 256 158C256 105.86 256 53.72 256 0Z" fill="#56BAB4"/>
<path d="M280.906 166.25C288.946 172.97 295.035 181.525 297 192C297.17 194.163 297.266 196.331 297.312 198.5C297.369 200.186 297.369 200.186 297.426 201.906C296.768 213.207 290.478 223.069 284.875 232.563C284.138 233.831 283.403 235.1 282.668 236.369C277.591 245.113 277.591 245.113 275 249C275.249 253.825 277.843 257.718 280.188 261.813C280.626 262.589 281.065 263.366 281.516 264.167C288.782 276.984 296.234 289.7 303.785 302.352C304.388 303.364 304.991 304.376 305.612 305.419C306.767 307.356 307.926 309.29 309.089 311.222C309.604 312.084 310.118 312.947 310.648 313.836C311.104 314.594 311.559 315.353 312.029 316.134C313 318 313 318 313 320C314.311 319.979 315.622 319.958 316.972 319.937C321.874 319.864 326.775 319.818 331.677 319.78C333.791 319.76 335.905 319.733 338.02 319.698C341.073 319.649 344.126 319.627 347.18 319.609C348.112 319.589 349.045 319.568 350.006 319.547C361.142 319.543 370.793 324.317 378.941 331.777C387.824 341.159 390.492 352.087 390.277 364.621C389.777 376.203 383.853 384.525 375.688 392.25C371.442 395.889 367.251 398.149 362 400C360.36 400.619 360.36 400.619 358.688 401.25C347.8 403.464 337.903 401.939 328.234 396.422C318.688 390.076 313.543 381.975 307.938 372.125C307.339 371.087 306.74 370.05 306.123 368.98C302.69 363.017 299.342 357.016 296 351C269.6 351 243.2 351 216 351C210.72 360.24 205.44 369.48 200 379C191.724 390.38 184.75 397.947 171 401C157.239 401.963 146.61 401.005 135.625 391.813C126.538 382.988 122.014 372.588 121.625 359.938C122.012 347.916 126.977 337.429 135.75 329.125C141.768 324.226 150.368 319.596 158.265 320.16C180.922 322.581 180.922 322.581 202.168 317.086C206.818 311.983 208.805 305.794 210.834 299.294C212.823 293.674 216.008 288.804 219.125 283.75C220.29 281.761 221.45 279.768 222.605 277.773C224.821 273.984 227.075 270.222 229.363 266.477C229.883 265.613 230.403 264.75 230.939 263.86C231.909 262.252 232.891 260.652 233.889 259.062C234.316 258.348 234.743 257.634 235.184 256.898C235.561 256.287 235.938 255.675 236.326 255.044C237.652 251.024 236.36 247.743 234.573 244.059C233.975 243.052 233.378 242.045 232.762 241.008C232.106 239.89 231.451 238.773 230.775 237.621C230.08 236.455 229.384 235.29 228.688 234.125C211.976 205.905 211.976 205.905 215.652 189C219.548 177.228 226.98 168.059 237.875 162.25C252.458 155.399 267.732 156.703 280.906 166.25Z" fill="#FE7351"/>
<path d="M256 159C268.649 159 276.784 162.146 285.871 170.777C293.21 178.495 297.086 187.921 297.312 198.5C297.368 200.186 297.368 200.186 297.425 201.906C296.767 213.207 290.477 223.069 284.875 232.562C284.138 233.831 283.402 235.1 282.668 236.369C277.591 245.113 277.591 245.113 275 249C275.248 253.825 277.842 257.718 280.187 261.812C280.626 262.589 281.064 263.366 281.516 264.167C288.782 276.984 296.234 289.7 303.785 302.352C304.388 303.364 304.99 304.376 305.612 305.419C306.767 307.356 307.925 309.29 309.089 311.222C309.603 312.084 310.118 312.947 310.648 313.836C311.104 314.594 311.559 315.353 312.028 316.134C313 318 313 318 313 320C314.31 319.979 315.621 319.958 316.972 319.937C321.873 319.864 326.775 319.818 331.676 319.78C333.791 319.76 335.905 319.733 338.019 319.698C341.073 319.649 344.125 319.627 347.179 319.609C348.112 319.589 349.045 319.568 350.006 319.547C361.141 319.543 370.792 324.317 378.941 331.777C387.824 341.159 390.491 352.087 390.277 364.621C389.777 376.203 383.853 384.525 375.687 392.25C371.442 395.889 367.251 398.149 362 400C360.36 400.619 360.36 400.619 358.687 401.25C347.8 403.464 337.902 401.939 328.234 396.422C318.687 390.076 313.542 381.975 307.937 372.125C307.039 370.568 307.039 370.568 306.123 368.98C305.534 367.958 304.946 366.936 304.339 365.883C303.748 364.89 303.157 363.898 302.549 362.876C301 360 301 360 300.167 357.275C299.156 354.276 298.528 352.947 296 351C289.431 349.331 282.405 349.834 275.687 349.938C273.783 349.934 271.878 349.927 269.974 349.916C265.313 349.89 260.663 349.947 256 350C256 340.1 256 330.2 256 320C263.26 320 270.52 320 278 320C275.974 316.48 273.948 312.96 271.92 309.441C271.234 308.248 270.547 307.056 269.861 305.863C266.025 299.195 262.165 292.552 258.133 286.001C256.096 282.405 255.838 279.404 255.727 275.345C255.695 274.183 255.663 273.02 255.63 271.821C255.533 267.156 255.453 262.492 255.399 257.826C255.359 254.301 255.299 250.779 255.19 247.255C254.721 231.718 254.486 218.547 263.836 205.418C266.092 202.205 266.604 199.979 266 196C263.123 191.133 261.728 190.909 256 189C256 179.1 256 169.2 256 159Z" fill="#FE4B21"/>
<path d="M330.999 0C337.392 5.27572 343.221 11.0738 349.075 16.9307C350.179 18.0319 351.283 19.133 352.388 20.2339C355.369 23.2064 358.347 26.182 361.325 29.1586C363.185 31.0182 365.046 32.8771 366.907 34.7358C373.4 41.2194 379.89 47.7057 386.378 54.1943C392.43 60.2463 398.487 66.2927 404.546 72.3366C409.752 77.5289 414.953 82.725 420.152 87.9242C423.256 91.0284 426.361 94.1311 429.471 97.23C432.388 100.138 435.301 103.05 438.21 105.967C439.28 107.038 440.353 108.108 441.427 109.176C442.887 110.629 444.341 112.088 445.794 113.548C446.611 114.364 447.428 115.18 448.269 116.022C449.999 118 449.999 118 449.999 120C436.056 120.117 422.112 120.205 408.169 120.259C401.694 120.285 395.219 120.32 388.745 120.377C382.494 120.432 376.244 120.461 369.993 120.474C367.611 120.484 365.228 120.502 362.846 120.529C359.504 120.565 356.163 120.57 352.821 120.568C351.84 120.586 350.859 120.604 349.848 120.622C343.449 120.574 338.743 119.5 333.999 115C330.427 109.326 330.587 103.783 330.658 97.2913C330.657 95.7096 330.657 95.7096 330.657 94.0961C330.659 90.6277 330.682 87.1597 330.706 83.6914C330.711 81.28 330.716 78.8686 330.719 76.4573C330.73 70.123 330.759 63.7889 330.793 57.4547C330.823 50.9861 330.837 44.5175 330.852 38.0488C330.884 25.3658 330.935 12.6829 330.999 0Z" fill="#6AD9D2"/>
<path d="M255 282C255.66 282 256.32 282 257 282C257.688 283.209 257.688 283.209 258.389 284.443C260.112 287.471 261.836 290.497 263.561 293.523C264.304 294.826 265.046 296.13 265.787 297.434C266.86 299.321 267.935 301.208 269.012 303.094C269.359 303.702 269.706 304.311 270.064 304.938C271.975 308.27 273.947 311.547 276.02 314.781C278 318 278 318 278 320C263.48 320 248.96 320 234 320C235.527 316.182 237.086 312.882 239.082 309.324C239.986 307.711 239.986 307.711 240.908 306.064C241.537 304.95 242.165 303.836 242.812 302.688C243.429 301.585 244.046 300.482 244.682 299.346C251.663 286.918 251.663 286.918 255 282Z" fill="#56BAB4"/>
<path d="M164.01 349.902C164.996 349.906 165.982 349.909 166.998 349.912C168.03 349.92 169.063 349.929 170.127 349.937C171.687 349.944 171.687 349.944 173.279 349.951C175.853 349.963 178.428 349.979 181.002 350C179.488 353.879 177.754 357.441 175.689 361.062C175.116 362.085 174.542 363.107 173.951 364.16C171.468 367.778 169.082 370.483 164.721 371.566C160.635 371.559 158.512 371.33 155.002 369.062C152.405 365.086 151.409 361.751 152.002 357C154.85 351.628 158.147 349.869 164.01 349.902Z" fill="#6AD9D2"/>
<path d="M257.882 188.5C262.401 189.567 264.52 192.282 266.999 196C268.023 202.09 264.979 206.325 261.999 211.375C261.522 212.206 261.045 213.038 260.554 213.894C259.38 215.937 258.195 217.971 256.999 220C256.339 220 255.679 220 254.999 220C253.311 217.137 251.653 214.258 249.999 211.375C249.284 210.163 249.284 210.163 248.554 208.926C244.105 201.109 244.105 201.109 244.999 196C247.724 190.209 251.587 187.991 257.882 188.5Z" fill="#56BAB4"/>
<path d="M331 350C334.396 349.913 337.791 349.859 341.188 349.812C342.147 349.787 343.107 349.762 344.096 349.736C352.991 349.644 352.991 349.644 357 353C359.54 355.963 360.257 358.178 360.062 362C359.46 365.385 358.82 366.21 356.438 369C351.961 371.604 350.106 371.729 345 371C340.066 367.926 337.849 363.795 335.188 358.812C334.781 358.076 334.374 357.339 333.955 356.58C331 351.181 331 351.181 331 350Z" fill="#BDDEEE"/>
<path d="M256 282C258.932 285.665 261.097 288.713 263.312 292.746C263.913 293.831 264.514 294.916 265.133 296.033C265.749 297.157 266.365 298.28 267 299.438C271.449 307.711 271.449 307.711 276.438 315.66C278 318 278 318 278 320C270.74 320 263.48 320 256 320C256 307.46 256 294.92 256 282Z" fill="#BEDDEC"/>
<path d="M256 189C262 190 262 190 264.875 192.688C267.332 196.517 267.586 197.557 267 202C265.575 205.27 263.811 208.306 262 211.375C261.523 212.206 261.046 213.038 260.555 213.895C259.381 215.937 258.196 217.971 257 220C256.67 220 256.34 220 256 220C256 209.77 256 199.54 256 189Z" fill="#BEDCEC"/>
</g>
<defs>
<clipPath id="clip0_248_72">
<rect width="512" height="512" fill="white"/>
</clipPath>
</defs>
</svg>
