<svg width="512" height="512" viewBox="0 0 512 512" fill="none" xmlns="http://www.w3.org/2000/svg">
<g clip-path="url(#clip0_248_104)">
<path d="M82.8256 45.3651C84.3868 45.3593 85.9479 45.3514 87.509 45.3415C91.7645 45.3207 96.0195 45.3308 100.275 45.3464C104.878 45.3578 109.48 45.3402 114.083 45.3265C123.086 45.3043 132.089 45.309 141.092 45.3236C148.412 45.3349 155.732 45.3364 163.051 45.3309C164.617 45.3298 164.617 45.3298 166.214 45.3286C168.334 45.327 170.454 45.3254 172.575 45.3238C192.436 45.3095 212.297 45.3259 232.158 45.3528C249.183 45.3751 266.209 45.3712 283.234 45.3482C303.026 45.3214 322.818 45.3109 342.611 45.3262C344.723 45.3278 346.835 45.3294 348.947 45.3309C350.506 45.3321 350.506 45.3321 352.096 45.3333C359.404 45.3376 366.711 45.3303 374.018 45.3185C382.929 45.3045 391.839 45.3084 400.75 45.3349C405.292 45.348 409.834 45.3533 414.377 45.3367C418.542 45.3217 422.706 45.3301 426.871 45.3566C428.371 45.3621 429.871 45.3594 431.371 45.3472C445.888 45.2382 458.137 49.0345 468.999 59C483.781 75.8469 483.296 93.6956 483.227 114.944C483.226 117.37 483.226 119.795 483.227 122.221C483.228 127.423 483.222 132.625 483.211 137.827C483.195 145.348 483.189 152.869 483.187 160.391C483.183 172.596 483.169 184.802 483.15 197.008C483.132 208.857 483.118 220.707 483.109 232.557C483.109 233.288 483.108 234.02 483.108 234.774C483.105 238.445 483.103 242.115 483.1 245.786C483.079 276.191 483.044 306.595 482.999 337C484.171 336.981 485.342 336.962 486.549 336.943C488.099 336.928 489.649 336.913 491.199 336.898C491.969 336.885 492.74 336.871 493.534 336.857C499.448 336.816 503.136 337.376 507.999 341C511.625 345.507 512.503 348.522 512.517 354.268C512.528 355.32 512.528 355.32 512.538 356.394C512.556 358.702 512.544 361.009 512.531 363.316C512.533 364.936 512.537 366.555 512.542 368.175C512.548 371.568 512.54 374.961 512.521 378.355C512.498 382.669 512.511 386.983 512.535 391.298C512.55 394.645 512.545 397.992 512.535 401.339C512.532 402.927 512.535 404.516 512.545 406.104C512.626 423.631 508.528 437.718 496.382 450.645C485.905 461.002 473.395 467.241 458.492 467.257C457.778 467.261 457.063 467.264 456.327 467.268C453.945 467.277 451.562 467.272 449.18 467.267C447.45 467.271 445.72 467.276 443.99 467.281C439.244 467.293 434.499 467.293 429.753 467.291C424.632 467.29 419.51 467.301 414.389 467.311C404.358 467.327 394.327 467.333 384.296 467.334C376.141 467.335 367.985 467.339 359.83 467.346C336.702 467.363 313.573 467.372 290.444 467.371C289.198 467.371 287.951 467.371 286.667 467.371C284.795 467.37 284.795 467.37 282.885 467.37C262.66 467.37 242.436 467.389 222.211 467.417C201.438 467.446 180.664 467.459 159.891 467.458C148.231 467.457 136.572 467.462 124.912 467.484C114.984 467.502 105.056 467.507 95.1276 467.493C90.0647 467.487 85.002 467.486 79.9391 467.504C75.2984 467.52 70.6581 467.517 66.0173 467.499C64.3444 467.496 62.6714 467.5 60.9985 467.511C43.5092 467.62 28.5808 463.524 15.6245 451.188C5.76251 440.741 -0.0673098 428.127 -0.177536 413.735C-0.184107 413.022 -0.190678 412.309 -0.197449 411.574C-0.217074 409.228 -0.228817 406.882 -0.238815 404.535C-0.242891 403.731 -0.246968 402.926 -0.251167 402.098C-0.271978 397.844 -0.286302 393.59 -0.2957 389.336C-0.306781 384.95 -0.341216 380.565 -0.380875 376.179C-0.407041 372.798 -0.415394 369.417 -0.418983 366.036C-0.423846 364.419 -0.435446 362.803 -0.454018 361.186C-0.478421 358.922 -0.477445 356.659 -0.470505 354.395C-0.476371 353.109 -0.482237 351.822 -0.488281 350.497C0.0901016 346.35 1.38591 344.236 3.99947 341C9.5572 336.859 14.1072 336.78 20.8002 336.898C21.9839 336.909 21.9839 336.909 23.1915 336.921C25.1276 336.94 27.0635 336.969 28.9995 337C28.9976 335.743 28.9958 334.486 28.9939 333.192C28.9505 303.326 28.9176 273.461 28.8973 243.596C28.8948 239.916 28.8922 236.236 28.8896 232.557C28.8891 231.824 28.8886 231.092 28.888 230.337C28.8793 218.492 28.8636 206.647 28.8452 194.802C28.8264 182.638 28.8153 170.475 28.8113 158.311C28.8086 150.812 28.7999 143.313 28.7836 135.814C28.7718 130.053 28.7706 124.293 28.7733 118.532C28.7727 116.176 28.7687 113.821 28.7611 111.465C28.6441 73.7748 28.6441 73.7748 42.2963 59.5117C54.3738 48.7916 66.951 45.2359 82.8256 45.3651Z" fill="#ECEFF4"/>
<path d="M20.5828 336.497C21.4135 336.491 22.2443 336.485 23.1002 336.479C25.8785 336.464 28.6558 336.478 31.434 336.492C33.4481 336.487 35.4623 336.481 37.4764 336.473C43.0069 336.456 48.5372 336.465 54.0677 336.477C60.0337 336.486 65.9997 336.472 71.9657 336.461C82.976 336.444 93.9863 336.446 104.997 336.457C115.168 336.467 125.34 336.47 135.512 336.465C136.187 336.464 136.861 336.464 137.557 336.464C140.296 336.463 143.035 336.461 145.775 336.46C171.47 336.448 197.165 336.459 222.86 336.48C245.687 336.499 268.513 336.498 291.339 336.479C316.988 336.457 342.636 336.449 368.284 336.461C371.018 336.462 373.753 336.464 376.487 336.465C377.16 336.465 377.834 336.465 378.527 336.466C388.692 336.47 398.857 336.465 409.023 336.455C420.581 336.443 432.14 336.447 443.698 336.468C449.597 336.479 455.496 336.483 461.394 336.469C466.793 336.457 472.191 336.464 477.589 336.485C479.544 336.49 481.498 336.487 483.452 336.478C486.107 336.466 488.761 336.478 491.416 336.497C492.176 336.487 492.935 336.478 493.718 336.468C499.184 336.545 503.437 337.947 507.999 341C511.837 345.348 512.503 348.547 512.517 354.268C512.528 355.321 512.528 355.321 512.538 356.394C512.556 358.702 512.544 361.009 512.531 363.316C512.533 364.936 512.537 366.555 512.542 368.175C512.548 371.568 512.54 374.961 512.521 378.355C512.498 382.67 512.511 386.983 512.535 391.298C512.55 394.645 512.545 397.992 512.535 401.339C512.532 402.927 512.535 404.516 512.545 406.104C512.626 423.631 508.528 437.718 496.382 450.645C485.905 461.002 473.395 467.241 458.492 467.257C457.778 467.261 457.063 467.264 456.327 467.268C453.945 467.277 451.563 467.272 449.18 467.267C447.45 467.271 445.72 467.276 443.99 467.281C439.244 467.293 434.499 467.293 429.753 467.291C424.632 467.29 419.51 467.301 414.389 467.311C404.358 467.328 394.327 467.333 384.296 467.334C376.141 467.335 367.985 467.339 359.83 467.346C336.702 467.363 313.573 467.372 290.444 467.371C289.198 467.371 287.951 467.371 286.667 467.371C284.795 467.371 284.795 467.371 282.885 467.37C262.66 467.37 242.436 467.389 222.211 467.417C201.438 467.446 180.664 467.459 159.891 467.458C148.231 467.457 136.572 467.463 124.912 467.484C114.984 467.502 105.056 467.507 95.1276 467.493C90.0647 467.487 85.002 467.486 79.9391 467.504C75.2984 467.52 70.6581 467.517 66.0173 467.499C64.3444 467.496 62.6714 467.5 60.9985 467.511C43.5092 467.62 28.5808 463.524 15.6245 451.188C5.76251 440.741 -0.0673098 428.127 -0.177536 413.735C-0.184107 413.022 -0.190678 412.309 -0.197449 411.574C-0.217074 409.228 -0.228817 406.882 -0.238815 404.535C-0.242891 403.731 -0.246966 402.927 -0.251165 402.098C-0.271976 397.844 -0.286302 393.59 -0.2957 389.336C-0.306781 384.95 -0.341213 380.565 -0.380871 376.179C-0.407037 372.798 -0.415392 369.417 -0.418982 366.036C-0.423844 364.419 -0.435448 362.803 -0.45402 361.186C-0.478423 358.922 -0.477445 356.659 -0.470505 354.395C-0.476371 353.109 -0.482237 351.822 -0.488281 350.497C0.110105 346.207 1.12594 344.242 3.99947 341C9.38737 337.398 14.2043 336.418 20.5828 336.497Z" fill="#56BAB4"/>
<path d="M254 46C301.374 45.7985 301.374 45.7985 321.26 45.7558C334.978 45.7262 348.697 45.6914 362.415 45.6228C372.407 45.5728 382.399 45.5407 392.392 45.5295C397.679 45.523 402.966 45.5078 408.253 45.4713C413.238 45.4372 418.222 45.427 423.207 45.4344C425.029 45.4331 426.85 45.4232 428.672 45.4039C444.276 45.2468 457.085 48.0689 469 59C483.71 75.7654 483.297 93.7325 483.243 114.928C483.244 117.352 483.246 119.776 483.249 122.2C483.253 128.074 483.248 133.948 483.239 139.822C483.228 146.665 483.229 153.507 483.229 160.349C483.229 172.55 483.22 184.752 483.206 196.953C483.192 208.796 483.185 220.638 483.185 232.481C483.185 233.212 483.185 233.943 483.185 234.697C483.185 235.426 483.186 236.156 483.186 236.908C483.186 250.4 483.18 263.893 483.171 277.385C483.168 282.158 483.167 286.93 483.167 291.703C483.166 298.112 483.16 304.522 483.15 310.932C483.147 313.29 483.146 315.649 483.146 318.008C483.147 321.212 483.141 324.417 483.134 327.621C483.135 328.567 483.137 329.514 483.138 330.488C483.114 336.886 483.114 336.886 482 338C480.612 338.098 479.219 338.126 477.827 338.127C476.923 338.13 476.019 338.133 475.088 338.135C474.084 338.133 473.08 338.131 472.046 338.129C470.991 338.131 469.935 338.133 468.847 338.135C465.291 338.139 461.735 338.136 458.18 338.133C455.657 338.134 453.135 338.135 450.613 338.137C444.493 338.139 438.374 338.136 432.254 338.131C427.308 338.126 422.363 338.123 417.417 338.122C362.941 338.106 308.473 337.657 254 337C254 311.59 254 286.18 254 260C274 259.75 274 259.75 280.266 259.702C281.927 259.673 283.589 259.642 285.25 259.609C286.094 259.608 286.939 259.607 287.809 259.606C293.657 259.467 298.087 258.247 303 255C306.678 251.084 307.274 247.323 307.234 242C306.903 239.173 305.62 237.295 304 235C304 234.34 304 233.68 304 233C303.216 232.691 302.433 232.381 301.625 232.062C299 231 299 231 297 230C294.999 229.88 292.994 229.823 290.99 229.795C289.729 229.775 288.467 229.755 287.168 229.734C285.787 229.717 284.405 229.7 283.023 229.684C281.614 229.663 280.204 229.642 278.795 229.621C275.083 229.565 271.37 229.516 267.658 229.468C263.871 229.418 260.084 229.362 256.297 229.307C248.865 229.199 241.432 229.098 234 229C234 224.05 234 219.1 234 214C235.15 213.985 236.3 213.971 237.485 213.956C241.768 213.898 246.05 213.82 250.333 213.738C252.184 213.704 254.034 213.676 255.885 213.654C258.551 213.62 261.217 213.568 263.883 213.512C265.116 213.502 265.116 213.502 266.374 213.492C271.3 213.367 274.724 212.698 279 210C282.404 206.32 283.869 203.735 284.25 198.687C283.889 193.362 282.415 190.309 278.5 186.687C273.917 183.594 269.518 183.79 264.176 183.684C263.314 183.663 262.453 183.642 261.565 183.621C258.815 183.555 256.064 183.496 253.312 183.437C251.447 183.394 249.582 183.351 247.717 183.307C243.145 183.2 238.572 183.098 234 183C234 178.05 234 173.1 234 168C235.872 167.991 237.744 167.981 239.672 167.972C245.875 167.936 252.077 167.882 258.28 167.816C262.038 167.777 265.797 167.744 269.555 167.729C273.187 167.714 276.817 167.679 280.448 167.632C281.83 167.617 283.211 167.609 284.593 167.608C295.025 167.674 295.025 167.674 304 163C306.703 159.163 307.55 155.742 307.352 151.023C306.708 147.32 305.215 145.053 303 142C288.663 133.398 269.716 138.371 253 138C253.33 107.64 253.66 77.28 254 46Z" fill="#D7DBEA"/>
<path d="M22.1108 336.519C23.1018 336.516 24.0927 336.512 25.1137 336.509C28.4197 336.502 31.7248 336.524 35.0307 336.546C37.4062 336.547 39.7818 336.546 42.1573 336.544C48.5968 336.543 55.0361 336.566 61.4755 336.594C67.5262 336.619 73.5769 336.621 79.6277 336.625C91.6083 336.634 103.589 336.66 115.569 336.698C127.204 336.735 138.838 336.763 150.473 336.78C151.19 336.781 151.908 336.782 152.648 336.783C156.249 336.789 159.85 336.794 163.451 336.799C193.3 336.84 223.15 336.911 252.999 337C252.999 337.33 252.999 337.66 252.999 338C220.659 338 188.319 338 154.999 338C155.082 346.539 155.164 355.078 155.249 363.875C155.265 366.551 155.281 369.227 155.297 371.984C155.327 374.133 155.358 376.281 155.39 378.43C155.392 380.069 155.392 380.069 155.394 381.742C155.583 391.993 158.206 400.419 165.535 407.8C174.958 416.213 185.164 416.88 197.14 416.805C198.76 416.816 200.379 416.83 201.999 416.846C206.22 416.882 210.442 416.883 214.663 416.876C219.751 416.874 224.838 416.918 229.925 416.954C237.617 417.003 245.307 416.996 252.999 417C252.999 433.5 252.999 450 252.999 467C226.235 467.09 199.47 467.164 172.705 467.207C160.276 467.228 147.848 467.256 135.42 467.302C124.584 467.342 113.748 467.367 102.912 467.376C97.178 467.382 91.4438 467.394 85.7095 467.423C80.3046 467.45 74.9 467.458 69.495 467.452C67.5186 467.454 65.5422 467.461 63.5658 467.477C44.9945 467.615 29.6252 464.519 15.6245 451.188C5.76251 440.741 -0.0673098 428.127 -0.177536 413.735C-0.184107 413.022 -0.190678 412.309 -0.197449 411.574C-0.217074 409.228 -0.228817 406.882 -0.238815 404.535C-0.242891 403.731 -0.246966 402.926 -0.251165 402.098C-0.271976 397.844 -0.286302 393.59 -0.2957 389.336C-0.306781 384.95 -0.341213 380.565 -0.380871 376.179C-0.407037 372.798 -0.415392 369.417 -0.418982 366.036C-0.423844 364.419 -0.435448 362.803 -0.45402 361.186C-0.478423 358.922 -0.477445 356.659 -0.470505 354.395C-0.476371 353.109 -0.482237 351.822 -0.488281 350.497C0.110105 346.207 1.12594 344.242 3.99947 341C9.81726 336.98 15.1991 336.431 22.1108 336.519Z" fill="#6AD9D2"/>
<path d="M388 140C388.807 140.257 389.614 140.513 390.445 140.777C396.932 143.088 401.85 146.475 407 151C407.926 151.785 407.926 151.785 408.871 152.586C417.688 160.637 423.463 172.056 424.267 183.953C424.38 187.726 424.377 191.495 424.336 195.269C424.312 197.627 424.316 199.985 424.322 202.344C424.317 203.867 424.31 205.391 424.301 206.914C424.302 207.607 424.303 208.3 424.303 209.014C424.123 221.66 419.242 232.62 411 242C410.426 242.691 409.853 243.382 409.262 244.094C401.003 253.29 388.575 258.667 376.301 259.371C359.33 259.788 346.841 255.372 334.25 243.688C324.907 233.839 319.908 220.929 319.762 207.496C319.754 206.777 319.746 206.058 319.737 205.317C319.723 203.797 319.713 202.276 319.705 200.756C319.693 199.223 319.673 197.69 319.643 196.157C319.309 178.875 323.521 165.182 335.547 152.359C349.477 138.961 369.404 133.86 388 140Z" fill="#6AD9D2"/>
<path d="M222.298 137.482C223.514 137.472 223.514 137.472 224.754 137.461C227.42 137.444 230.085 137.455 232.751 137.469C234.611 137.466 236.472 137.462 238.332 137.457C242.226 137.451 246.119 137.46 250.013 137.479C254.996 137.501 259.979 137.488 264.962 137.464C268.802 137.45 272.642 137.454 276.482 137.465C278.319 137.467 280.156 137.464 281.994 137.455C284.564 137.445 287.134 137.46 289.704 137.482C290.459 137.474 291.213 137.466 291.99 137.458C297.127 137.54 300.022 138.799 304.001 142C307.304 145.709 308.733 149.934 308.45 154.945C307.599 158.839 305.742 162.125 303.001 165C298.671 167.547 295.54 168.371 290.537 168.341C289.276 168.34 288.015 168.34 286.716 168.34C285.355 168.325 283.994 168.309 282.634 168.293C281.23 168.287 279.826 168.283 278.422 168.28C274.743 168.269 271.064 168.239 267.385 168.206C263.624 168.175 259.863 168.162 256.103 168.147C248.735 168.114 241.368 168.062 234.001 168C234.001 172.95 234.001 177.9 234.001 183C235.151 182.984 236.301 182.969 237.486 182.952C241.768 182.898 246.051 182.864 250.334 182.835C252.185 182.82 254.035 182.8 255.886 182.774C258.552 182.737 261.217 182.72 263.884 182.707C264.706 182.692 265.528 182.676 266.375 182.66C272.025 182.659 276.31 183.546 280.646 187.5C284.511 192.464 285.427 195.718 285.001 202C283.108 207.259 280.403 209.79 276.001 213C272.053 214.316 268.29 214.123 264.177 214.098C263.315 214.096 262.454 214.095 261.566 214.093C258.815 214.088 256.064 214.075 253.313 214.063C251.448 214.058 249.583 214.053 247.718 214.049C243.145 214.038 238.573 214.021 234.001 214C234.001 218.95 234.001 223.9 234.001 229C235.873 228.979 237.745 228.958 239.673 228.937C245.876 228.872 252.078 228.826 258.281 228.793C262.04 228.772 265.798 228.744 269.556 228.698C273.187 228.655 276.818 228.631 280.449 228.621C281.831 228.613 283.212 228.599 284.594 228.577C298.007 228.375 298.007 228.375 304.001 233C306.996 236.153 308.241 239.751 308.438 244.063C307.844 249.417 306.547 252.536 302.626 256.25C297.569 259.621 293.29 260.298 287.292 260.291C286.532 260.297 285.772 260.304 284.989 260.311C282.485 260.33 279.982 260.334 277.478 260.336C275.73 260.342 273.983 260.349 272.236 260.356C268.576 260.368 264.916 260.372 261.256 260.371C256.576 260.37 251.897 260.398 247.218 260.432C243.609 260.454 240.001 260.458 236.393 260.457C234.668 260.46 232.943 260.469 231.219 260.484C228.801 260.504 226.386 260.498 223.968 260.486C223.263 260.497 222.557 260.508 221.83 260.52C216.394 260.452 213.394 258.97 209.001 256C205.406 252.121 203.885 249.154 203.854 243.883C203.847 243.046 203.839 242.21 203.832 241.347C203.829 240.432 203.827 239.518 203.824 238.575C203.817 237.609 203.811 236.643 203.804 235.647C203.784 232.446 203.773 229.244 203.763 226.043C203.759 224.95 203.755 223.857 203.75 222.731C203.729 216.947 203.715 211.163 203.706 205.379C203.695 199.403 203.66 193.428 203.621 187.453C203.595 182.859 203.586 178.265 203.583 173.671C203.578 171.468 203.566 169.265 203.547 167.062C203.523 163.979 203.524 160.897 203.531 157.813C203.518 156.904 203.505 155.996 203.492 155.059C203.537 149.555 204.2 146.273 208.001 142C212.594 138.06 216.427 137.419 222.298 137.482Z" fill="#56BAB4"/>
<path d="M120.937 139.839C122.159 139.829 123.381 139.82 124.639 139.81C125.975 139.805 127.31 139.801 128.645 139.797C130.016 139.791 131.388 139.785 132.759 139.78C135.635 139.769 138.511 139.763 141.386 139.76C145.062 139.754 148.737 139.73 152.412 139.702C155.245 139.683 158.079 139.678 160.913 139.676C162.923 139.672 164.934 139.653 166.945 139.635C168.176 139.638 169.407 139.641 170.675 139.644C171.755 139.64 172.834 139.636 173.945 139.633C178.784 140.215 182.021 141.941 185.313 145.5C188.207 149.788 188.642 153.946 188 159C186.668 163.21 184.52 166.039 180.638 168.172C175.031 170.817 169.385 170.547 163.293 170.504C161.49 170.518 161.49 170.518 159.65 170.533C155.829 170.561 152.009 170.564 148.188 170.563C144.349 170.566 140.511 170.576 136.672 170.603C134.289 170.62 131.905 170.623 129.521 170.61C128.446 170.617 127.371 170.624 126.263 170.631C125.317 170.63 124.37 170.629 123.395 170.628C120.949 170.815 120.949 170.815 119.187 172.367C117.522 174.658 117.723 176.229 118 179C118.33 179.99 118.66 180.98 119 182C120.058 182.009 121.116 182.019 122.206 182.028C126.188 182.069 130.168 182.135 134.149 182.208C135.862 182.236 137.574 182.257 139.287 182.271C154.445 182.404 166.41 184.052 177.868 194.742C184.696 201.805 188.222 210.127 188.625 219.938C188.14 231.217 184.122 239.939 176.266 247.977C173.276 250.647 170.645 252.313 167 254C165.804 254.557 164.608 255.114 163.375 255.688C158.641 257.529 154.466 258.125 149.403 258.177C148.305 258.19 147.207 258.203 146.075 258.216C144.31 258.227 144.31 258.227 142.508 258.238C141.289 258.246 140.07 258.254 138.813 258.263C136.236 258.277 133.659 258.287 131.082 258.295C127.147 258.312 123.213 258.356 119.278 258.4C116.771 258.411 114.265 258.419 111.758 258.426C110.585 258.443 109.412 258.461 108.203 258.479C101.56 258.461 97.374 258.021 92.0004 254C87.9012 249.577 86.6299 246.144 86.7192 240.059C87.3489 235.449 90.2716 232.642 93.6254 229.688C97.1667 227.171 99.0241 226.868 103.336 226.826C104.451 226.813 105.565 226.799 106.714 226.786C108.526 226.77 108.526 226.77 110.375 226.754C112.912 226.721 115.448 226.688 117.985 226.654C122.001 226.607 126.017 226.562 130.034 226.523C133.898 226.484 137.762 226.432 141.625 226.379C142.834 226.371 144.042 226.362 145.287 226.353C146.402 226.337 147.516 226.32 148.665 226.303C149.649 226.293 150.633 226.282 151.647 226.272C154.19 226.225 154.19 226.225 156 224C156.334 220.5 156.334 220.5 156 217C153.497 214.496 151.983 214.758 148.567 214.724C147.825 214.725 147.082 214.726 146.317 214.727C144.733 214.706 143.149 214.685 141.565 214.664C139.077 214.642 136.589 214.625 134.101 214.619C120.342 214.564 108.955 213.386 98.3754 203.563C92.1264 196.82 87.626 190.383 87.0004 181C86.9257 180.114 86.8509 179.229 86.7739 178.316C86.2548 167.811 89.4074 159.682 96.1254 151.625C102.866 144.602 111.136 139.901 120.937 139.839Z" fill="#56BAB4"/>
<path d="M254 338C287.99 338 321.98 338 357 338C357.083 346.539 357.165 355.078 357.25 363.875C357.286 366.551 357.323 369.227 357.36 371.984C357.372 374.132 357.382 376.281 357.391 378.43C357.411 379.523 357.432 380.616 357.453 381.742C357.457 391.125 355.393 399.13 349 406.25C348.34 407.018 347.68 407.787 347 408.578C336.378 417.153 326.799 417.839 313.766 417.586C312.229 417.577 310.692 417.571 309.156 417.568C303.52 417.536 297.885 417.453 292.25 417.375C279.627 417.251 267.005 417.127 254 417C254 390.93 254 364.86 254 338Z" fill="#6AD9D2"/>
<path d="M383.254 170.809C388.537 174.413 391.957 178.949 394.001 185C394.595 189.47 394.605 193.871 394.563 198.375C394.599 200.127 394.599 200.127 394.635 201.914C394.622 209.66 393.497 215.582 389.001 222C386.649 224.254 386.649 224.254 384.376 225.562C383.62 226.018 382.865 226.473 382.086 226.941C376.872 229.588 371.727 229.682 366.001 229C360.24 226.808 355.171 222.27 352.001 217C349.537 210.63 349.633 204.33 349.626 197.562C349.601 196.469 349.577 195.375 349.551 194.248C349.523 186.283 350.667 180.804 355.965 174.758C364.374 167.798 373.16 164.979 383.254 170.809Z" fill="#D6DBE9"/>
<path d="M253 229C259.139 228.908 265.275 228.828 271.414 228.78C273.501 228.76 275.587 228.733 277.673 228.698C280.679 228.65 283.685 228.627 286.691 228.609C287.618 228.589 288.544 228.568 289.498 228.547C295.546 228.545 299.032 229.504 304 233C306.995 236.153 308.24 239.751 308.438 244.063C307.843 249.417 306.546 252.536 302.625 256.25C297.517 259.656 293.237 260.288 287.18 260.227C286.409 260.227 285.638 260.228 284.843 260.228C282.306 260.227 279.768 260.211 277.23 260.195C275.466 260.192 273.702 260.189 271.938 260.187C267.304 260.179 262.67 260.16 258.035 260.137C253.303 260.117 248.57 260.108 243.838 260.098C234.559 260.076 225.279 260.042 216 260C216 259.67 216 259.34 216 259C228.21 259 240.42 259 253 259C253 249.1 253 239.2 253 229Z" fill="#6AD9D2"/>
<path d="M254 138C260.157 137.908 266.312 137.828 272.469 137.78C274.562 137.76 276.656 137.733 278.749 137.698C281.762 137.65 284.775 137.627 287.789 137.609C288.721 137.589 289.652 137.568 290.612 137.547C296.412 137.545 299.539 138.221 304 142C307.303 145.709 308.732 149.934 308.449 154.945C307.353 159.961 304.825 163.829 300.52 166.592C295.888 168.445 291.945 168.377 287.008 168.293C286.062 168.289 285.116 168.285 284.141 168.28C281.136 168.263 278.131 168.226 275.125 168.188C273.081 168.173 271.036 168.159 268.992 168.147C263.994 168.116 258.998 168.057 254 168C254 158.1 254 148.2 254 138Z" fill="#6AD9D2"/>
<path d="M254 184C257.486 183.876 260.971 183.753 264.562 183.625C265.647 183.57 266.732 183.516 267.85 183.46C272.884 183.373 276.178 183.556 280.125 186.871C283.753 190.468 284.849 193.341 285.312 198.438C284.845 203.77 283.159 206.719 279.594 210.66C275.154 214.261 270.062 213.539 264.625 213.313C259.366 213.158 259.366 213.158 254 213C254 203.43 254 193.86 254 184Z" fill="#6AD9D2"/>
<path d="M234 214C240.27 214 246.54 214 253 214C253 218.95 253 223.9 253 229C246.73 229 240.46 229 234 229C234 224.05 234 219.1 234 214Z" fill="#EDEFF4"/>
<path d="M234 168C240.27 168 246.54 168 253 168C253 172.95 253 177.9 253 183C246.73 183 240.46 183 234 183C234 178.05 234 173.1 234 168Z" fill="#EDEFF3"/>
</g>
<defs>
<clipPath id="clip0_248_104">
<rect width="512" height="512" fill="white"/>
</clipPath>
</defs>
</svg>
