<svg width="512" height="512" viewBox="0 0 512 512" fill="none" xmlns="http://www.w3.org/2000/svg">
<g clip-path="url(#clip0_248_147)">
<path d="M69.6281 -0.394412C71.3009 -0.399307 72.9736 -0.4055 74.6464 -0.412869C79.2197 -0.429208 83.7929 -0.426963 88.3663 -0.421494C93.3078 -0.418817 98.2493 -0.43337 103.191 -0.445589C112.864 -0.466615 122.536 -0.471186 132.209 -0.469402C140.075 -0.468092 147.94 -0.471906 155.806 -0.479327C158.075 -0.481426 160.343 -0.483524 162.611 -0.485619C163.74 -0.486663 164.87 -0.487707 166.033 -0.488782C187.375 -0.507673 208.718 -0.506637 230.06 -0.499812C249.565 -0.494239 269.069 -0.515056 288.574 -0.548173C308.621 -0.581946 328.667 -0.597074 348.714 -0.592456C359.961 -0.590215 371.208 -0.595403 382.455 -0.620348C392.031 -0.641408 401.607 -0.644907 411.183 -0.626049C416.064 -0.616919 420.945 -0.615662 425.826 -0.636404C430.304 -0.655223 434.781 -0.65049 439.259 -0.627859C440.87 -0.6237 442.48 -0.627779 444.09 -0.641455C464.52 -0.802988 480.298 5.57204 495 20C495.639 20.6149 496.278 21.2298 496.937 21.8633C509.624 35.0886 512.458 52.0466 512.394 69.6285C512.399 71.3012 512.405 72.974 512.412 74.6467C512.429 79.2201 512.427 83.7933 512.421 88.3666C512.418 93.3082 512.433 98.2497 512.445 103.191C512.466 112.864 512.471 122.537 512.469 132.209C512.468 140.075 512.472 147.941 512.479 155.807C512.481 158.075 512.483 160.343 512.485 162.612C512.487 164.305 512.487 164.305 512.488 166.033C512.507 187.376 512.506 208.718 512.499 230.061C512.494 249.565 512.515 269.07 512.548 288.574C512.582 308.621 512.597 328.668 512.592 348.715C512.59 359.961 512.595 371.208 512.62 382.455C512.641 392.031 512.645 401.607 512.626 411.184C512.617 416.065 512.615 420.945 512.636 425.826C512.655 430.304 512.65 434.782 512.628 439.26C512.623 440.87 512.627 442.48 512.641 444.091C512.803 464.521 506.428 480.299 492 495C491.385 495.639 490.77 496.279 490.136 496.938C476.911 509.625 459.953 512.458 442.371 512.394C440.698 512.399 439.026 512.405 437.353 512.413C432.78 512.429 428.206 512.427 423.633 512.422C418.691 512.419 413.75 512.433 408.808 512.446C399.136 512.467 389.463 512.471 379.79 512.469C371.925 512.468 364.059 512.472 356.193 512.479C353.925 512.481 351.656 512.483 349.388 512.486C347.694 512.487 347.694 512.487 345.966 512.489C324.624 512.508 303.281 512.507 281.939 512.5C262.434 512.494 242.93 512.515 223.426 512.548C203.379 512.582 183.332 512.597 163.285 512.592C152.038 512.59 140.791 512.595 129.545 512.62C119.968 512.641 110.392 512.645 100.816 512.626C95.935 512.617 91.0543 512.616 86.1733 512.636C81.6953 512.655 77.2179 512.651 72.7399 512.628C71.1296 512.624 69.5192 512.628 67.909 512.641C47.4791 512.803 31.7008 506.428 16.9996 492C16.0406 491.078 16.0406 491.078 15.0621 490.137C2.37488 476.911 -0.458777 459.953 -0.394776 442.372C-0.399672 440.699 -0.405862 439.026 -0.413232 437.353C-0.429571 432.78 -0.42733 428.207 -0.421861 423.633C-0.419183 418.692 -0.433735 413.75 -0.445954 408.809C-0.46698 399.136 -0.47155 389.463 -0.469766 379.791C-0.468457 371.925 -0.472271 364.059 -0.479692 356.193C-0.481791 353.925 -0.48389 351.657 -0.485986 349.388C-0.487029 348.259 -0.488069 347.13 -0.489144 345.967C-0.508036 324.624 -0.507002 303.282 -0.500177 281.939C-0.494603 262.435 -0.515422 242.93 -0.548539 223.426C-0.582312 203.379 -0.597438 183.332 -0.59282 163.285C-0.590579 152.039 -0.595768 140.792 -0.620713 129.545C-0.641773 119.969 -0.645271 110.393 -0.626413 100.816C-0.617283 95.9354 -0.616031 91.0547 -0.636773 86.1737C-0.655592 81.6956 -0.650852 77.2183 -0.628221 72.7402C-0.624062 71.1299 -0.628141 69.5196 -0.641816 67.9093C-0.80335 47.4795 5.57167 31.7011 19.9996 17C20.6145 16.3606 21.2294 15.7212 21.8629 15.0625C35.0882 2.37525 52.0463 -0.458412 69.6281 -0.394412Z" fill="#A6E6E2"/>
<path d="M115.186 196.365C117.062 196.353 117.062 196.353 118.975 196.341C122.443 196.321 125.911 196.331 129.379 196.346C133.12 196.358 136.861 196.34 140.602 196.326C147.93 196.304 155.257 196.309 162.585 196.324C168.54 196.335 174.494 196.336 180.449 196.331C181.296 196.33 182.143 196.329 183.016 196.329C184.737 196.327 186.458 196.325 188.179 196.324C204.32 196.309 220.461 196.326 236.602 196.353C250.455 196.375 264.308 196.371 278.162 196.348C294.245 196.321 310.328 196.311 326.41 196.326C328.125 196.328 329.84 196.329 331.554 196.331C332.82 196.332 332.82 196.332 334.111 196.333C340.059 196.338 346.007 196.33 351.956 196.319C359.204 196.305 366.452 196.308 373.7 196.335C377.399 196.348 381.097 196.353 384.796 196.337C388.803 196.319 392.81 196.34 396.817 196.365C397.99 196.354 399.162 196.343 400.371 196.331C409.12 196.438 409.12 196.438 412.201 199.415C415.329 203.906 415.147 207.412 415.142 212.749C415.147 214.124 415.147 214.124 415.151 215.527C415.16 218.619 415.161 221.71 415.163 224.802C415.167 227.011 415.172 229.22 415.178 231.429C415.191 237.443 415.197 243.458 415.202 249.472C415.205 253.227 415.209 256.981 415.213 260.736C415.225 271.129 415.236 281.522 415.239 291.914C415.239 292.58 415.24 293.245 415.24 293.931C415.24 294.598 415.24 295.265 415.241 295.952C415.241 297.303 415.241 298.655 415.242 300.007C415.242 300.677 415.242 301.347 415.243 302.038C415.246 312.902 415.264 323.765 415.287 334.629C415.311 345.779 415.323 356.929 415.325 368.078C415.326 374.34 415.332 380.602 415.349 386.863C415.366 392.753 415.368 398.642 415.359 404.531C415.358 406.694 415.363 408.858 415.373 411.021C415.385 413.971 415.38 416.921 415.369 419.87C415.381 421.16 415.381 421.16 415.394 422.475C415.355 427.139 415.066 430.244 412.002 434C408.9 436.8 406.926 437.376 402.776 437.38C401.712 437.389 400.648 437.397 399.552 437.406C398.384 437.4 397.216 437.394 396.013 437.388C394.772 437.393 393.531 437.398 392.252 437.404C388.804 437.416 385.357 437.414 381.91 437.407C378.192 437.402 374.475 437.415 370.758 437.425C363.475 437.442 356.192 437.443 348.909 437.438C342.991 437.434 337.072 437.435 331.153 437.44C329.891 437.442 329.891 437.442 328.603 437.443C326.893 437.444 325.183 437.446 323.473 437.447C307.431 437.461 291.389 437.456 275.348 437.444C260.666 437.434 245.984 437.447 231.302 437.471C216.233 437.495 201.164 437.505 186.095 437.498C177.633 437.495 169.17 437.497 160.708 437.515C153.503 437.529 146.3 437.53 139.095 437.513C135.419 437.504 131.743 437.502 128.066 437.517C124.083 437.534 120.1 437.519 116.117 437.501C114.951 437.511 113.786 437.52 112.585 437.53C104.77 437.458 104.77 437.458 100.807 435.094C97.3121 431.041 97.8506 427.222 97.8477 422.099C97.8433 421.166 97.839 420.233 97.8345 419.271C97.821 416.124 97.8149 412.978 97.8088 409.831C97.8009 407.583 97.7926 405.334 97.784 403.086C97.7577 395.686 97.7425 388.286 97.7282 380.887C97.7228 378.343 97.7175 375.799 97.7121 373.255C97.6904 362.677 97.6715 352.099 97.6604 341.521C97.6575 338.776 97.6545 336.03 97.6515 333.284C97.6508 332.602 97.65 331.92 97.6493 331.217C97.6366 320.159 97.6034 309.102 97.5617 298.044C97.5193 286.695 97.4962 275.347 97.4905 263.998C97.4869 257.624 97.4748 251.251 97.4424 244.877C97.4124 238.883 97.406 232.889 97.4178 226.895C97.418 224.693 97.4097 222.49 97.3921 220.288C97.3696 217.285 97.3777 214.284 97.3936 211.282C97.3797 210.406 97.3659 209.531 97.3516 208.63C97.4037 204.654 97.7408 202.447 99.7781 198.96C104.767 195.927 109.452 196.311 115.186 196.365Z" fill="#6AD9D2"/>
<path d="M-0.000667483 122C84.4793 122 168.959 122 255.999 122C255.999 146.75 255.999 171.5 255.999 197C239.502 197.039 239.502 197.039 222.671 197.078C215.717 197.103 208.762 197.129 201.808 197.16C190.762 197.209 179.716 197.253 168.67 197.271C160.626 197.284 152.582 197.311 144.538 197.355C140.277 197.377 136.018 197.393 131.757 197.392C127.748 197.391 123.74 197.409 119.731 197.441C118.259 197.45 116.787 197.451 115.315 197.446C113.306 197.439 111.297 197.459 109.289 197.481C107.602 197.487 107.602 197.487 105.881 197.492C102.958 197.824 102.958 197.824 100.638 199.461C98.1776 203.273 98.4428 206.691 98.4847 211.141C98.4777 212.076 98.4708 213.011 98.4636 213.975C98.4453 217.115 98.4556 220.255 98.4659 223.396C98.4588 225.645 98.4501 227.893 98.4398 230.142C98.4172 236.256 98.4202 242.369 98.4291 248.483C98.4342 253.582 98.4269 258.682 98.4196 263.782C98.4016 276.498 98.4081 289.214 98.4258 301.931C98.4405 312.975 98.4259 324.02 98.397 335.064C98.3676 346.404 98.3572 357.744 98.3662 369.084C98.3711 375.45 98.3689 381.817 98.3484 388.184C98.3301 394.17 98.336 400.156 98.3606 406.142C98.3656 408.341 98.3621 410.54 98.3495 412.739C98.3336 415.737 98.3484 418.734 98.3711 421.732C98.3593 422.606 98.3475 423.479 98.3353 424.38C98.4003 428.597 98.6496 430.504 101.14 434.039C104.529 436.363 106.289 436.629 110.371 436.639C111.657 436.655 112.943 436.67 114.268 436.686C115.685 436.677 117.103 436.669 118.52 436.659C120.018 436.668 121.517 436.679 123.015 436.691C127.077 436.719 131.138 436.717 135.2 436.709C139.446 436.706 143.693 436.731 147.94 436.753C155.979 436.79 164.018 436.802 172.058 436.805C182.923 436.811 193.788 436.856 204.653 436.898C221.769 436.964 238.884 436.978 255.999 437C255.999 461.75 255.999 486.5 255.999 512C229.808 512.113 203.616 512.205 177.425 512.259C165.262 512.285 153.1 512.32 140.937 512.377C130.331 512.427 119.725 512.459 109.118 512.47C103.507 512.477 97.8967 512.492 92.2858 512.529C86.9933 512.563 81.7012 512.573 76.4086 512.566C74.477 512.567 72.5453 512.577 70.6138 512.596C50.4788 512.788 34.3221 508.412 19.3118 494.27C18.5487 493.521 17.7856 492.772 16.9993 492C16.0403 491.078 16.0403 491.078 15.0618 490.137C3.1777 477.749 -0.474921 461.497 -0.361431 444.883C-0.362742 443.484 -0.365373 442.084 -0.369199 440.685C-0.375863 436.867 -0.363967 433.05 -0.348864 429.232C-0.335849 425.105 -0.340297 420.978 -0.342571 416.85C-0.34414 409.709 -0.334767 402.567 -0.317858 395.426C-0.293425 385.101 -0.285658 374.776 -0.281894 364.45C-0.275336 347.696 -0.255393 330.942 -0.226986 314.188C-0.199428 297.918 -0.178237 281.648 -0.165462 265.378C-0.164658 264.364 -0.163854 263.35 -0.163026 262.305C-0.156787 254.375 -0.150917 246.444 -0.145162 238.514C-0.116887 199.676 -0.0565258 160.838 -0.000667483 122Z" fill="#C2F5F2"/>
<path d="M69.6285 -0.394412C71.3012 -0.399307 72.974 -0.4055 74.6467 -0.412869C79.2201 -0.429208 83.7933 -0.426963 88.3666 -0.421494C93.3082 -0.418817 98.2497 -0.43337 103.191 -0.445589C112.864 -0.466615 122.537 -0.471186 132.209 -0.469402C140.075 -0.468092 147.941 -0.471906 155.807 -0.479327C158.075 -0.481426 160.343 -0.483524 162.612 -0.485619C163.741 -0.486663 164.87 -0.487707 166.033 -0.488782C187.376 -0.507673 208.718 -0.506637 230.061 -0.499812C249.565 -0.494239 269.07 -0.515056 288.574 -0.548173C308.621 -0.581946 328.668 -0.597074 348.715 -0.592456C359.961 -0.590215 371.208 -0.595403 382.455 -0.620348C392.031 -0.641408 401.607 -0.644907 411.184 -0.626049C416.065 -0.616919 420.945 -0.615662 425.826 -0.636404C430.304 -0.655223 434.782 -0.65049 439.26 -0.627859C440.87 -0.6237 442.48 -0.627779 444.091 -0.641455C464.521 -0.802988 480.299 5.57204 495 20C495.639 20.6149 496.279 21.2298 496.938 21.8633C521.512 47.4805 512 92.7613 512 122C343.04 122 174.08 122 0 122C0 37.3787 0 37.3787 20 17C20.6149 16.3606 21.2298 15.7212 21.8633 15.0625C35.0886 2.37525 52.0466 -0.458412 69.6285 -0.394412Z" fill="#6AD9D2"/>
<path d="M256 197C275.862 196.887 295.724 196.795 315.587 196.741C324.81 196.715 334.032 196.68 343.254 196.623C351.292 196.573 359.33 196.541 367.368 196.53C371.624 196.523 375.88 196.508 380.136 196.471C384.143 196.437 388.149 196.427 392.155 196.434C393.625 196.433 395.095 196.423 396.566 196.404C398.574 196.379 400.582 196.388 402.59 196.399C403.714 196.394 404.838 196.39 405.995 196.385C409.956 197.196 411.447 198.945 414 202C415.668 205.335 415.144 209.081 415.14 212.749C415.143 213.666 415.146 214.583 415.149 215.527C415.158 218.619 415.16 221.71 415.161 224.802C415.166 227.011 415.171 229.22 415.176 231.429C415.189 237.443 415.196 243.458 415.2 249.472C415.203 253.227 415.207 256.981 415.212 260.736C415.224 271.129 415.234 281.522 415.238 291.914C415.238 292.912 415.238 292.912 415.238 293.931C415.238 294.598 415.239 295.265 415.239 295.952C415.239 297.303 415.24 298.655 415.24 300.007C415.241 301.012 415.241 301.012 415.241 302.038C415.245 312.902 415.262 323.765 415.286 334.629C415.309 345.779 415.322 356.929 415.323 368.078C415.324 374.34 415.33 380.602 415.348 386.863C415.364 392.753 415.366 398.642 415.358 404.531C415.357 406.694 415.361 408.858 415.371 411.021C415.384 413.971 415.378 416.92 415.367 419.87C415.38 421.16 415.38 421.16 415.392 422.475C415.344 428.25 414.41 431.599 410.203 435.79C407.258 437.408 405.104 437.369 401.748 437.361C399.822 437.367 399.822 437.367 397.856 437.373C396.435 437.363 395.014 437.352 393.593 437.341C392.095 437.34 390.597 437.34 389.098 437.342C385.033 437.343 380.967 437.325 376.901 437.304C372.652 437.285 368.402 437.284 364.153 437.28C356.106 437.271 348.06 437.246 340.014 437.216C330.853 437.183 321.692 437.166 312.532 437.151C293.688 437.12 274.844 437.065 256 437C256 421.82 256 406.64 256 391C265 387 265 387 267 387C267.309 386.216 267.619 385.433 267.938 384.625C269 382 269 382 270 380C270.104 378.556 270.146 377.107 270.158 375.659C270.168 374.748 270.178 373.836 270.188 372.897C270.194 371.895 270.199 370.892 270.205 369.859C270.22 368.278 270.22 368.278 270.235 366.666C270.267 363.171 270.292 359.675 270.316 356.18C270.337 353.761 270.358 351.343 270.379 348.924C270.435 342.549 270.484 336.173 270.532 329.798C270.582 323.296 270.638 316.795 270.693 310.293C270.801 297.529 270.902 284.764 271 272C282.22 272 293.44 272 305 272C310.062 281.75 310.062 281.75 311.61 284.804C314.658 290.5 316.957 293.539 323 296C327.641 297.01 331.146 296.427 335.375 294.313C338.689 291.393 340.669 289.397 341.29 284.903C341.594 277.571 339.447 272.735 335.875 266.438C335.401 265.556 334.926 264.675 334.438 263.768C332.09 259.468 329.61 255.248 327.008 251.098C326.574 250.403 326.139 249.708 325.692 248.992C322.421 245.141 320.101 243.273 315.069 242.62C311.327 242.44 307.596 242.393 303.852 242.391C302.47 242.376 301.089 242.359 299.707 242.341C296.087 242.297 292.467 242.277 288.847 242.262C285.147 242.242 281.446 242.2 277.746 242.16C270.497 242.083 263.249 242.042 256 242C256 227.15 256 212.3 256 197Z" fill="#56BAB4"/>
<path d="M256 1.42455e-05C282.192 -0.113048 308.383 -0.205072 334.575 -0.259047C346.737 -0.284779 358.9 -0.319834 371.062 -0.377183C381.668 -0.42717 392.274 -0.459313 402.881 -0.470428C408.492 -0.476921 414.103 -0.492077 419.714 -0.528636C425.006 -0.562838 430.298 -0.57299 435.591 -0.565524C437.522 -0.566888 439.454 -0.576675 441.385 -0.596013C461.521 -0.787537 477.677 3.58804 492.688 17.7305C493.451 18.4794 494.214 19.2284 495 20C495.639 20.6149 496.279 21.2298 496.938 21.8633C521.512 47.4805 512 92.7614 512 122C427.52 122 343.04 122 256 122C256 108.47 256 94.94 256 81C259.023 80.9907 262.046 80.9813 265.16 80.9717C275.155 80.9379 285.149 80.8824 295.144 80.8161C301.202 80.7766 307.261 80.7444 313.32 80.729C319.169 80.7139 325.017 80.6794 330.865 80.6317C333.095 80.6169 335.325 80.609 337.555 80.6081C340.682 80.6058 343.807 80.5787 346.934 80.5459C347.853 80.5509 348.772 80.556 349.719 80.5612C355.647 80.4652 359.124 79.4201 364 76C367.436 72.2312 367.512 68.3411 367.352 63.4375C366.826 59.7921 365.445 57.709 363 55C359.074 52.223 355.679 50.8844 350.881 50.8418C350.044 50.832 349.207 50.8222 348.344 50.8121C346.972 50.8035 346.972 50.8035 345.572 50.7947C344.605 50.7848 343.639 50.7749 342.644 50.7647C339.446 50.7331 336.249 50.7083 333.051 50.6836C330.835 50.663 328.62 50.642 326.405 50.6206C320.57 50.5654 314.736 50.516 308.901 50.4678C301.903 50.4088 294.905 50.3425 287.906 50.2775C277.271 50.1795 266.635 50.0906 256 50C256 33.5 256 17 256 1.42455e-05Z" fill="#56BAB4"/>
<path d="M198.906 241.853C200.462 241.842 200.462 241.842 202.05 241.831C203.193 241.828 204.336 241.826 205.513 241.823C206.713 241.816 207.913 241.81 209.15 241.803C213.136 241.783 217.122 241.772 221.108 241.762C222.48 241.758 223.853 241.754 225.225 241.749C231.674 241.73 238.123 241.716 244.572 241.708C252.014 241.698 259.455 241.672 266.897 241.631C272.649 241.601 278.402 241.586 284.155 241.583C287.591 241.581 291.026 241.572 294.461 241.547C298.296 241.519 302.131 241.523 305.966 241.53C307.669 241.511 307.669 241.511 309.405 241.491C315.594 241.532 319.307 241.827 323.999 246C326.984 249.288 329.107 252.762 331.198 256.668C332.052 258.254 332.052 258.254 332.922 259.873C333.504 260.967 334.086 262.061 334.686 263.188C335.28 264.293 335.873 265.398 336.485 266.537C342.923 278.539 342.923 278.539 341.999 287C339.669 291.838 336.817 294.636 331.999 297C326.468 297.989 322.546 297.255 317.664 294.306C314.813 292.07 313.362 289.252 311.749 286.062C311.098 284.845 310.447 283.627 309.796 282.41C309.203 281.285 308.61 280.159 307.999 279C307.426 278.071 306.854 277.141 306.264 276.184C304.999 274 304.999 274 304.999 272C293.779 272 282.559 272 270.999 272C271.03 276.852 271.03 276.852 271.062 281.803C271.128 292.496 271.173 303.189 271.206 313.882C271.227 320.364 271.255 326.847 271.3 333.329C271.344 339.586 271.368 345.843 271.378 352.1C271.386 354.486 271.4 356.873 271.422 359.259C271.451 362.603 271.455 365.947 271.453 369.291C271.467 370.276 271.482 371.261 271.496 372.275C271.46 378.392 270.566 381.988 266.999 387C263.357 390.182 259.229 391.338 254.436 391.125C249.538 390.295 246.079 387.856 242.999 384C240.311 379.092 240.732 374.048 240.772 368.61C240.771 367.566 240.771 366.521 240.771 365.445C240.772 361.999 240.788 358.552 240.803 355.105C240.807 352.714 240.81 350.322 240.812 347.93C240.82 341.638 240.839 335.347 240.861 329.056C240.882 322.634 240.891 316.213 240.901 309.791C240.922 297.194 240.958 284.597 240.999 272C229.779 272.33 218.559 272.66 206.999 273C204.334 278.316 204.334 278.316 201.705 283.649C198.704 289.474 194.949 294.025 188.999 297C184.38 297.564 180.9 297.442 176.686 295.375C173.184 292.28 170.547 289.717 169.592 284.984C169.13 277.163 172.303 271.263 176.023 264.612C177.06 262.752 178.057 260.875 179.051 258.992C183.594 250.568 188.384 241.903 198.906 241.853Z" fill="#F2D332"/>
<path d="M82.6057 50.8686C84.0701 50.8628 84.0701 50.8628 85.564 50.8569C87.1844 50.8582 87.1844 50.8582 88.8374 50.8596C90.5498 50.8551 90.5498 50.8551 92.2968 50.8506C95.475 50.8434 98.6533 50.8407 101.832 50.84C105.256 50.8381 108.68 50.8306 112.104 50.8238C119.596 50.8102 127.087 50.8042 134.579 50.7998C139.255 50.7971 143.931 50.7928 148.607 50.7883C161.547 50.7761 174.488 50.7658 187.428 50.7624C188.257 50.7622 189.085 50.762 189.939 50.7618C190.77 50.7615 191.6 50.7613 192.456 50.7611C194.139 50.7607 195.823 50.7602 197.506 50.7598C198.341 50.7595 199.176 50.7593 200.036 50.7591C213.567 50.7551 227.098 50.7377 240.629 50.7144C254.513 50.6907 268.398 50.6782 282.282 50.6771C290.081 50.6761 297.88 50.6704 305.678 50.6522C312.319 50.6369 318.959 50.6317 325.6 50.64C328.989 50.6439 332.377 50.6429 335.766 50.6289C339.439 50.6163 343.111 50.622 346.783 50.6325C347.857 50.6245 348.93 50.6164 350.036 50.6081C359.054 50.6685 359.054 50.6685 363.001 54C367.39 58.9986 368.369 61.91 368.274 68.4609C367.864 72.2661 366.586 74.2157 364.001 77C357.94 81.3895 353.01 81.572 345.659 81.5147C343.955 81.5251 343.955 81.5251 342.218 81.5357C338.416 81.554 334.615 81.5437 330.813 81.5334C328.086 81.5383 325.36 81.5491 322.633 81.5596C315.997 81.5812 309.361 81.5811 302.725 81.5729C297.33 81.5666 291.936 81.5678 286.541 81.5742C285.773 81.5751 285.005 81.576 284.213 81.5769C282.652 81.5788 281.092 81.5806 279.531 81.5825C264.899 81.5991 250.268 81.5904 235.637 81.5735C222.257 81.5588 208.877 81.5735 195.497 81.6023C181.751 81.6317 168.006 81.6427 154.26 81.6331C152.704 81.6321 151.149 81.6311 149.594 81.6301C148.446 81.6294 148.446 81.6294 147.275 81.6287C141.889 81.6265 136.503 81.6363 131.117 81.6509C124.55 81.6684 117.984 81.6683 111.417 81.6456C108.068 81.6344 104.72 81.6339 101.37 81.6499C97.7364 81.6658 94.1036 81.6509 90.4696 81.6282C89.416 81.64 88.3624 81.6519 87.2768 81.6641C80.6687 81.5803 76.0559 80.4134 71.0007 76C67.8272 71.5373 67.2237 67.3217 68.0007 62C70.549 55.0257 75.1683 50.8795 82.6057 50.8686Z" fill="#E6F1FE"/>
<path d="M255.999 242C255.999 290.84 255.999 339.68 255.999 390C256.989 390.33 257.979 390.66 258.999 391C252.8 390.972 249.046 389.932 244.409 385.766C240.258 380.568 240.725 374.941 240.772 368.61C240.771 367.566 240.771 366.521 240.771 365.445C240.772 361.999 240.788 358.552 240.803 355.105C240.807 352.714 240.81 350.322 240.812 347.93C240.82 341.638 240.839 335.347 240.861 329.056C240.882 322.634 240.891 316.213 240.901 309.791C240.922 297.194 240.958 284.597 240.999 272C229.779 272.33 218.559 272.66 206.999 273C204.334 278.316 204.334 278.316 201.705 283.649C198.704 289.474 194.949 294.025 188.999 297C184.38 297.564 180.9 297.442 176.686 295.375C173.184 292.28 170.547 289.717 169.592 284.984C169.13 277.163 172.303 271.263 176.023 264.612C177.06 262.752 178.057 260.875 179.051 258.992C195.608 228.286 212.842 242 255.999 242Z" fill="#FEE980"/>
<path d="M256 51C269.213 50.9322 282.425 50.8772 295.638 50.8445C301.774 50.8289 307.909 50.8076 314.044 50.7737C319.963 50.7411 325.883 50.7231 331.803 50.7153C334.062 50.7098 336.322 50.699 338.581 50.6828C341.744 50.661 344.906 50.658 348.069 50.6594C349.005 50.6486 349.941 50.6378 350.905 50.6267C355.766 50.6499 359.07 50.8112 363 54C367.389 58.9986 368.368 61.91 368.273 68.4609C367.864 72.266 366.585 74.2157 364 77C357.923 81.4105 352.978 81.5619 345.604 81.481C344.463 81.4844 343.322 81.4878 342.146 81.4913C338.326 81.4979 334.506 81.4759 330.686 81.4541C327.946 81.4507 325.206 81.4534 322.466 81.4558C316.569 81.4579 310.672 81.4454 304.775 81.4229C296.25 81.3903 287.724 81.38 279.198 81.3749C265.364 81.3662 251.531 81.3396 237.698 81.3017C224.262 81.265 210.826 81.2367 197.39 81.2197C196.147 81.2181 196.147 81.2181 194.879 81.2165C190.722 81.2113 186.566 81.2062 182.409 81.2013C147.939 81.1598 113.47 81.0894 79 81C79 80.67 79 80.34 79 80C137.41 80 195.82 80 256 80C256 70.43 256 60.86 256 51Z" fill="#A6E5E2"/>
<path d="M421 50.5625C422.067 50.5554 423.135 50.5483 424.234 50.541C429.859 50.5865 434.201 50.7351 439 54C443.064 58.3937 444.392 61.8316 444.27 67.875C443.796 71.6119 442.433 74.1621 440 77C434.17 81.234 428.374 81.5916 421.375 81.4375C420.46 81.4446 419.545 81.4517 418.602 81.459C413.334 81.4095 409.536 80.9573 405 78C401.398 74.098 399.224 70.9823 398.625 65.6875C399.209 59.9474 401.16 56.6717 405.398 52.8203C410.113 49.8269 415.614 50.4617 421 50.5625Z" fill="#9ACEFD"/>
</g>
<defs>
<clipPath id="clip0_248_147">
<rect width="512" height="512" fill="white"/>
</clipPath>
</defs>
</svg>
