<svg width="512" height="512" viewBox="0 0 512 512" fill="none" xmlns="http://www.w3.org/2000/svg">
<g clip-path="url(#clip0_248_175)">
<path d="M88.8002 52.0398C90.2936 52.0291 91.7871 52.0185 93.3258 52.0075C98.2993 51.9804 103.271 52.0018 108.245 52.0233C111.823 52.0141 115.401 52.0019 118.979 51.9871C128.676 51.956 138.372 51.968 148.069 51.9897C158.226 52.007 168.383 51.9909 178.54 51.9802C195.596 51.9678 212.651 51.9841 229.706 52.0167C249.414 52.0538 269.12 52.0418 288.827 52.0042C305.76 51.9732 322.692 51.9689 339.624 51.9867C349.732 51.9973 359.839 51.9988 369.947 51.9762C379.45 51.9565 388.953 51.9702 398.456 52.0096C401.94 52.0187 405.424 52.0161 408.908 52.001C413.671 51.9823 418.433 52.0058 423.196 52.0398C425.254 52.017 425.254 52.017 427.354 51.9936C436.858 52.1247 444.384 54.274 452.265 59.7333C459.906 69.2956 460.004 77.5185 459.725 89.4475C459.706 92.0684 459.706 92.0684 459.687 94.7422C459.658 98.523 459.613 102.304 459.555 106.084C459.47 112.085 459.438 118.084 459.422 124.085C459.371 141.143 459.261 158.199 459.028 175.255C458.888 185.705 458.842 196.151 458.852 206.602C458.839 210.566 458.79 214.53 458.706 218.493C457.665 245.062 457.665 245.062 470.021 267.533C473.131 270.604 476.347 273.527 479.571 276.48C482.596 280.863 484.95 285.291 487.145 290.133C487.685 291.269 488.225 292.404 488.782 293.573C506.766 332.445 507.243 383.638 494.825 424.533C479.448 465.822 452.308 492.352 413.011 512C409.6 512.209 406.183 512.308 402.766 512.356C400.611 512.389 398.456 512.422 396.236 512.456C393.868 512.481 391.5 512.505 389.131 512.527C387.936 512.538 386.741 512.549 385.51 512.561C379.167 512.616 372.825 512.658 366.483 512.691C361.265 512.722 356.049 512.781 350.831 512.866C344.509 512.97 338.187 513.022 331.864 513.038C329.47 513.053 327.077 513.084 324.684 513.135C301.641 513.595 285.391 506.155 267.945 491.52C267.182 490.702 266.419 489.884 265.633 489.041C258.406 481.81 253.058 480.095 242.928 479.974C241.264 480.005 239.599 480.037 237.884 480.069C235.21 480.058 235.21 480.058 232.481 480.047C226.61 480.034 220.742 480.092 214.871 480.147C210.781 480.145 206.69 480.137 202.599 480.125C191.842 480.102 181.087 480.134 170.331 480.184C153.109 480.261 135.888 480.288 118.667 480.253C112.655 480.253 106.645 480.297 100.634 480.344C96.9466 480.346 93.2588 480.345 89.571 480.343C87.0691 480.38 87.0691 480.38 84.5166 480.417C74.8128 480.361 69.0641 479.362 61.4381 472.747C53.097 461.926 52.6507 453.689 52.6536 440.361C52.6473 438.796 52.6411 437.23 52.6346 435.617C52.6158 430.36 52.6092 425.102 52.6027 419.845C52.592 416.08 52.5807 412.315 52.5687 408.55C52.539 398.314 52.521 388.077 52.5069 377.841C52.4981 371.447 52.4878 365.053 52.477 358.66C52.4482 340.952 52.4233 323.244 52.4109 305.536C52.4076 300.944 52.4044 296.351 52.401 291.759C52.4002 290.617 52.3994 289.476 52.3985 288.3C52.3844 269.806 52.3411 251.313 52.2857 232.819C52.2292 213.824 52.1991 194.83 52.1931 175.835C52.189 165.173 52.1737 154.512 52.1308 143.85C52.0912 133.821 52.0838 123.793 52.1014 113.765C52.1023 110.084 52.0914 106.404 52.068 102.724C52.0379 97.6986 52.0499 92.6746 52.0724 87.6488C52.0536 86.1942 52.0349 84.7395 52.0156 83.2407C52.115 74.0315 53.3424 66.7002 59.7314 59.7333C68.7626 52.9312 77.8009 51.9177 88.8002 52.0398Z" fill="#6AD9D2"/>
<path d="M355.201 212.8C356.91 212.791 358.618 212.781 360.379 212.771C396.112 213.114 426.963 226 453.974 249.173C455.019 249.972 456.064 250.771 457.141 251.593C481.137 270.318 496.4 302.807 501.054 332.313C503.541 354.429 503.774 378.15 496.641 399.36C495.954 401.421 495.268 403.483 494.561 405.607C481.85 441.317 455.043 470.338 421.654 487.893C386.438 504.558 346.881 506.748 309.941 494.76C271.923 481.04 241.513 452.373 224.314 415.873C222.111 410.421 220.214 404.97 218.454 399.36C217.911 397.73 217.367 396.1 216.807 394.42C206.856 359.43 212.584 318.63 229.654 286.88C236.62 275.399 245.036 265.679 254.294 256C255.341 254.825 256.389 253.65 257.467 252.44C272.161 236.554 291.948 225.334 312.321 218.453C313.894 217.91 315.467 217.367 317.087 216.807C329.755 213.175 342.087 212.861 355.201 212.8Z" fill="#6AD9D2"/>
<path d="M52.9077 256C119.365 256 185.823 256 254.294 256C250.915 259.942 247.536 263.885 244.054 267.947C233.562 282.454 225.443 296.834 220.161 314.027C219.618 315.782 219.074 317.538 218.514 319.347C211.28 347.149 212.675 377.385 221.868 404.48C222.466 406.275 223.064 408.07 223.681 409.92C238.122 448.43 269.171 475.171 305.666 491.844C338.573 505.878 379.593 502.925 412.374 490.453C447.305 476.188 473.209 448.437 489.328 414.853C493.055 405.925 495.792 396.736 498.348 387.413C498.911 387.413 499.474 387.413 500.054 387.413C500.839 416.968 488.618 447.016 469.334 469.333C467.876 471.155 467.876 471.155 466.388 473.013C451.811 490.53 433.182 501.916 413.014 512C409.603 512.209 406.186 512.308 402.769 512.356C400.614 512.389 398.459 512.422 396.239 512.456C393.871 512.481 391.503 512.505 389.134 512.527C387.939 512.538 386.744 512.549 385.513 512.561C379.17 512.616 372.828 512.658 366.486 512.691C361.268 512.721 356.052 512.781 350.834 512.866C344.512 512.97 338.19 513.022 331.867 513.038C329.473 513.052 327.08 513.084 324.686 513.135C301.644 513.595 285.394 506.155 267.948 491.52C267.185 490.702 266.422 489.884 265.636 489.041C258.409 481.81 253.061 480.095 242.931 479.973C241.267 480.005 239.602 480.037 237.887 480.069C235.213 480.058 235.213 480.058 232.484 480.047C226.613 480.034 220.745 480.092 214.874 480.147C210.783 480.145 206.693 480.137 202.602 480.125C191.845 480.102 181.09 480.134 170.334 480.184C153.112 480.261 135.891 480.288 118.67 480.253C112.658 480.253 106.648 480.297 100.637 480.344C96.9495 480.345 93.2617 480.345 89.5739 480.342C87.072 480.379 87.072 480.379 84.5195 480.417C74.8157 480.361 69.067 479.362 61.441 472.747C54.8158 464.152 52.691 457.949 52.7024 447.278C52.7001 445.592 52.6977 443.906 52.6953 442.169C52.7015 440.323 52.7076 438.477 52.7139 436.575C52.7137 434.595 52.7135 432.615 52.7133 430.575C52.7146 424.161 52.7276 417.747 52.741 411.333C52.7435 407.375 52.7453 403.417 52.7462 399.459C52.7552 384.777 52.779 370.095 52.801 355.413C52.8362 322.607 52.8714 289.801 52.9077 256Z" fill="#3E9B96"/>
<path d="M256 52.9067C285.85 52.7659 315.699 52.6251 346.453 52.48C355.863 52.4179 365.272 52.3557 374.967 52.2917C386.497 52.2609 386.497 52.2609 391.902 52.2551C395.66 52.2447 399.419 52.2207 403.177 52.186C408.885 52.1358 414.592 52.1291 420.3 52.1317C422.792 52.0948 422.792 52.0948 425.335 52.0573C435.6 52.1194 443.986 53.2885 452.267 59.7334C459.962 69.3432 460.045 77.7992 459.868 89.7996C459.869 91.5825 459.87 93.3654 459.871 95.2023C459.867 101.067 459.814 106.929 459.76 112.793C459.747 116.871 459.738 120.948 459.731 125.025C459.705 135.734 459.638 146.444 459.562 157.153C459.492 168.09 459.461 179.026 459.427 189.963C459.354 211.407 459.238 232.85 459.093 254.293C458.16 253.593 457.226 252.892 456.264 252.17C455.037 251.249 453.81 250.329 452.546 249.38C451.33 248.468 450.115 247.557 448.863 246.617C412.816 219.619 375.21 210.52 330.387 215.498C304.858 219.599 282.065 232.358 262.827 249.173C260.574 250.863 258.321 252.553 256 254.293C256 187.836 256 121.378 256 52.9067Z" fill="#56BAB4"/>
<path d="M498.347 387.413C498.91 387.413 499.473 387.413 500.054 387.413C500.838 416.968 488.617 447.016 469.334 469.333C467.875 471.155 467.875 471.155 466.387 473.013C451.81 490.53 433.181 501.916 413.014 512C409.603 512.209 406.185 512.308 402.768 512.356C400.613 512.389 398.459 512.422 396.239 512.456C393.87 512.481 391.502 512.505 389.134 512.527C387.939 512.538 386.743 512.549 385.512 512.561C379.17 512.616 372.828 512.658 366.485 512.691C361.267 512.721 356.051 512.781 350.834 512.866C344.511 512.97 338.19 513.022 331.866 513.038C329.472 513.052 327.079 513.084 324.686 513.135C301.643 513.595 285.394 506.155 267.947 491.52C267.184 490.702 266.421 489.884 265.635 489.041C258.408 481.81 253.06 480.095 242.931 479.973C241.266 480.005 239.602 480.037 237.887 480.069C235.212 480.058 235.212 480.058 232.483 480.047C226.613 480.034 220.744 480.092 214.874 480.147C210.783 480.145 206.692 480.137 202.601 480.125C191.845 480.102 181.089 480.134 170.333 480.184C153.112 480.261 135.891 480.288 118.669 480.253C112.658 480.253 106.648 480.297 100.637 480.344C96.9489 480.345 93.2611 480.345 89.5733 480.342C87.0714 480.38 87.0714 480.38 84.5189 480.417C74.8151 480.361 69.0664 479.362 61.4404 472.747C54.9019 464.264 52.6452 458.129 52.8004 447.573C52.8158 446.209 52.8312 444.845 52.8471 443.44C52.8669 442.41 52.8867 441.381 52.9071 440.32C53.8575 441.587 54.8079 442.854 55.7871 444.16C60.9856 450.342 65.6683 454.814 73.3871 457.387C75.8653 457.53 78.3498 457.577 80.8321 457.565C82.3535 457.562 83.8749 457.559 85.4424 457.556C87.1074 457.544 88.7724 457.532 90.4879 457.52C94.1304 457.51 97.7729 457.5 101.415 457.49C103.35 457.482 105.285 457.474 107.278 457.466C117.519 457.433 127.76 457.459 138 457.477C151.035 457.498 164.068 457.5 177.102 457.428C187.632 457.371 198.161 457.38 208.691 457.434C212.698 457.442 216.706 457.427 220.714 457.386C226.336 457.332 231.952 457.363 237.575 457.414C240.041 457.36 240.041 457.36 242.557 457.305C256.094 457.573 262.157 463.364 271.36 472.747C301.676 496.287 339.929 503.426 377.372 499.693C413.671 494.942 447.316 475.603 470.14 446.973C483.618 428.567 492.334 409.342 498.347 387.413Z" fill="#3E9B96"/>
<path d="M379.887 119.68C384.34 121.562 384.34 121.562 390.827 121.173C392.517 120.047 394.206 118.921 395.947 117.76C398.2 120.576 400.453 123.392 402.774 126.293C401.084 127.983 399.394 129.673 397.654 131.413C399.526 136.166 401.441 140.652 403.84 145.173C408.274 155.786 407.972 167.025 404.367 177.827C397.356 193.071 387.673 203.482 372.054 209.92C358.522 212.142 342.536 212.206 330.967 204.253C318.892 193.721 310.292 183.72 308.32 167.567C307.658 154.608 310.48 145.675 317.44 134.827C318.602 132.996 319.764 131.166 320.96 129.28C337.229 111.431 359.173 110.894 379.887 119.68Z" fill="#56BAB4"/>
<path d="M134.826 296.96C151.159 296.96 167.492 296.96 184.319 296.96C184.319 300.339 184.319 303.718 184.319 307.2C181.503 307.763 178.687 308.326 175.786 308.907C175.786 311.159 175.786 313.412 175.786 315.733C180.01 316.578 180.01 316.578 184.319 317.44C184.319 320.819 184.319 324.198 184.319 327.68C180.94 327.68 177.561 327.68 174.079 327.68C174.079 330.496 174.079 333.312 174.079 336.213C176.139 336.16 176.139 336.16 178.239 336.107C182.613 336.213 182.613 336.213 184.319 337.92C184.389 340.764 184.392 343.61 184.319 346.453C181.503 347.016 178.687 347.58 175.786 348.16C176.2 354.779 178.467 358.098 182.613 362.987C188.701 370.776 190.064 377.624 189.439 387.413C187.755 398.033 182.287 404.037 174.026 410.607C165.002 417.071 155.961 418.007 145.066 416.427C134.279 412.336 126.839 404.102 121.173 394.24C117.791 383.457 119.072 374.906 124.133 365.047C126.293 361.813 126.293 361.813 129.776 359.033C134.354 353.492 134.148 348.51 134.159 341.627C134.188 340.348 134.216 339.07 134.245 337.753C134.328 333.684 134.364 329.616 134.399 325.547C134.447 322.782 134.498 320.018 134.553 317.253C134.684 310.488 134.754 303.727 134.826 296.96Z" fill="#F8FBF8"/>
<path d="M151.892 95.5734C155.272 95.5734 158.651 95.5734 162.132 95.5734C162.132 100.079 162.132 104.585 162.132 109.227C164.403 109.438 164.403 109.438 166.719 109.653C173.306 111.145 176.151 113.006 180.906 117.76C185.373 124.846 186.621 129.901 186.026 138.24C179.831 138.24 173.635 138.24 167.252 138.24C166.126 134.298 165 130.355 163.839 126.293C154.825 124.246 154.825 124.246 146.772 128C145.634 132.974 145.634 132.974 146.772 138.24C152.495 143.59 158.448 146.769 165.546 149.973C175.361 154.73 181.086 159.081 186.026 168.96C187.006 176.993 186.803 182.821 183.039 190.08C175.9 198.408 171.494 200.322 160.426 201.387C160.426 205.329 160.426 209.272 160.426 213.333C157.047 213.333 153.667 213.333 150.186 213.333C150.186 209.391 150.186 205.449 150.186 201.387C148.707 201.246 147.229 201.105 145.706 200.96C136.852 198.993 131.479 195.572 126.506 187.947C124.496 182.364 124.166 178.256 124.586 172.373C130.218 172.373 135.85 172.373 141.652 172.373C142.779 176.316 143.905 180.258 145.066 184.32C151.261 184.32 157.456 184.32 163.839 184.32C166.292 179.414 166.197 176.096 165.546 170.667C160.687 165.16 155.199 163.051 148.479 160.533C138.85 156.894 133.697 151.907 127.999 143.36C126.911 135.42 126.146 126.757 129.672 119.38C133.429 114.722 137.633 111.016 143.359 109.227C148.052 109.013 148.052 109.013 151.892 109.227C151.892 104.721 151.892 100.215 151.892 95.5734Z" fill="#F8FBFE"/>
<path d="M379.887 119.68C384.34 121.562 384.34 121.562 390.827 121.173C392.517 120.047 394.206 118.921 395.947 117.76C398.2 120.576 400.453 123.392 402.774 126.293C401.084 127.983 399.394 129.673 397.654 131.413C399.526 136.166 401.441 140.652 403.84 145.173C408.274 155.786 407.972 167.025 404.367 177.827C397.356 193.071 387.673 203.482 372.054 209.92C358.522 212.142 342.536 212.206 330.967 204.253C318.892 193.721 310.292 183.72 308.32 167.567C307.658 154.608 310.48 145.675 317.44 134.827C318.602 132.996 319.764 131.166 320.96 129.28C337.229 111.431 359.173 110.894 379.887 119.68ZM327.007 139.313C319.708 149.604 319.772 160.212 320.854 172.373C324.141 184.313 332.501 191.895 342.8 198.213C351.404 201.667 362.121 201.015 370.947 198.567C380.856 194.109 388.074 186.63 392.767 176.873C396.339 165.964 396.018 153.918 390.934 143.573C385.568 135.413 379.567 129.741 370.347 126.293C352.815 123.498 338.83 125.503 327.007 139.313Z" fill="#FEF9F2"/>
<path d="M145.066 307.2C151.824 307.2 158.583 307.2 165.546 307.2C165.553 308.758 165.56 310.316 165.567 311.921C165.613 317.727 165.697 323.53 165.806 329.335C165.846 331.843 165.87 334.351 165.88 336.859C165.895 340.474 165.966 344.085 166.046 347.7C166.073 349.872 166.099 352.044 166.127 354.281C167.525 361.518 170.262 363.941 175.786 368.64C180.232 374.78 180.328 381.81 179.199 389.12C175.106 397.307 170.354 402.154 162.132 406.187C154.184 407.585 148.432 406.97 141.119 403.52C134.684 397.684 130.239 392.519 129.312 383.647C129.741 374.34 132.897 368.944 139.139 362.18C141.652 360.107 141.652 360.107 145.066 360.107C145.066 342.647 145.066 325.188 145.066 307.2Z" fill="#6AD9D2"/>
<path d="M375.467 337.92C382.225 337.92 388.984 337.92 395.947 337.92C395.947 359.885 395.947 381.85 395.947 404.48C404.958 404.48 413.969 404.48 423.253 404.48C415.771 413.443 407.879 421.772 399.573 429.973C398.399 431.14 397.224 432.308 396.013 433.51C393.151 436.353 390.284 439.192 387.413 442.027C381.35 439.446 377.455 435.899 372.827 431.247C370.665 429.08 370.665 429.08 368.46 426.87C366.971 425.36 365.481 423.849 363.947 422.293C362.431 420.776 360.915 419.26 359.353 417.697C348.16 406.426 348.16 406.426 348.16 404.48C357.171 404.48 366.183 404.48 375.467 404.48C375.467 382.515 375.467 360.55 375.467 337.92Z" fill="#F4FDFB"/>
<path d="M327.68 271.36C336.612 278.829 344.966 286.678 353.173 294.933C354.34 296.094 355.507 297.254 356.71 298.45C357.811 299.553 358.912 300.657 360.047 301.793C361.043 302.792 362.039 303.79 363.066 304.819C365.227 307.2 365.227 307.2 365.227 308.907C356.215 308.907 347.204 308.907 337.92 308.907C337.92 330.871 337.92 352.836 337.92 375.467C331.725 375.467 325.529 375.467 319.147 375.467C319.147 353.502 319.147 331.537 319.147 308.907C310.135 308.907 301.124 308.907 291.84 308.907C299.323 299.944 307.214 291.614 315.52 283.413C316.695 282.246 317.869 281.079 319.08 279.877C321.943 277.034 324.809 274.195 327.68 271.36Z" fill="#FAFEFD"/>
<path d="M83.4671 470.253C87.9226 469.985 92.312 469.986 96.775 470.071C98.4736 470.07 100.172 470.069 101.922 470.067C107.547 470.073 113.169 470.14 118.794 470.207C122.689 470.223 126.585 470.235 130.481 470.243C140.742 470.276 151.002 470.36 161.262 470.454C171.729 470.541 182.196 470.58 192.664 470.623C213.208 470.715 233.751 470.861 254.294 471.04C254.294 472.73 254.294 474.419 254.294 476.16C255.385 476.653 256.476 477.146 257.6 477.653C261.12 479.573 261.12 479.573 262.827 482.987C261.859 482.711 260.891 482.435 259.894 482.15C255.906 481.259 252.394 481.044 248.312 481.01C246.78 480.993 245.248 480.977 243.67 480.959C241.17 480.945 241.17 480.945 238.619 480.93C236.853 480.913 235.088 480.896 233.269 480.878C227.433 480.824 221.597 480.782 215.76 480.74C211.714 480.705 207.668 480.669 203.622 480.632C192.971 480.538 182.321 480.454 171.67 480.372C160.802 480.286 149.935 480.191 139.067 480.097C117.743 479.913 96.4183 479.74 75.0938 479.573C76.8497 474.73 78.2035 471.526 83.4671 470.253Z" fill="#3E9B96"/>
<path d="M150.187 317.44C153.566 317.44 156.945 317.44 160.427 317.44C160.45 319.713 160.45 319.713 160.475 322.032C160.55 327.669 160.655 333.304 160.781 338.94C160.829 341.376 160.865 343.813 160.889 346.25C160.926 349.759 161.005 353.265 161.093 356.773C161.129 358.883 161.165 360.992 161.202 363.165C162.298 369.607 164.199 371.223 168.96 375.467C170.191 382.989 169.847 386.149 165.44 392.427C160.427 395.947 160.427 395.947 154.453 397.12C148.48 395.947 148.48 395.947 143.36 391.573C139.947 385.707 139.947 385.707 139.84 379.52C141.653 373.76 141.653 373.76 145.115 370.705C149.693 365.574 149.4 362.244 149.52 355.44C149.575 353.229 149.63 351.018 149.687 348.74C149.712 346.413 149.736 344.087 149.76 341.76C149.808 339.407 149.859 337.053 149.913 334.7C150.034 328.947 150.124 323.194 150.187 317.44Z" fill="#F8FBF8"/>
<path d="M78.5071 474.453C81.7114 473.831 81.7114 473.831 85.6862 473.856C87.1913 473.854 88.6964 473.851 90.2472 473.849C91.9025 473.872 93.5578 473.896 95.2633 473.92C97.0034 473.925 98.7436 473.93 100.536 473.935C106.312 473.959 112.086 474.022 117.86 474.087C121.861 474.117 125.862 474.146 129.862 474.174C138.257 474.239 146.651 474.324 155.046 474.421C165.82 474.544 176.594 474.613 187.369 474.666C195.634 474.714 203.899 474.794 212.163 474.883C216.136 474.921 220.11 474.949 224.083 474.966C229.633 474.994 235.181 475.065 240.73 475.147C242.382 475.147 244.034 475.146 245.736 475.145C256.89 475.376 256.89 475.376 261.328 479.637C261.823 480.742 262.317 481.848 262.827 482.987C261.859 482.711 260.891 482.435 259.894 482.15C255.906 481.259 252.394 481.044 248.312 481.01C246.78 480.993 245.248 480.977 243.67 480.959C241.17 480.945 241.17 480.945 238.619 480.93C235.971 480.904 235.971 480.904 233.269 480.878C227.433 480.824 221.597 480.782 215.76 480.74C211.714 480.705 207.668 480.669 203.622 480.633C192.971 480.538 182.321 480.454 171.67 480.372C160.802 480.286 149.935 480.191 139.067 480.097C117.743 479.913 96.4183 479.74 75.0938 479.573C76.2202 477.884 77.3466 476.194 78.5071 474.453Z" fill="#3E9B96"/>
<path d="M351.574 134.827C355.517 134.827 359.459 134.827 363.521 134.827C363.521 146.091 363.521 157.355 363.521 168.96C359.578 168.96 355.636 168.96 351.574 168.96C351.574 157.696 351.574 146.432 351.574 134.827Z" fill="#FEEDD9"/>
<path d="M145.066 307.2C151.825 307.2 158.583 307.2 165.546 307.2C165.546 324.659 165.546 342.118 165.546 360.107C164.983 360.107 164.42 360.107 163.84 360.107C163.277 346.027 162.713 331.947 162.133 317.44C158.191 317.44 154.248 317.44 150.186 317.44C150.186 333.773 150.186 350.106 150.186 366.933C149.623 366.933 149.06 366.933 148.48 366.933C148.437 365.488 148.394 364.042 148.35 362.553C148.187 357.151 148.018 351.751 147.844 346.35C147.771 344.02 147.7 341.689 147.631 339.358C147.532 335.994 147.422 332.63 147.313 329.267C147.251 327.247 147.188 325.227 147.123 323.146C146.79 317.721 146.065 312.539 145.066 307.2Z" fill="#6AD9D2"/>
<path d="M341.332 98.9867C352.033 98.9867 362.734 98.9867 373.759 98.9867C373.759 102.366 373.759 105.745 373.759 109.227C363.058 109.227 352.357 109.227 341.332 109.227C341.332 105.847 341.332 102.468 341.332 98.9867Z" fill="#FFFCF8"/>
<path d="M498.345 387.413C498.909 387.413 499.472 387.413 500.052 387.413C500.411 397.284 500.397 407.135 496.639 416.427C492.159 419.947 492.159 419.947 488.105 421.547C491.519 410.169 494.932 398.791 498.345 387.413Z" fill="#3E9B96"/>
<path d="M494.935 418.133C493.655 427.947 493.655 427.947 489.815 431.787C489.815 430.66 489.815 429.534 489.815 428.373C485.591 430.908 485.591 430.908 481.281 433.493C483.517 426.786 486.827 418.133 494.935 418.133Z" fill="#3E9B96"/>
<path d="M464.214 453.973C464.214 459.093 464.214 459.093 461.468 462.52C459.659 464.309 459.659 464.309 457.814 466.133C456.626 467.335 455.438 468.536 454.214 469.773C450.565 472.744 448.327 473.771 443.734 474.453C449.574 466.424 456.669 460.328 464.214 453.973Z" fill="#3E9B96"/>
<path d="M58.0273 465.92C62.2513 466.765 62.2513 466.765 66.5607 467.627C67.1239 469.879 67.6871 472.132 68.2673 474.453C63.1473 474.453 63.1473 474.453 60.2673 472.107C58.0273 469.333 58.0273 469.333 58.0273 465.92Z" fill="#3E9B96"/>
</g>
<defs>
<clipPath id="clip0_248_175">
<rect width="512" height="512" fill="white"/>
</clipPath>
</defs>
</svg>
