<svg width="512" height="512" viewBox="0 0 512 512" fill="none" xmlns="http://www.w3.org/2000/svg">
<g clip-path="url(#clip0_248_159)">
<path d="M59.0789 -0.387673C60.7042 -0.39185 62.3294 -0.39733 63.9547 -0.403992C68.4012 -0.418409 72.8475 -0.414214 77.294 -0.406826C82.0972 -0.402087 86.9002 -0.41461 91.7033 -0.424843C101.105 -0.442023 110.508 -0.442873 119.91 -0.43763C127.553 -0.433586 135.197 -0.435035 142.841 -0.440378C143.929 -0.441127 145.018 -0.441875 146.14 -0.442646C148.351 -0.444178 150.563 -0.445716 152.775 -0.447261C173.508 -0.460983 194.241 -0.455551 214.973 -0.444076C233.931 -0.434144 252.889 -0.447084 271.846 -0.47101C291.323 -0.495407 310.801 -0.505008 330.278 -0.498357C341.208 -0.494866 352.139 -0.49709 363.069 -0.514608C372.374 -0.529337 381.679 -0.529957 390.983 -0.512538C395.728 -0.504031 400.473 -0.50187 405.218 -0.517189C409.566 -0.531055 413.915 -0.526248 418.264 -0.50695C419.832 -0.503196 421.4 -0.506096 422.967 -0.516562C440.003 -0.622137 453.25 3.97532 465.71 15.6836C475.509 25.5992 481.235 38.0917 481.218 52.0621C481.207 53.1061 481.195 54.15 481.184 55.2256C481.18 56.3488 481.175 57.4719 481.171 58.6291C481.155 62.389 481.126 66.1487 481.096 69.9085C481.082 72.606 481.07 75.3034 481.058 78.0009C481.036 83.0574 481.011 88.1137 480.981 93.1701C480.924 103.113 480.896 113.056 480.879 123C480.877 124.567 480.874 126.135 480.871 127.703C480.866 130.876 480.86 134.05 480.855 137.223C480.842 145.375 480.827 153.527 480.808 161.679C480.806 162.906 480.806 162.906 480.803 164.157C480.772 177.397 480.698 190.637 480.609 203.877C480.519 217.49 480.483 231.102 480.494 244.714C480.5 253.1 480.463 261.484 480.37 269.869C480.311 275.623 480.303 281.376 480.336 287.13C480.353 290.446 480.34 293.754 480.28 297.07C479.616 313.014 479.616 313.014 486.9 326.499C489.273 328.69 491.765 330.655 494.344 332.596C503.144 340.062 508.322 354.899 509.999 366C511.087 383.087 511.087 383.087 505.999 389C501.294 392.897 496.478 392.346 490.687 392.188C487.49 392.126 484.293 392.064 480.999 392C480.999 401.57 480.999 411.14 480.999 421C487.312 420.843 487.312 420.843 493.623 420.64C500.73 420.551 504.172 422.295 509.347 427.246C511.513 430.856 511.564 433.975 511.437 438.062C511.414 439.195 511.414 439.195 511.39 440.351C510.856 456.01 504.437 470.375 493.999 482C493.283 482.81 492.566 483.619 491.827 484.453C476.942 500.312 454.709 510.922 432.926 512.177C403.918 512.723 403.918 512.723 389.999 508C389.348 507.78 388.697 507.561 388.027 507.335C374.402 502.625 358.226 494.339 349.999 482C347.648 481.537 347.648 481.537 344.862 481.601C343.773 481.589 342.685 481.576 341.564 481.563C340.365 481.565 339.166 481.566 337.931 481.568C336.672 481.557 335.414 481.547 334.117 481.537C330.66 481.509 327.204 481.5 323.748 481.494C320.137 481.485 316.527 481.458 312.917 481.434C306.079 481.39 299.24 481.362 292.401 481.339C284.616 481.312 276.832 481.268 269.047 481.222C253.031 481.129 237.015 481.058 220.999 481C220.708 481.618 220.416 482.236 220.115 482.872C213.359 495.754 193.58 504.162 180.357 508.337C170.114 511.218 160.383 512.529 149.749 512.438C148.485 512.429 147.221 512.421 145.919 512.412C120.373 511.954 98.4609 502.773 79.9994 485C79.5939 484.472 79.1884 483.944 78.7706 483.399C76.1145 481.301 73.9116 481.614 70.5658 481.594C69.2761 481.572 67.9863 481.55 66.6576 481.527C65.2923 481.517 63.9271 481.507 62.5618 481.5C45.2833 481.382 27.8924 478.623 14.8704 466.133C3.32128 452.968 -0.614099 441.002 -0.515315 423.572C-0.520648 421.922 -0.527716 420.271 -0.536361 418.62C-0.554923 414.107 -0.548708 409.595 -0.538211 405.082C-0.531201 400.206 -0.547229 395.33 -0.560206 390.454C-0.581821 380.911 -0.581726 371.368 -0.573581 361.825C-0.567275 354.067 -0.568422 346.309 -0.574851 338.551C-0.575753 337.446 -0.576657 336.34 -0.577586 335.202C-0.579437 332.956 -0.581297 330.711 -0.583171 328.466C-0.599741 307.422 -0.591039 286.378 -0.574187 265.334C-0.559491 246.092 -0.57412 226.85 -0.602958 207.608C-0.632367 187.837 -0.643321 168.066 -0.633777 148.295C-0.632754 146.058 -0.631756 143.82 -0.63079 141.583C-0.630313 140.482 -0.629839 139.382 -0.629348 138.248C-0.627186 130.502 -0.636979 122.756 -0.651565 115.011C-0.669101 105.567 -0.668952 96.1233 -0.646213 86.6795C-0.635082 81.8637 -0.631879 77.0483 -0.650512 72.2326C-0.667369 67.8189 -0.660895 63.4059 -0.636294 58.9923C-0.631428 57.4009 -0.634883 55.8094 -0.647784 54.2181C-0.765192 38.6011 3.96787 26.5019 14.4993 14.9375C27.3086 2.66808 41.9444 -0.45955 59.0789 -0.387673Z" fill="#6AD9D2"/>
<path d="M28.9981 136C168.258 136 307.518 136 450.998 136C450.998 191.77 450.998 247.54 450.998 305C447.368 304.34 443.738 303.68 439.998 303C411.901 298.68 384.731 303.621 361.623 320.5C348.562 330.719 338.087 344.644 333.998 361C301.988 361 269.978 361 236.998 361C235.678 357.04 234.358 353.08 232.998 349C223.717 328.595 204.926 314.694 184.498 306.688C182.676 306.09 180.842 305.529 178.998 305C177.964 304.702 176.93 304.404 175.865 304.098C167.652 302.104 159.737 301.72 151.311 301.688C150.278 301.682 149.245 301.677 148.181 301.671C125.226 301.883 103.036 309.354 85.9981 325C84.8321 326.046 84.8321 326.046 83.6426 327.113C70.5459 339.464 62.1762 356.819 61.5606 374.875C61.7026 380.044 62.2696 383.173 65.9981 387C71.6874 392.16 77.4466 391.507 84.8419 391.398C87.3926 391.403 89.9434 391.408 92.4942 391.414C96.5036 391.399 100.513 391.375 104.522 391.34C108.4 391.313 112.276 391.323 116.154 391.336C117.351 391.314 118.548 391.293 119.782 391.27C129.059 391.325 129.059 391.325 132.751 394.786C135.609 398.874 135.902 401.634 135.748 406.5C135.771 407.233 135.795 407.967 135.818 408.723C135.775 412.806 135.155 414.775 132.767 418.212C128.033 422.648 122.018 421.792 115.9 421.699C114 421.709 114 421.709 112.061 421.719C108.704 421.734 105.348 421.724 101.991 421.701C97.2604 421.67 92.5301 421.671 87.7995 421.688C85.2842 421.695 82.7689 421.687 80.2537 421.662C78.5415 421.662 78.5415 421.662 76.7947 421.663C75.293 421.652 75.293 421.652 73.7609 421.642C70.541 422.059 68.69 423.241 65.9981 425C65.3381 425 64.6781 425 63.9981 425C63.6887 425.784 63.3794 426.567 63.0606 427.375C61.9981 430 61.9981 430 60.9981 432C60.915 433.375 60.8907 434.755 60.9004 436.133C60.9053 437.341 60.9053 437.341 60.9102 438.574C60.9186 439.416 60.927 440.258 60.9356 441.125C60.9401 441.974 60.9446 442.824 60.9493 443.699C60.9611 445.8 60.979 447.9 60.9981 450C51.2879 450.4 43.6851 450.637 36.2481 443.875C31.1465 438.897 28.8028 432.291 28.5059 425.285C28.4892 423.096 28.4943 420.907 28.5171 418.718C28.5137 417.509 28.5102 416.3 28.5067 415.053C28.5013 411.711 28.5137 408.37 28.5338 405.028C28.5513 401.363 28.5454 397.699 28.5425 394.034C28.5404 386.928 28.5588 379.822 28.5845 372.715C28.6134 364.492 28.6165 356.268 28.6197 348.044C28.6407 326.342 28.6965 304.64 28.7481 282.938C28.8306 234.448 28.9131 185.959 28.9981 136Z" fill="#D5F2FD"/>
<path d="M212.598 321.887C213.391 322.584 214.184 323.282 215.001 324C216.143 325 216.143 325 217.309 326.02C226.026 334.163 233.887 345.371 237.001 357C237.001 358.32 237.001 359.64 237.001 361C269.011 361 301.021 361 334.001 361C334.331 358.69 334.661 356.38 335.001 354C336.108 351.445 337.222 349.108 338.563 346.688C338.919 346.035 339.275 345.383 339.641 344.711C342.857 338.972 346.605 333.9 351.001 329C351.759 328.103 351.759 328.103 352.532 327.188C366.368 311.94 388.823 302.487 409.001 301C437.379 299.651 464.934 305.349 486.93 324.559C500.035 337.117 509.799 353.174 510.293 371.775C510.41 383.876 510.41 383.876 506.001 389C501.295 392.897 496.479 392.346 490.688 392.188C485.893 392.095 485.893 392.095 481.001 392C481.001 401.57 481.001 411.14 481.001 421C487.313 420.843 487.313 420.843 493.624 420.64C500.731 420.551 504.173 422.295 509.348 427.246C511.514 430.856 511.565 433.975 511.438 438.063C511.423 438.818 511.407 439.573 511.392 440.351C510.857 456.01 504.438 470.375 494.001 482C493.284 482.81 492.567 483.619 491.829 484.453C476.943 500.312 454.711 510.923 432.927 512.177C403.92 512.723 403.92 512.723 390.001 508C389.35 507.78 388.699 507.561 388.028 507.335C374.404 502.625 358.227 494.339 350.001 482C347.649 481.537 347.649 481.537 344.863 481.601C343.775 481.589 342.686 481.576 341.565 481.563C340.366 481.565 339.167 481.566 337.932 481.568C336.044 481.552 336.044 481.552 334.118 481.537C330.662 481.509 327.206 481.5 323.749 481.494C320.139 481.485 316.529 481.458 312.919 481.434C306.08 481.39 299.241 481.362 292.402 481.339C284.618 481.312 276.833 481.268 269.048 481.222C253.032 481.129 237.017 481.058 221.001 481C220.709 481.618 220.417 482.236 220.117 482.872C213.36 495.754 193.581 504.162 180.359 508.337C170.116 511.218 160.385 512.529 149.751 512.438C148.486 512.429 147.222 512.421 145.92 512.412C120.849 511.962 97.8032 503.04 80.0007 485C67.4347 471.18 59.3185 453.859 59.6921 435.027C60.1512 430.523 61.0965 428.5 64.0007 425C70.4004 420.119 76.3601 420.473 84.196 420.566C86.7936 420.557 89.3913 420.547 91.9889 420.537C95.3856 420.541 98.7822 420.555 102.179 420.574C106.81 420.599 111.44 420.587 116.071 420.566C117.292 420.583 118.513 420.599 119.771 420.616C126.446 420.652 126.446 420.652 132.267 417.717C133.896 415.163 134.639 413.937 134.665 410.969C134.671 410.24 134.678 409.512 134.684 408.762C134.665 408.015 134.646 407.269 134.626 406.5C134.655 405.38 134.655 405.38 134.684 404.238C134.678 403.51 134.671 402.782 134.665 402.031C134.659 401.377 134.653 400.723 134.648 400.049C133.506 396.433 132.128 395.194 129.001 393C124.753 392.281 120.553 392.375 116.255 392.434C114.389 392.425 114.389 392.425 112.485 392.417C108.511 392.4 104.537 392.415 100.563 392.438C96.5926 392.456 92.6224 392.463 88.6518 392.448C86.1821 392.439 83.7122 392.448 81.2427 392.477C74.8621 392.457 70.8026 392.386 66.0007 388C61.0961 382.433 60.6425 379.084 60.7311 371.762C62.0504 353.349 71.1087 338.576 84.0007 326C84.7303 325.261 85.4599 324.523 86.2116 323.762C119.361 292.03 178.258 293.08 212.598 321.887Z" fill="#E79B34"/>
<path d="M240 1.32024e-05C288.919 -0.161199 288.919 -0.161199 309.441 -0.195299C323.603 -0.21902 337.765 -0.246884 351.927 -0.301745C362.242 -0.341683 372.557 -0.367436 382.871 -0.376341C388.33 -0.381544 393.789 -0.393725 399.248 -0.422907C404.392 -0.450186 409.537 -0.458407 414.682 -0.452418C416.563 -0.453512 418.445 -0.461391 420.327 -0.476809C438.358 -0.617224 452.275 3.05892 465.711 15.6836C476.693 26.7968 481.326 39.9313 481.241 55.3198C481.242 56.4529 481.244 57.5859 481.246 58.7533C481.249 62.5458 481.238 66.3381 481.227 70.1306C481.225 72.8508 481.227 75.571 481.228 78.2913C481.229 84.1456 481.223 89.9999 481.211 95.8542C481.195 104.319 481.19 112.783 481.187 121.247C481.183 134.981 481.17 148.714 481.151 162.448C481.133 175.787 481.118 189.126 481.11 202.465C481.109 203.287 481.109 204.11 481.108 204.957C481.106 209.084 481.103 213.211 481.101 217.337C481.08 251.558 481.045 285.779 481 320C478.374 318.693 475.779 317.351 473.207 315.941C472.494 315.555 471.78 315.169 471.045 314.771C469.573 313.975 468.105 313.173 466.639 312.365C465.919 311.978 465.199 311.591 464.457 311.191C463.817 310.843 463.178 310.494 462.519 310.135C458.799 308.459 454.87 307.29 451 306C451 249.9 451 193.8 451 136C381.37 136 311.74 136 240 136C240 91.12 240 46.24 240 1.32024e-05Z" fill="#56BAB4"/>
<path d="M212.599 321.887C213.392 322.584 214.185 323.282 215.002 324C216.144 325 216.144 325 217.31 326.02C226.027 334.163 233.888 345.371 237.002 357C237.002 358.32 237.002 359.64 237.002 361C269.012 361 301.022 361 334.002 361C334.332 358.69 334.662 356.38 335.002 354C336.109 351.445 337.223 349.108 338.564 346.688C338.92 346.035 339.275 345.383 339.642 344.711C342.858 338.972 346.606 333.9 351.002 329C351.759 328.103 351.759 328.103 352.533 327.188C366.369 311.94 388.824 302.487 409.002 301C437.38 299.651 464.935 305.349 486.931 324.559C500.036 337.117 509.8 353.174 510.294 371.775C510.411 383.876 510.411 383.876 506.002 389C501.296 392.897 496.48 392.346 490.689 392.188C485.894 392.095 485.894 392.095 481.002 392C481.002 401.57 481.002 411.14 481.002 421C475.555 421.138 470.115 421.257 464.669 421.33C462.818 421.36 460.967 421.401 459.117 421.453C456.45 421.526 453.786 421.56 451.119 421.586C450.297 421.617 449.474 421.648 448.627 421.68C443.459 421.683 440.715 420.671 436.993 417.073C436.002 415 436.002 415 436.002 407C336.672 407 237.342 407 135.002 407C134.507 402.545 134.507 402.545 134.002 398C132.416 394.732 132.416 394.732 129.002 393C124.747 392.312 120.556 392.375 116.255 392.434C114.39 392.425 114.39 392.425 112.486 392.417C108.512 392.4 104.538 392.415 100.564 392.438C96.5934 392.456 92.6233 392.463 88.6526 392.448C86.183 392.439 83.7131 392.448 81.2436 392.477C74.8629 392.457 70.8035 392.386 66.0015 388C61.097 382.433 60.6434 379.084 60.732 371.762C62.0513 353.349 71.1096 338.576 84.0015 326C84.7311 325.261 85.4607 324.523 86.2125 323.762C119.361 292.03 178.259 293.08 212.599 321.887Z" fill="#EDBA2C"/>
<path d="M85.5956 180.499C86.9874 180.495 88.3793 180.489 89.7711 180.482C93.5861 180.467 97.4008 180.477 101.216 180.492C105.334 180.503 109.452 180.491 113.57 180.482C121.633 180.468 129.696 180.476 137.759 180.491C147.148 180.507 156.537 180.504 165.926 180.5C182.678 180.495 199.429 180.509 216.181 180.533C232.437 180.557 248.694 180.564 264.95 180.554C282.652 180.543 300.354 180.541 318.056 180.555C319.944 180.557 321.831 180.558 323.718 180.56C324.647 180.56 325.576 180.561 326.532 180.562C333.078 180.567 339.623 180.565 346.169 180.561C354.144 180.556 362.12 180.562 370.095 180.581C374.165 180.591 378.234 180.596 382.304 180.589C386.029 180.581 389.754 180.588 393.479 180.606C395.465 180.612 397.452 180.603 399.438 180.594C401.211 180.607 401.21 180.607 403.019 180.62C404.545 180.621 404.545 180.621 406.102 180.623C410.848 181.24 414.083 183.008 417.313 186.5C420.038 190.537 420.134 193.63 420.162 198.396C420.166 199.04 420.171 199.684 420.177 200.348C420.191 202.478 420.198 204.608 420.204 206.738C420.209 208.222 420.215 209.705 420.221 211.189C420.231 214.3 420.237 217.411 420.241 220.522C420.246 224.5 420.27 228.478 420.299 232.456C420.317 235.521 420.322 238.586 420.324 241.651C420.327 243.117 420.335 244.583 420.348 246.049C420.365 248.105 420.363 250.16 420.357 252.216C420.36 253.384 420.364 254.552 420.368 255.755C419.88 260.064 418.434 263.428 415.5 266.645C410.967 270.174 408.083 271.124 402.419 271.134C400.666 271.141 400.666 271.141 398.878 271.148C397.588 271.148 396.298 271.147 394.969 271.147C393.589 271.15 392.21 271.154 390.831 271.158C387.031 271.168 383.232 271.172 379.433 271.175C375.339 271.179 371.245 271.188 367.15 271.197C357.259 271.217 347.368 271.227 337.476 271.236C332.82 271.24 328.164 271.245 323.507 271.251C308.032 271.268 292.556 271.282 277.081 271.289C273.064 271.291 269.048 271.293 265.031 271.295C264.033 271.296 263.034 271.296 262.006 271.297C245.828 271.305 229.651 271.33 213.473 271.363C196.87 271.396 180.266 271.414 163.663 271.417C154.338 271.419 145.014 271.428 135.689 271.453C127.749 271.475 119.81 271.483 111.869 271.474C107.818 271.469 103.767 271.471 99.7152 271.49C96.0053 271.508 92.2959 271.507 88.586 271.491C86.61 271.488 84.6339 271.504 82.658 271.521C74.8726 271.464 70.1143 270.765 64.2451 265.393C59.7682 258.758 60.2924 251.543 60.3715 243.809C60.3706 242.335 60.3682 240.861 60.3642 239.387C60.3613 236.309 60.3759 233.233 60.4035 230.156C60.4376 226.226 60.4315 222.297 60.4128 218.368C60.4022 215.328 60.4112 212.288 60.4262 209.249C60.4313 207.8 60.4309 206.352 60.4246 204.904C60.3853 190.396 60.3853 190.396 65.0004 185C71.476 180.042 77.6612 180.44 85.5956 180.499Z" fill="#56BAB4"/>
<path d="M240 136C309.63 136 379.26 136 451 136C451 191.77 451 247.54 451 305C447.37 304.34 443.74 303.68 440 303C411.903 298.68 384.733 303.621 361.625 320.5C348.428 330.826 339.324 344.027 334 360C302.98 360 271.96 360 240 360C240 330.63 240 301.26 240 271C258.087 270.944 258.087 270.944 276.539 270.887C284.168 270.856 291.797 270.825 299.426 270.791C311.541 270.737 323.655 270.685 335.77 270.654C344.593 270.631 353.415 270.597 362.238 270.551C366.91 270.527 371.581 270.509 376.253 270.502C380.651 270.496 385.048 270.476 389.446 270.446C391.059 270.437 392.672 270.433 394.286 270.435C396.491 270.437 398.695 270.42 400.901 270.399C402.134 270.394 403.367 270.39 404.638 270.385C409.649 269.811 412.899 268.191 416.312 264.5C419.037 260.463 419.133 257.37 419.161 252.604C419.166 251.96 419.171 251.316 419.176 250.652C419.191 248.522 419.198 246.392 419.203 244.262C419.209 242.778 419.215 241.295 419.22 239.811C419.231 236.7 419.237 233.589 419.24 230.478C419.246 226.5 419.27 222.522 419.298 218.544C419.317 215.479 419.322 212.414 419.324 209.349C419.327 207.883 419.335 206.417 419.348 204.951C419.365 202.895 419.363 200.84 419.356 198.784C419.36 197.616 419.364 196.448 419.367 195.245C418.852 190.696 417.412 187.28 414 184.188C410.049 181.842 406.73 181.865 402.223 181.842C401.184 181.834 401.184 181.834 400.124 181.827C397.798 181.811 395.472 181.803 393.146 181.795C391.48 181.785 389.815 181.775 388.149 181.765C383.623 181.738 379.096 181.717 374.57 181.697C369.841 181.675 365.113 181.647 360.384 181.621C351.427 181.571 342.471 181.526 333.514 181.483C323.318 181.433 313.123 181.378 302.927 181.323C281.951 181.209 260.976 181.103 240 181C240 166.15 240 151.3 240 136Z" fill="#BCEBFB"/>
<path d="M79.2201 180.519C80.2581 180.514 80.2581 180.514 81.3171 180.509C83.6175 180.502 85.9167 180.524 88.2169 180.546C89.8731 180.547 91.5293 180.546 93.1855 180.544C97.6686 180.543 102.151 180.566 106.634 180.594C111.324 180.619 116.014 180.622 120.704 180.627C129.579 180.639 138.454 180.672 147.329 180.712C159.326 180.765 171.323 180.787 183.32 180.81C202.213 180.848 221.107 180.927 240 181C240 210.7 240 240.4 240 271C198.403 271.161 198.403 271.161 180.979 271.195C168.945 271.219 156.912 271.247 144.879 271.302C136.115 271.342 127.351 271.367 118.587 271.376C113.948 271.382 109.308 271.394 104.668 271.423C100.299 271.45 95.9304 271.458 91.5612 271.452C89.9596 271.454 88.358 271.461 86.7565 271.477C84.5646 271.497 82.3741 271.492 80.1821 271.481C78.9571 271.485 77.732 271.488 76.4698 271.492C71.5516 270.794 67.9438 268.779 64.2451 265.393C59.7682 258.758 60.2924 251.543 60.3715 243.809C60.3706 242.335 60.3682 240.861 60.3642 239.387C60.3613 236.309 60.3759 233.233 60.4035 230.156C60.4376 226.226 60.4315 222.297 60.4128 218.368C60.4022 215.328 60.4112 212.288 60.4262 209.249C60.4313 207.8 60.4309 206.352 60.4246 204.904C60.3853 190.396 60.3853 190.396 65.0004 185C69.9675 181.669 73.1208 180.501 79.2201 180.519Z" fill="#6AD9D2"/>
<path d="M236 452C268.67 452 301.34 452 335 452C336.65 456.29 338.3 460.58 340 465C341.832 468.643 341.832 468.643 343.688 471.562C345.6 474.688 347.358 477.715 349 481C307.09 481 265.18 481 222 481C223.501 477.998 225.044 475.271 226.812 472.438C230.712 465.986 234.166 459.336 236 452Z" fill="#56BAB4"/>
<path d="M451.117 391.414C452.403 391.427 452.403 391.427 453.715 391.44C456.436 391.473 459.154 391.548 461.875 391.625C463.727 391.655 465.578 391.682 467.43 391.707C471.955 391.768 476.474 391.885 481 392C481 401.57 481 411.14 481 421C475.554 421.138 470.114 421.257 464.667 421.33C462.816 421.36 460.966 421.401 459.115 421.453C456.449 421.526 453.784 421.559 451.117 421.586C449.884 421.632 449.884 421.632 448.626 421.68C444.257 421.682 441.728 421.271 438.48 418.219C435.196 414.662 435.102 411.168 435.25 406.5C435.227 405.766 435.204 405.033 435.18 404.277C435.222 400.332 435.762 397.725 438.48 394.781C442.387 391.11 445.963 391.22 451.117 391.414Z" fill="#56BAB4"/>
<path d="M351.688 62.1875C356.181 64.646 358.384 67.153 360 72C360.575 77.8626 359.603 82.3471 356 87C352.384 89.8001 348.936 90.8687 344.438 91.5C340.282 90.8955 337.138 89.773 334 87C330.564 82.3413 329.157 77.7952 330 72C331.759 67.0654 334.449 63.9791 339.145 61.6562C343.675 60.054 347.219 60.7486 351.688 62.1875Z" fill="#BCEBFB"/>
<path d="M294.938 63.6875C298.23 67.3788 299.799 70.4491 300.438 75.375C299.888 79.9304 298.827 83.3497 296 87C292.384 89.8002 288.936 90.8687 284.438 91.5C280.282 90.8956 277.138 89.773 274 87C270.564 82.3414 269.157 77.7953 270 72C271.715 67.7727 273.957 64.2743 278 62C283.649 60.1899 289.82 60.7477 294.938 63.6875Z" fill="#BCEBFB"/>
<path d="M414.938 63.6875C418.23 67.3788 419.799 70.4491 420.438 75.375C419.888 79.9304 418.827 83.3497 416 87C412.384 89.8002 408.936 90.8687 404.438 91.5C400.282 90.8956 397.138 89.773 394 87C390.564 82.3414 389.157 77.7953 390 72C391.715 67.7727 393.957 64.2743 398 62C403.649 60.1899 409.82 60.7477 414.938 63.6875Z" fill="#BCEBFB"/>
<path d="M451 392C451 401.57 451 411.14 451 421C442 421 442 421 438.484 418.531C435.293 414.771 435.099 411.282 435.25 406.5C435.227 405.767 435.204 405.033 435.18 404.277C435.223 400.244 435.841 397.583 438.484 394.469C442 392 442 392 451 392Z" fill="#BDEBFA"/>
<path d="M236 452C237.32 452 238.64 452 240 452C240 461.57 240 471.14 240 481C234.06 481 228.12 481 222 481C223.501 477.998 225.044 475.271 226.812 472.438C230.654 466.082 234.418 459.315 236 452Z" fill="#6AD9D2"/>
</g>
<defs>
<clipPath id="clip0_248_159">
<rect width="512" height="512" fill="white"/>
</clipPath>
</defs>
</svg>
